<svg xmlns="http://www.w3.org/2000/svg" width="24" height="24" viewBox="0 0 24 24" fill="none">
    <path opacity="0.3"
        d="M8.52 18C8.38667 18 8.27333 17.96 8.18 17.88C8.1 17.7867 8.06 17.6733 8.06 17.54V6.34L4.74 8.9C4.63333 8.98 4.52 9.01333 4.4 9C4.28 8.98667 4.18 8.92667 4.1 8.82L3.58 8.16C3.5 8.04 3.46667 7.92 3.48 7.8C3.50667 7.68 3.57333 7.58 3.68 7.5L8.04 4.14C8.13333 4.07333 8.22 4.03333 8.3 4.02C8.38 4.00667 8.46667 4 8.56 4H9.58C9.71333 4 9.82 4.04667 9.9 4.14C9.98 4.22 10.02 4.32667 10.02 4.46V17.54C10.02 17.6733 9.98 17.7867 9.9 17.88C9.82 17.96 9.71333 18 9.58 18H8.52Z"
        fill="currentColor" />
    <path opacity="0.3"
        d="M17.878 18C17.7753 18 17.6913 17.9673 17.626 17.902C17.57 17.8367 17.542 17.7573 17.542 17.664V10.412L15.414 12.05C15.33 12.106 15.246 12.1293 15.162 12.12C15.078 12.1013 15.0033 12.05 14.938 11.966L14.35 11.21C14.294 11.126 14.2707 11.0373 14.28 10.944C14.2987 10.8507 14.35 10.776 14.434 10.72L17.57 8.298C17.626 8.25133 17.682 8.22333 17.738 8.214C17.794 8.20467 17.8547 8.2 17.92 8.2H19.152C19.2453 8.2 19.3247 8.23267 19.39 8.298C19.4553 8.36333 19.488 8.44267 19.488 8.536V17.664C19.488 17.7573 19.4553 17.8367 19.39 17.902C19.3247 17.9673 19.2453 18 19.152 18H17.878Z"
        fill="currentColor" />
</svg>