<svg xmlns="http://www.w3.org/2000/svg" width="24" height="24" viewBox="0 0 24 24" fill="none">
    <path opacity="0.3"
        d="M0.8 18C0.693333 18 0.6 17.96 0.52 17.88C0.44 17.8 0.4 17.7067 0.4 17.6C0.4 17.5333 0.406667 17.46 0.42 17.38L5.38 4.44C5.43333 4.30667 5.50667 4.2 5.6 4.12C5.69333 4.04 5.83333 4 6.02 4H7.38C7.55333 4 7.68667 4.04 7.78 4.12C7.88667 4.2 7.96667 4.30667 8.02 4.44L12.96 17.38C12.9867 17.46 13 17.5333 13 17.6C13 17.7067 12.96 17.8 12.88 17.88C12.8 17.96 12.7067 18 12.6 18H11.58C11.42 18 11.3 17.96 11.22 17.88C11.1533 17.8 11.1067 17.7267 11.08 17.66L9.98 14.82H3.42L2.32 17.66C2.30667 17.7267 2.26 17.8 2.18 17.88C2.1 17.96 1.98 18 1.82 18H0.8ZM4 13.1H9.4L6.7 6L4 13.1Z"
        fill="currentColor" />
    <path opacity="0.3"
        d="M14.49 18C14.4153 18 14.3453 17.972 14.28 17.916C14.224 17.86 14.196 17.79 14.196 17.706C14.196 17.6687 14.2053 17.6267 14.224 17.58L17.598 8.55C17.626 8.45667 17.6773 8.37733 17.752 8.312C17.836 8.23733 17.948 8.2 18.088 8.2H19.614C19.754 8.2 19.8613 8.23733 19.936 8.312C20.0107 8.37733 20.0667 8.45667 20.104 8.55L23.478 17.58C23.4873 17.6267 23.492 17.6687 23.492 17.706C23.492 17.79 23.464 17.86 23.408 17.916C23.352 17.972 23.2867 18 23.212 18H21.994C21.8633 18 21.7653 17.972 21.7 17.916C21.644 17.8507 21.6067 17.79 21.588 17.734L20.93 16.026H16.772L16.114 17.734C16.0953 17.79 16.0533 17.8507 15.988 17.916C15.932 17.972 15.8387 18 15.708 18H14.49ZM17.262 14.416H20.44L18.844 10.09L17.262 14.416Z"
        fill="currentColor" />
</svg>