<svg width="100%" height="100%" viewBox="0 0 16 16" fill="none" xmlns="http://www.w3.org/2000/svg">
<path fill-rule="evenodd" clip-rule="evenodd" d="M7.81395 0.017266C7.56623 0.120926 0.0296744 3.62069 0.00855814 3.64184C-0.00590698 3.65628 0.0124186 3.69774 0.0493023 3.7339C0.0861395 3.77005 1.86395 4.6093 4 5.59895C7.29819 7.12692 7.90828 7.39509 8.04651 7.37743C8.19307 7.35875 15.6439 3.94234 15.8953 3.77853C15.9529 3.74103 16 3.69257 16 3.67082C16 3.60634 8.22423 0.0215522 8.04651 0.00408133C7.95698 -0.00472397 7.85233 0.00119282 7.81395 0.017266ZM1.09302 7.42192C0.555814 7.66572 0.0856279 7.89527 0.048186 7.93198C-0.0116279 7.99054 -0.0116279 8.00657 0.048186 8.06327C0.0856279 8.09877 1.82209 8.92046 3.90698 9.88932C7.66098 11.6337 7.7006 11.6508 8 11.6515C8.30042 11.6522 8.32609 11.6412 12.093 9.891C14.1779 8.92237 15.9144 8.1003 15.9518 8.06425C16.0116 8.00671 16.0116 7.99054 15.9518 7.93189C15.8208 7.8033 13.9254 6.97374 13.7627 6.97374C13.6551 6.97374 12.7428 7.37151 10.8778 8.23164C9.12693 9.03907 8.0973 9.48954 8.0026 9.48954C7.90791 9.48954 6.87907 9.03926 5.12837 8.23164C3.12284 7.30643 2.35777 6.97439 2.23572 6.97616C2.12944 6.97775 1.71865 7.13796 1.09302 7.42192ZM1.09302 11.754C0.12907 12.1938 0 12.262 0 12.3317C0 12.3512 1.77972 13.1899 3.95498 14.1954C7.27512 15.7303 7.93395 16.0197 8.05963 15.999C8.18939 15.9776 15.9166 12.4305 15.9869 12.3601C16.0525 12.2944 15.8398 12.1744 14.9151 11.7555C14.2658 11.4613 13.8677 11.3065 13.7606 11.3065C13.6449 11.3065 12.7992 11.6747 10.8707 12.5644C9.21172 13.3299 8.08949 13.8223 8.00405 13.8223C7.9186 13.8223 6.79526 13.3296 5.13609 12.5644C3.13 11.6392 2.36381 11.3067 2.23921 11.3074C2.12563 11.3081 1.74777 11.4553 1.09302 11.754Z" fill="currentColor"/>
</svg>
