<svg width="100%" height="100%" viewBox="0 0 16 16" fill="none" xmlns="http://www.w3.org/2000/svg">
    <path fill-rule="evenodd" clip-rule="evenodd" d="M11.9882 0.119059C11.6335 0.338759 11.6506 -0.0594905 11.6506 7.99921C11.6506 16.0877 11.632 15.6661 11.9988 15.8825C12.2545 16.0333 15.3316 16.0416 15.6209 15.8921C16.0222 15.6848 15.9998 16.1532 15.9998 7.99921C15.9998 -0.154789 16.0222 0.313587 15.6209 0.106314C15.3322 -0.0427518 12.2318 -0.0319095 11.9882 0.119059ZM6.05706 4.60068L5.84119 4.81626V10.1867V15.5571L6.05706 15.7727L6.27293 15.9883H7.99989H9.72685L9.94272 15.7727L10.1586 15.5571V10.1867V4.81626L9.94272 4.60068L9.72685 4.3851H7.99989H6.27293L6.05706 4.60068ZM0.529073 8.76426C0.418471 8.7973 0.25422 8.912 0.163999 9.01903L8.99514e-07 9.21362V12.3188C8.99514e-07 15.7252 -0.00323721 15.6948 0.378853 15.8921C0.663166 16.039 3.7449 16.0336 3.99537 15.8858C4.35791 15.6719 4.34762 15.7666 4.3673 12.4569C4.38718 9.11654 4.38368 9.07983 4.02413 8.84428C3.86629 8.74093 3.67874 8.72704 2.28867 8.71627C1.43147 8.70954 0.639674 8.73117 0.529073 8.76426Z" fill="currentColor"/>
</svg>
