<svg width="100%" height="100%" viewBox="0 0 16 16" fill="none" xmlns="http://www.w3.org/2000/svg">
<path fill-rule="evenodd" clip-rule="evenodd" d="M2.60291 1.03604C2.12662 1.18021 2.04314 1.82475 2.46855 2.07387C2.64491 2.17715 2.69366 2.17806 8.00984 2.17806C13.0965 2.17806 13.3819 2.17329 13.5424 2.08581C13.7849 1.95358 13.8832 1.69801 13.7957 1.42765C13.759 1.31447 13.6645 1.17416 13.5855 1.11579C13.4423 1.00987 13.4316 1.00967 8.0951 1.00088C5.1543 0.996005 2.68278 1.01185 2.60291 1.03604ZM1.95143 3.4033C1.59786 3.55078 1.49567 4.01077 1.75266 4.29814L1.901 4.46405H8.00984H14.1187L14.2728 4.29169C14.4085 4.14 14.4239 4.092 14.4013 3.89179C14.3825 3.72563 14.3328 3.62149 14.2166 3.50536L14.0576 3.34646L8.09784 3.33594C2.84246 3.32665 2.11604 3.33462 1.95143 3.4033ZM1.78321 5.73903C1.53812 5.82869 1.27804 6.06928 1.12959 6.34365C1.02024 6.54583 1.01963 6.56503 1.00565 10.1997C0.98984 14.3282 0.980994 14.218 1.35973 14.6285C1.73115 15.0312 1.31657 15.0088 8.11533 14.9933L14.1358 14.9796L14.3439 14.8683C14.6044 14.7291 14.8413 14.4631 14.9311 14.2093C14.9867 14.0521 15 13.3015 15 10.3314C15 6.88731 14.994 6.63285 14.9072 6.40806C14.7895 6.10331 14.4437 5.79145 14.1383 5.71459C13.9782 5.67431 12.1827 5.65886 7.94919 5.6614C2.85903 5.6645 1.95596 5.67583 1.78321 5.73903Z" fill="currentColor"/>
</svg>
