<svg xmlns="http://www.w3.org/2000/svg" width="100%" height="100%" viewBox="0 0 20 20" fill="none">
<path fill-rule="evenodd" clip-rule="evenodd" d="M8.80399 0.0485146C7.59798 0.238862 6.36309 0.726153 5.33001 1.41941C4.13968 2.21809 2.93864 3.68167 2.38911 5.00292C2.09735 5.70441 1.80287 6.87034 1.7334 7.59856C1.68738 8.08173 1.66487 8.132 1.42907 8.27783C1.28897 8.36446 1.00978 8.61152 0.808597 8.82689C-0.361089 10.0785 -0.249554 11.948 1.06396 13.1072C1.26188 13.2819 1.5472 13.488 1.69809 13.5652C1.9314 13.6846 1.99373 13.7771 2.11574 14.1847C2.32492 14.8838 2.91085 16.0039 3.42304 16.6837C4.45512 18.0535 5.82133 19.0371 7.4436 19.5781C10.393 20.5619 13.5781 19.7973 15.7894 17.5745C16.7578 16.6012 17.504 15.3884 17.8819 14.174C17.994 13.8138 18.0695 13.7063 18.3026 13.5752C19.7586 12.7561 20.3907 11.0386 19.7511 9.64002C19.5427 9.18443 18.9762 8.528 18.5798 8.2828C18.3409 8.13495 18.3292 8.10224 18.2073 7.23457C17.8098 4.40289 16.1725 2.09207 13.69 0.858774C12.5234 0.279263 11.5835 0.0447077 10.2721 0.00586122C9.71715 -0.010532 9.05648 0.00865815 8.80399 0.0485146ZM12.1508 2.00125C14.8534 2.93706 16.5003 5.17151 16.6615 8.12128L16.7143 9.08801L17.1748 9.26632C17.9678 9.57336 18.3055 10.0352 18.3055 10.8127C18.3055 11.6382 17.9705 12.0817 17.072 12.4464C16.7024 12.5964 16.6266 12.6618 16.5699 12.88C15.9592 15.2297 14.6499 16.8704 12.6676 17.7701C11.0816 18.4899 8.91715 18.4889 7.32795 17.7677C5.35283 16.8712 3.86398 14.9993 3.43996 12.8791C3.41156 12.7374 3.33052 12.6028 3.25989 12.5802C3.18918 12.5575 2.90992 12.4337 2.63927 12.3051C1.96555 11.9852 1.69545 11.5718 1.69545 10.8609C1.69545 10.0317 2.01562 9.58012 2.82609 9.26632L3.28659 9.08801L3.33937 8.12128C3.46992 5.73152 4.5429 3.84747 6.45111 2.6569C7.64602 1.91144 8.5879 1.6716 10.1945 1.70369C11.2952 1.72575 11.402 1.74199 12.1508 2.00125ZM9.03024 5.12691C8.23242 5.38019 7.52152 5.94386 7.10697 6.65211C6.88957 7.02356 6.66293 7.78533 6.66293 8.14466V8.36407L7.49731 8.342L8.33169 8.31994L8.37523 8.00917C8.49049 7.18694 9.13223 6.6504 10.0005 6.6504C10.662 6.6504 11.1996 6.96327 11.4786 7.51085C11.6861 7.91811 11.6861 8.72177 11.4786 9.12903C11.1611 9.7519 10.6735 9.98917 9.70939 9.98987L9.14667 9.99034V11.2334V12.4765H10.0005H10.8542V11.9799C10.8542 11.5029 10.8626 11.4813 11.0677 11.4301C11.7876 11.2507 12.6542 10.4598 13.052 9.6192C13.28 9.13735 13.2989 9.03666 13.2949 8.31994C13.2915 7.69575 13.256 7.45902 13.1143 7.1157C12.7302 6.18548 11.8885 5.40304 10.9818 5.13344C10.5137 4.99437 9.45907 4.9908 9.03024 5.12691ZM9.16343 14.1663L9.18548 15.0015H10.0005H10.8154L10.8375 14.1663L10.8595 13.3311H10.0005H9.14139L9.16343 14.1663Z" fill="currentColor"/>
</svg>