<svg xmlns="http://www.w3.org/2000/svg" width="100%" height="100%" viewBox="0 0 13 13" fill="none">
    <path fill-rule="evenodd" clip-rule="evenodd" d="M4.15695 1.53557C3.89277 1.99581 3.6608 2.3908 3.64147 2.4133C3.6157 2.44329 3.34679 2.50878 2.63396 2.65862C2.09916 2.77106 1.65845 2.86539 1.65459 2.86827C1.65074 2.87113 1.69538 3.325 1.75374 3.87686C1.85665 4.84935 1.8586 4.88168 1.81731 4.92815C1.79388 4.9545 1.4879 5.29502 1.13736 5.68484L0.5 6.39361L1.13736 7.10238C1.4879 7.4922 1.79388 7.83271 1.81731 7.85907C1.8586 7.90554 1.85665 7.93787 1.75374 8.91036C1.69538 9.46222 1.65074 9.91609 1.65459 9.91895C1.65845 9.92183 2.09916 10.0162 2.63396 10.1286C3.34679 10.2784 3.6157 10.3439 3.64147 10.3739C3.6608 10.3964 3.89277 10.7914 4.15695 11.2517C4.57096 11.9729 4.64374 12.0869 4.68413 12.0768C4.70991 12.0704 5.12917 11.8866 5.6158 11.6684L6.50063 11.2715L7.41337 11.6794C7.91539 11.9037 8.33435 12.0871 8.34443 12.087C8.35448 12.0869 8.57887 11.7106 8.84305 11.2508C9.10723 10.791 9.3392 10.3966 9.35853 10.3742C9.38414 10.3446 9.65776 10.2782 10.366 10.1297C10.9008 10.0176 11.3415 9.92314 11.3454 9.91979C11.3493 9.91646 11.3046 9.46222 11.2463 8.91036C11.1433 7.93787 11.1414 7.90554 11.1827 7.85907C11.2061 7.83271 11.5121 7.4922 11.8626 7.10238L12.5 6.39361L11.8626 5.68484C11.5121 5.295 11.2061 4.9545 11.1827 4.92815C11.1414 4.88168 11.1433 4.84935 11.2463 3.87686C11.3046 3.325 11.3493 2.87076 11.3454 2.86743C11.3415 2.86408 10.9008 2.76961 10.366 2.65749C9.65776 2.50899 9.38414 2.44259 9.35853 2.41299C9.3392 2.39066 9.10723 1.99619 8.84305 1.53641C8.57887 1.07661 8.35448 0.700313 8.34443 0.700195C8.33435 0.700078 7.91539 0.883516 7.41337 1.10782L6.50063 1.51567L5.6158 1.11885C5.12917 0.900621 4.70991 0.716808 4.68413 0.710411C4.64374 0.700359 4.57096 0.814302 4.15695 1.53557ZM6.19295 8.17258L9.05574 4.90082L8.30316 4.24231L5.78382 7.12157L4.44382 5.84538L3.75416 6.56951L5.47183 8.20539L5.84951 8.56508L6.19295 8.17258Z" fill="#49C510"/>
</svg>