<svg width="100%" height="100%" viewBox="0 0 23 21" fill="currentColor" xmlns="http://www.w3.org/2000/svg">
<path fill-rule="evenodd" clip-rule="evenodd" d="M0.87793 2.62496C0.87793 2.09777 1.30699 1.67041 1.83626 1.67041H21.1626C21.6919 1.67041 22.121 2.09777 22.121 2.62496V6.99996C22.121 7.52714 21.6919 7.9545 21.1626 7.9545H20.364V18.375C20.364 18.9022 19.9349 19.3295 19.4057 19.3295H3.59318C3.0639 19.3295 2.63484 18.9022 2.63484 18.375V7.9545H1.83626C1.30699 7.9545 0.87793 7.52714 0.87793 6.99996V2.62496ZM4.55151 7.9545H18.4473V17.4204H4.55151V7.9545ZM2.7946 3.5795V6.04541H20.2043V3.5795H2.7946ZM9.74251 9.54541C9.21324 9.54541 8.78418 9.97277 8.78418 10.5C8.78418 11.0271 9.21324 11.4545 9.74251 11.4545H13.2564C13.7857 11.4545 14.2147 11.0271 14.2147 10.5C14.2147 9.97277 13.7857 9.54541 13.2564 9.54541H9.74251Z" fill="currentColor"/>
</svg>
