<svg width="100%" height="100%" viewBox="0 0 16 16" fill="none" xmlns="http://www.w3.org/2000/svg">
<path fill-rule="evenodd" clip-rule="evenodd" d="M5.89591 2.71351C5.55417 2.75379 5.23899 2.89258 4.90826 3.14844C4.06341 3.80195 3.28789 5.33408 2.71184 8.03333H13.1216C12.8755 6.86809 12.5082 5.33977 12.1375 4.60334C11.4779 3.29292 10.7681 2.70362 9.8561 2.709C9.23366 2.71269 8.96122 2.84023 8.57083 3.31073C8.32898 3.60216 8.20606 3.68082 7.99234 3.68082C7.7786 3.68082 7.6557 3.60219 7.41386 3.3107C7.29325 3.16529 7.13766 3.0063 7.06818 2.95739C6.89109 2.83282 6.64265 2.74451 6.41698 2.72597C6.3112 2.71729 6.18947 2.70637 6.14645 2.70168C6.10343 2.69703 5.9907 2.70235 5.89591 2.71351ZM13.3376 9.91176H1.92V9.90782L1.40406 9.91186C0.345515 9.92015 0.296865 9.92305 0.21405 9.98287C0.0291788 10.1164 -0.00145057 10.189 5.11785e-05 10.49C0.00540115 11.5646 0.803767 12.5923 1.92279 12.9653C1.93065 12.9679 1.93834 12.9705 1.94589 12.973C1.97693 12.9834 2.0056 12.993 2.0345 13.0019C2.38331 13.1088 2.76618 13.109 7.76983 13.111L8.07547 13.1111C13.455 13.1134 13.5499 13.1124 13.8025 13.0526C15.0373 12.76 15.9072 11.7726 15.992 10.5672C16.0086 10.3319 16.0033 10.2945 15.9377 10.1816C15.8898 10.0993 15.8208 10.0359 15.7357 9.99612C15.6137 9.93902 15.5425 9.93563 14.4609 9.93563C13.6632 9.93563 13.417 9.93352 13.3376 9.91176Z" fill="currentColor"/>
</svg>
