<svg width="100%" height="100%" viewBox="0 0 16 16" fill="none" xmlns="http://www.w3.org/2000/svg">
<path fill-rule="evenodd" clip-rule="evenodd" d="M12.3341 0.0623831C12.5087 0.154435 12.6559 0.305222 12.732 0.470035C12.7933 0.602848 12.8016 0.724456 12.8023 1.50987L12.8031 2.39929L13.4692 2.41478C14.0711 2.4288 14.1596 2.43956 14.3882 2.52646C15.0935 2.79457 15.6055 3.30769 15.8731 4.0144C15.9598 4.24352 15.9705 4.33218 15.9845 4.93537L16 5.60282H8H9.53674e-07L0.01546 4.93537C0.0294571 4.33218 0.0401888 4.24352 0.126908 4.0144C0.395771 3.30427 0.903103 2.79588 1.61175 2.52646C1.84039 2.43956 1.92887 2.4288 2.5308 2.41478L3.19686 2.39929V1.51806C3.19686 0.806468 3.20808 0.609918 3.25514 0.497034C3.37998 0.197528 3.66986 0 3.98458 0C4.31573 0 4.55521 0.14259 4.71086 0.432432C4.7861 0.572503 4.79248 0.645415 4.80344 1.49471L4.81526 2.40658H8H11.1847L11.1966 1.49471C11.2075 0.645415 11.2139 0.572503 11.2891 0.432432C11.3905 0.243629 11.5082 0.132663 11.6861 0.0582092C11.8638 -0.0162068 12.189 -0.014101 12.3341 0.0623831ZM15.9843 10.6886L15.974 14.1575L15.8755 14.411C15.5989 15.1234 15.0992 15.6242 14.3882 15.9014L14.1353 16H8.03752H1.93979L1.67712 15.9166C0.956988 15.6879 0.359298 15.0961 0.109497 14.3643L0.0260429 14.1199L0.0159111 10.6698L0.00574207 7.21974H8.00019H15.9946L15.9843 10.6886Z" fill="currentCollor"/>
</svg>
