<svg width="100%" height="100%" viewBox="0 0 16 16" fill="none" xmlns="http://www.w3.org/2000/svg">
<g clip-path="url(#clip0_567_2867)">
<path fill-rule="evenodd" clip-rule="evenodd" d="M11.6787 1.00101C11.5113 0.633413 11.2475 0.388434 10.8719 0.251865C10.7293 0.200034 10.5695 0.195612 7.9476 0.20257L5.17996 0.210212L4.9699 0.313777C4.67806 0.457662 4.47009 0.670027 4.32777 0.969601L4.21135 1.21458L4.19572 2.89051L4.1801 3.4126L3.3701 3.42885L1.41725 3.44511L1.20855 3.52965C0.750211 3.71536 0.381638 4.06917 0.180134 4.51692C0.0129077 4.88848 -0.00815231 5.07113 0.00219028 6.06015L0.0111882 6.91933L4.00283 8.30346L7.99446 9.68759L11.9861 8.30346L15.9777 6.91933L15.9866 6.06015C15.9968 5.063 15.9742 4.86813 15.8066 4.50746C15.6002 4.06331 15.2323 3.71275 14.7804 3.52965L14.5717 3.44511L12.6188 3.42885L11.8088 3.4126L11.7932 2.89233C11.7905 2.80064 11.7881 2.68608 11.7854 2.55882C11.7735 1.99145 11.7564 1.17168 11.6787 1.00101ZM5.50012 1.5H10.5001V3.4H5.50012V1.5ZM15.8779 14.2635C16.0019 13.9561 15.9996 13.5977 16.0001 11.0282C16.0005 8.84726 15.9926 8.28827 15.9616 8.3002C15.9401 8.30846 14.2001 8.91268 12.0949 9.64297L8.26732 10.9707H8.00173H7.73614L3.90855 9.64297C1.80337 8.91268 0.0633564 8.30846 0.0418901 8.3002C-0.0103531 8.28011 -0.0152893 13.6397 0.0367041 13.9359C0.0553265 14.042 0.125442 14.2511 0.192464 14.4006C0.348755 14.749 0.692863 15.1213 1.0027 15.2771C1.05468 15.3033 1.09295 15.3261 1.13269 15.3459C1.42053 15.4894 1.78555 15.4783 8.00173 15.4783C14.2179 15.4783 14.5829 15.4894 14.8708 15.3459C14.9105 15.3261 14.9488 15.3033 15.0008 15.2771C15.2862 15.1335 15.6422 14.7594 15.7958 14.4415C15.828 14.3749 15.8551 14.3201 15.8779 14.2635Z" fill="currentColor"/>
</g>
<defs>
<clipPath id="clip0_567_2867">
<rect width="100%" height="100%" fill="currentColor"/>
</clipPath>
</defs>
</svg>
