<svg width="100%" height="100%" viewBox="0 0 22 22" fill="none" xmlns="http://www.w3.org/2000/svg">
<path d="M4.85417 9.63424C4.65534 9.69017 4.49462 9.8253 4.40473 10.0121L4.35371 10.1182L4.35354 10.3038C4.35339 10.488 4.35371 10.4901 4.39767 10.5822C4.49466 10.7854 4.58288 10.8659 4.83464 10.9806L4.96163 11.0388C5.00999 11.0611 5.05245 11.0793 5.05599 11.0793C5.06273 11.0793 5.22329 11.1523 5.25881 11.1716C5.2701 11.1777 5.35755 11.2167 5.45312 11.2583C5.5487 11.2998 5.63615 11.3385 5.64743 11.3443C5.70029 11.3713 5.84393 11.4372 5.84995 11.4372C5.85686 11.4372 5.94629 11.4777 6.19861 11.5951C6.24697 11.6177 6.28943 11.6361 6.29297 11.6361C6.29651 11.6361 6.33897 11.6547 6.38733 11.6774L6.55668 11.7569C6.60146 11.778 6.64099 11.7951 6.64453 11.7951C6.64807 11.7951 6.69053 11.8134 6.73889 11.8356C6.78725 11.8579 6.84733 11.8854 6.8724 11.8967C6.89746 11.9081 6.92721 11.9221 6.9385 11.9279C6.94979 11.9336 7.03724 11.9723 7.13281 12.0139C7.22839 12.0554 7.31583 12.0939 7.32712 12.0994C7.33841 12.1049 7.36816 12.1187 7.39323 12.1301L7.51693 12.1863C7.5599 12.2058 7.62142 12.2335 7.65365 12.2479C7.77284 12.3011 7.85146 12.3367 7.96944 12.391C8.0178 12.4132 8.06026 12.4315 8.0638 12.4315C8.06979 12.4315 8.15549 12.4703 8.3112 12.5437C8.347 12.5606 8.43432 12.5994 8.50523 12.63C8.57615 12.6606 8.64353 12.6904 8.65497 12.6963C8.70691 12.7229 8.85169 12.7894 8.85776 12.7894C8.86147 12.7894 8.90408 12.8076 8.95244 12.8299C9.07167 12.8847 9.12432 12.9083 9.17057 12.9277C9.19206 12.9366 9.23014 12.9532 9.25521 12.9644C9.2996 12.9844 9.37104 13.0131 9.46354 13.0483C9.48861 13.0579 9.54134 13.0758 9.58073 13.0883L9.70443 13.1274C9.82432 13.1655 10.0375 13.2189 10.1732 13.2448C10.3825 13.2848 10.4648 13.2949 10.7298 13.3132C11.1492 13.3421 11.5769 13.3071 11.9766 13.2112C12.0088 13.2034 12.0557 13.1926 12.0807 13.1871C12.1682 13.1679 12.2568 13.1438 12.3021 13.127C12.3271 13.1177 12.3857 13.0979 12.4323 13.083C12.4788 13.068 12.5492 13.0431 12.5885 13.0277C12.6279 13.0122 12.6752 12.9947 12.6936 12.9889C12.712 12.983 12.7384 12.972 12.7522 12.9645C12.766 12.9569 12.8096 12.9376 12.849 12.9216C12.8883 12.9056 12.9528 12.8777 12.9922 12.8597L13.1094 12.8062C13.1344 12.7948 13.1641 12.781 13.1753 12.7756C13.1865 12.7702 13.2946 12.7227 13.4154 12.6701C13.5362 12.6175 13.6442 12.5698 13.6554 12.5641C13.6666 12.5584 13.6992 12.5432 13.7279 12.5304C13.7565 12.5176 13.7891 12.5027 13.8003 12.4972C13.8115 12.4918 13.9196 12.4443 14.0404 12.3917C14.1612 12.3391 14.2692 12.2914 14.2804 12.2857C14.3012 12.2751 14.3591 12.249 14.4471 12.2104C14.474 12.1986 14.5053 12.1845 14.5166 12.179C14.5279 12.1735 14.6158 12.1349 14.7119 12.0932C14.8757 12.0223 15.0032 11.9649 15.0503 11.9409C15.0615 11.9352 15.1696 11.8875 15.2904 11.8349C15.4112 11.7823 15.5192 11.7348 15.5304 11.7294C15.5416 11.724 15.5728 11.7097 15.5996 11.6977C15.6711 11.6657 15.7225 11.6423 15.821 11.597C15.8694 11.5747 15.9165 11.5565 15.9258 11.5565C15.9351 11.5565 15.9483 11.5512 15.9551 11.5446C15.9619 11.538 16.0255 11.5077 16.0964 11.4772C16.1673 11.4466 16.2347 11.4171 16.2461 11.4115C16.2576 11.4059 16.2889 11.3915 16.3158 11.3795C16.4173 11.3341 16.4568 11.3166 16.5044 11.2957C16.5313 11.2839 16.5627 11.2697 16.5742 11.2641C16.5856 11.2585 16.653 11.2289 16.7239 11.1984C16.7948 11.1679 16.8584 11.1376 16.8652 11.131C16.872 11.1244 16.8852 11.1191 16.8945 11.1191C16.9038 11.1191 16.9509 11.1006 16.9993 11.0781C17.0477 11.0556 17.1048 11.0293 17.1263 11.0197C17.2965 10.9433 17.4298 10.8668 17.4836 10.8147C17.7447 10.5618 17.7751 10.169 17.5561 9.87704C17.5047 9.80846 17.3869 9.7115 17.3151 9.67871C17.2389 9.64388 17.091 9.60827 17.0216 9.60803C16.8968 9.60761 16.8048 9.63945 16.4524 9.80509C16.4041 9.82783 16.3616 9.84643 16.3581 9.84643C16.3545 9.84643 16.3135 9.86432 16.267 9.8862L16.0976 9.96574C16.0511 9.98761 16.0099 10.0055 16.0062 10.0055C16.0025 10.0055 15.963 10.0229 15.9183 10.0443C15.7738 10.1133 15.6615 10.1646 15.6549 10.1646C15.6514 10.1646 15.6104 10.1825 15.5638 10.2044L15.3945 10.2839C15.3479 10.3058 15.3069 10.3237 15.3034 10.3237C15.2998 10.3237 15.2588 10.3416 15.2123 10.3634L15.0429 10.443C14.9964 10.4648 14.9554 10.4827 14.9518 10.4827C14.9483 10.4827 14.9073 10.5006 14.8607 10.5225L14.6914 10.6021C14.6448 10.6239 14.6037 10.6418 14.5999 10.6418C14.5939 10.6418 14.4491 10.7083 14.3972 10.7349C14.3857 10.7408 14.3183 10.7707 14.2474 10.8014C14.1765 10.8322 14.07 10.8804 14.0108 10.9086C13.9516 10.9369 13.9002 10.96 13.8966 10.96C13.893 10.96 13.8536 10.9774 13.809 10.9987C13.6624 11.0687 13.5521 11.1191 13.5453 11.1191C13.5415 11.1191 13.502 11.1365 13.4574 11.1578C13.3109 11.2278 13.2006 11.2781 13.1937 11.2781C13.19 11.2781 13.1505 11.2956 13.1058 11.3169C12.9593 11.3869 12.849 11.4372 12.8421 11.4372C12.8361 11.4372 12.6925 11.5031 12.6396 11.5301C12.5261 11.5881 12.1803 11.7302 12.0547 11.7705C12.0081 11.7854 11.9464 11.806 11.9175 11.8163C11.8886 11.8265 11.854 11.8349 11.8405 11.8349C11.8271 11.8349 11.7863 11.8435 11.7498 11.854C11.6558 11.881 11.4613 11.9118 11.2857 11.9275C10.9061 11.9614 10.5186 11.9236 10.1341 11.815C10.0983 11.8049 10.0573 11.7938 10.043 11.7903C10.0191 11.7846 9.91094 11.7445 9.7418 11.6788C9.70505 11.6645 9.64939 11.6405 9.6181 11.6255C9.50517 11.5713 9.38521 11.5168 9.37891 11.5168C9.37536 11.5168 9.3329 11.4982 9.28454 11.4754L9.1152 11.3959C9.07042 11.3749 9.03089 11.3577 9.02734 11.3577C9.0238 11.3577 8.98427 11.3405 8.93949 11.3195L8.77014 11.2399C8.72178 11.2172 8.67932 11.1986 8.67578 11.1986C8.67224 11.1986 8.63124 11.1807 8.58467 11.1588L8.41533 11.0793C8.36876 11.0574 8.32776 11.0395 8.32422 11.0395C8.32068 11.0395 8.27822 11.0209 8.22986 10.9982L8.06051 10.9186C8.01573 10.8976 7.9762 10.8804 7.97266 10.8804C7.96911 10.8804 7.92811 10.8625 7.88155 10.8407L7.7122 10.7611C7.66564 10.7393 7.62464 10.7214 7.62109 10.7214C7.61755 10.7214 7.57802 10.7042 7.53324 10.6832L7.36389 10.6036C7.31553 10.5809 7.27307 10.5623 7.26953 10.5623C7.26599 10.5623 7.22499 10.5444 7.17842 10.5225L7.00908 10.443C6.96251 10.4211 6.92151 10.4032 6.91797 10.4032C6.91443 10.4032 6.87342 10.3853 6.82686 10.3634L6.65751 10.2839C6.61095 10.262 6.56995 10.2441 6.56641 10.2441C6.55982 10.2441 6.44751 10.1928 6.30301 10.1238C6.2584 10.1025 6.21887 10.085 6.21516 10.085C6.21145 10.085 6.1703 10.0672 6.12374 10.0453L5.95439 9.96574C5.90783 9.94386 5.86682 9.92597 5.86328 9.92597C5.85974 9.92597 5.81874 9.90807 5.77217 9.8862L5.60283 9.80666C5.55626 9.78478 5.51526 9.76689 5.51172 9.76689C5.50818 9.76689 5.46865 9.74995 5.42387 9.72925C5.29105 9.66785 5.26833 9.65887 5.17973 9.63274C5.07622 9.60224 4.96618 9.60274 4.85417 9.63424Z" fill="currentColor"/>
<path fill-rule="evenodd" clip-rule="evenodd" d="M7.28833 2.13551C7.48985 2.05749 7.50314 2.05428 7.81242 2.00853C7.85181 2.00271 9.85669 1.99898 11.0455 2.00025L11.2716 2.00048C13.3599 2.00263 14.2613 2.00356 14.4674 2.05716C14.5702 2.08391 14.7713 2.15208 14.8124 2.17411C14.8303 2.18372 14.8713 2.20452 14.9036 2.22035C15.0466 2.29063 15.2224 2.41539 15.3593 2.54397C15.6174 2.78631 15.823 3.12286 15.9146 3.453C15.9868 3.71324 16.0006 4.88323 15.9947 5.44061L15.9932 5.58529C17.9269 5.58782 18.1063 5.59342 18.1745 5.60784C18.4932 5.67525 18.5625 5.69304 18.7148 5.7466C18.765 5.76422 18.8177 5.7817 18.832 5.78546C18.8464 5.78921 18.8757 5.80038 18.8971 5.81027C18.9186 5.82017 18.9714 5.84408 19.0143 5.86336C19.8071 6.21942 20.4311 6.8792 20.7629 7.71212C20.7989 7.80245 20.8128 7.84371 20.8639 8.01039C20.9094 8.1585 20.9557 8.38205 20.9677 8.51083C20.9723 8.56003 20.9814 8.60031 20.988 8.60031C20.9953 8.60031 21 10.3429 21 13.0346C21 15.7264 20.9953 17.469 20.988 17.469C20.9814 17.469 20.9723 17.5092 20.9677 17.5584C20.9467 17.7839 20.8454 18.1691 20.7454 18.4036C20.6545 18.6166 20.5474 18.8196 20.4353 18.9912C20.2448 19.2828 20.0149 19.5327 19.6836 19.8082C19.491 19.9684 19.1315 20.1682 18.819 20.2888C18.5736 20.3835 18.3455 20.4386 18.0247 20.4809C17.8299 20.5066 4.1847 20.5062 3.97526 20.4805C3.74836 20.4527 3.54703 20.4109 3.41493 20.3642C3.38604 20.354 3.35255 20.3456 3.34049 20.3456C3.32845 20.3456 3.29935 20.3373 3.27583 20.3271C3.25232 20.3169 3.20964 20.2996 3.18099 20.2886C3.15234 20.2776 3.0791 20.2476 3.01823 20.2218C2.38892 19.9558 1.7862 19.4113 1.44582 18.8013C1.39454 18.7093 1.25034 18.4061 1.22833 18.3439C1.12418 18.0496 1.05056 17.7546 1.0323 17.5584C1.02772 17.5092 1.01858 17.469 1.01198 17.469C1.00562 17.469 1.00122 16.1356 1.00022 14L1 12C1.00107 9.90485 1.00569 8.60031 1.01198 8.60031C1.01858 8.60031 1.02772 8.56003 1.0323 8.51083C1.05328 8.28552 1.15383 7.90313 1.25452 7.66572C1.38492 7.35826 1.56017 7.06204 1.76134 6.80902C1.94129 6.58272 2.27337 6.27745 2.49125 6.13804C2.69318 6.00884 2.9418 5.87703 3.10938 5.81034L3.19845 5.77494C3.25156 5.75391 3.37335 5.71526 3.46094 5.69166C3.50749 5.67912 3.57539 5.6603 3.61182 5.64984C3.64826 5.63938 3.69513 5.63079 3.71599 5.63075C3.73685 5.63071 3.77734 5.62402 3.80599 5.61588C3.83464 5.60772 3.91374 5.59665 3.98177 5.59127C4.01481 5.58866 4.78562 5.58643 6.00948 5.58493L6.00983 5.29607C6.01055 4.64785 6.0116 3.71206 6.08673 3.44637C6.15938 3.18937 6.31901 2.89539 6.49338 2.69737C6.53513 2.64998 6.60142 2.5809 6.64071 2.54386C6.71573 2.47315 6.91928 2.31293 6.93411 2.31293C6.93886 2.31293 6.9688 2.29504 7.00064 2.27316C7.03247 2.25129 7.06127 2.23339 7.06465 2.23339C7.06802 2.23339 7.10728 2.21619 7.15189 2.19516C7.19649 2.17414 7.2579 2.14729 7.28833 2.13551ZM14.6563 4.33151C14.6564 5.02604 14.6572 5.38637 14.6608 5.58412C13.738 5.58358 12.5684 5.58327 11.0846 5.58296C9.71334 5.58267 8.42401 5.58296 7.32999 5.5837C7.33038 5.54236 7.33063 5.49698 7.33075 5.44724C7.33196 4.96036 7.3395 3.87293 7.38968 3.76437C7.4844 3.55945 7.61851 3.44326 7.83846 3.37561C7.90392 3.35547 9.08794 3.35357 10.9804 3.35357L11.2532 3.35356C13.3194 3.35342 14.1478 3.35337 14.2981 3.43201C14.3977 3.4841 14.5349 3.62327 14.5804 3.71817L14.5833 3.72426C14.6042 3.76791 14.6191 3.79903 14.6297 3.83156C14.6562 3.91242 14.6562 4.00192 14.6563 4.31395L14.6563 4.33151ZM18.0638 6.97344C18.1919 7.00387 18.3425 7.05102 18.4284 7.08761C18.4845 7.1115 18.6518 7.19801 18.6888 7.22226C18.7103 7.23634 18.7367 7.25195 18.7474 7.25699C18.803 7.28301 18.9903 7.44168 19.1027 7.55793C19.3087 7.77104 19.4771 8.05314 19.5668 8.33518C19.6157 8.48883 19.6286 8.55384 19.6578 8.79253C19.6684 8.87897 19.6714 10.0694 19.6687 13.1142L19.6685 13.3723C19.6651 17.1612 19.665 17.3402 19.6265 17.5107C19.6246 17.5191 19.6226 17.5275 19.6205 17.5364C19.6196 17.5403 19.6186 17.5444 19.6176 17.5485C19.6099 17.5813 19.599 17.629 19.5934 17.6546C19.5878 17.6801 19.5705 17.7338 19.555 17.7739C19.5394 17.814 19.522 17.8617 19.5163 17.8799C19.5027 17.9237 19.4296 18.075 19.3978 18.1252C19.384 18.147 19.3686 18.1739 19.3637 18.1848C19.3395 18.2381 19.1556 18.468 19.0647 18.5587C18.8345 18.7883 18.5521 18.9609 18.2591 19.0512C18.077 19.1073 18.0429 19.1134 17.7643 19.1389C17.5192 19.1614 4.18633 19.1513 4.07292 19.1286C3.85992 19.0859 3.78997 19.0693 3.75021 19.0519C3.72669 19.0416 3.69906 19.0332 3.6888 19.0332C3.65422 19.0332 3.40751 18.9154 3.29288 18.8442C3.08505 18.715 2.88096 18.5254 2.73305 18.324C2.68484 18.2584 2.64134 18.1958 2.63637 18.1848C2.63139 18.1739 2.61576 18.147 2.60161 18.1252C2.58747 18.1033 2.57013 18.0721 2.56309 18.0558C2.55603 18.0395 2.53775 18.0007 2.52246 17.9696C2.48642 17.8963 2.41956 17.714 2.40694 17.6546C2.40152 17.629 2.39073 17.5843 2.38296 17.5551L2.37647 17.5305C2.33463 17.3662 2.33463 17.1912 2.33464 13.0872V13.028C2.33464 9.60791 2.3379 8.77211 2.35163 8.68647C2.4432 8.11477 2.70236 7.67638 3.15721 7.32372C3.20143 7.28944 3.2416 7.26139 3.24647 7.26139C3.25135 7.26139 3.27962 7.24482 3.30931 7.22458C3.35526 7.19324 3.47725 7.12973 3.57161 7.08802C3.62184 7.06583 3.71527 7.03384 3.76042 7.0234C3.78548 7.01759 3.81673 7.00828 3.82986 7.0027C3.84298 6.99713 3.90451 6.98215 3.96658 6.96943C4.07323 6.94756 4.46121 6.94643 11.026 6.94904C17.4004 6.95157 17.9802 6.95357 18.0638 6.97344Z" fill="currentColor"/>
<path d="M4.85417 9.63424C4.65534 9.69017 4.49462 9.8253 4.40473 10.0121L4.35371 10.1182L4.35354 10.3038C4.35339 10.488 4.35371 10.4901 4.39767 10.5822C4.49466 10.7854 4.58288 10.8659 4.83464 10.9806L4.96163 11.0388C5.00999 11.0611 5.05245 11.0793 5.05599 11.0793C5.06273 11.0793 5.22329 11.1523 5.25881 11.1716C5.2701 11.1777 5.35755 11.2167 5.45312 11.2583C5.5487 11.2998 5.63615 11.3385 5.64743 11.3443C5.70029 11.3713 5.84393 11.4372 5.84995 11.4372C5.85686 11.4372 5.94629 11.4777 6.19861 11.5951C6.24697 11.6177 6.28943 11.6361 6.29297 11.6361C6.29651 11.6361 6.33897 11.6547 6.38733 11.6774L6.55668 11.7569C6.60146 11.778 6.64099 11.7951 6.64453 11.7951C6.64807 11.7951 6.69053 11.8134 6.73889 11.8356C6.78725 11.8579 6.84733 11.8854 6.8724 11.8967C6.89746 11.9081 6.92721 11.9221 6.9385 11.9279C6.94979 11.9336 7.03724 11.9723 7.13281 12.0139C7.22839 12.0554 7.31583 12.0939 7.32712 12.0994C7.33841 12.1049 7.36816 12.1187 7.39323 12.1301L7.51693 12.1863C7.5599 12.2058 7.62142 12.2335 7.65365 12.2479C7.77284 12.3011 7.85146 12.3367 7.96944 12.391C8.0178 12.4132 8.06026 12.4315 8.0638 12.4315C8.06979 12.4315 8.15549 12.4703 8.3112 12.5437C8.347 12.5606 8.43432 12.5994 8.50523 12.63C8.57615 12.6606 8.64353 12.6904 8.65497 12.6963C8.70691 12.7229 8.85169 12.7894 8.85776 12.7894C8.86147 12.7894 8.90408 12.8076 8.95244 12.8299C9.07167 12.8847 9.12432 12.9083 9.17057 12.9277C9.19206 12.9366 9.23014 12.9532 9.25521 12.9644C9.2996 12.9844 9.37104 13.0131 9.46354 13.0483C9.48861 13.0579 9.54134 13.0758 9.58073 13.0883L9.70443 13.1274C9.82432 13.1655 10.0375 13.2189 10.1732 13.2448C10.3825 13.2848 10.4648 13.2949 10.7298 13.3132C11.1492 13.3421 11.5769 13.3071 11.9766 13.2112C12.0088 13.2034 12.0557 13.1926 12.0807 13.1871C12.1682 13.1679 12.2568 13.1438 12.3021 13.127C12.3271 13.1177 12.3857 13.0979 12.4323 13.083C12.4788 13.068 12.5492 13.0431 12.5885 13.0277C12.6279 13.0122 12.6752 12.9947 12.6936 12.9889C12.712 12.983 12.7384 12.972 12.7522 12.9645C12.766 12.9569 12.8096 12.9376 12.849 12.9216C12.8883 12.9056 12.9528 12.8777 12.9922 12.8597L13.1094 12.8062C13.1344 12.7948 13.1641 12.781 13.1753 12.7756C13.1865 12.7702 13.2946 12.7227 13.4154 12.6701C13.5362 12.6175 13.6442 12.5698 13.6554 12.5641C13.6666 12.5584 13.6992 12.5432 13.7279 12.5304C13.7565 12.5176 13.7891 12.5027 13.8003 12.4972C13.8115 12.4918 13.9196 12.4443 14.0404 12.3917C14.1612 12.3391 14.2692 12.2914 14.2804 12.2857C14.3012 12.2751 14.3591 12.249 14.4471 12.2104C14.474 12.1986 14.5053 12.1845 14.5166 12.179C14.5279 12.1735 14.6158 12.1349 14.7119 12.0932C14.8757 12.0223 15.0032 11.9649 15.0503 11.9409C15.0615 11.9352 15.1696 11.8875 15.2904 11.8349C15.4112 11.7823 15.5192 11.7348 15.5304 11.7294C15.5416 11.724 15.5728 11.7097 15.5996 11.6977C15.6711 11.6657 15.7225 11.6423 15.821 11.597C15.8694 11.5747 15.9165 11.5565 15.9258 11.5565C15.9351 11.5565 15.9483 11.5512 15.9551 11.5446C15.9619 11.538 16.0255 11.5077 16.0964 11.4772C16.1673 11.4466 16.2347 11.4171 16.2461 11.4115C16.2576 11.4059 16.2889 11.3915 16.3158 11.3795C16.4173 11.3341 16.4568 11.3166 16.5044 11.2957C16.5313 11.2839 16.5627 11.2697 16.5742 11.2641C16.5856 11.2585 16.653 11.2289 16.7239 11.1984C16.7948 11.1679 16.8584 11.1376 16.8652 11.131C16.872 11.1244 16.8852 11.1191 16.8945 11.1191C16.9038 11.1191 16.9509 11.1006 16.9993 11.0781C17.0477 11.0556 17.1048 11.0293 17.1263 11.0197C17.2965 10.9433 17.4298 10.8668 17.4836 10.8147C17.7447 10.5618 17.7751 10.169 17.5561 9.87704C17.5047 9.80846 17.3869 9.7115 17.3151 9.67871C17.2389 9.64388 17.091 9.60827 17.0216 9.60803C16.8968 9.60761 16.8048 9.63945 16.4524 9.80509C16.4041 9.82783 16.3616 9.84643 16.3581 9.84643C16.3545 9.84643 16.3135 9.86432 16.267 9.8862L16.0976 9.96574C16.0511 9.98761 16.0099 10.0055 16.0062 10.0055C16.0025 10.0055 15.963 10.0229 15.9183 10.0443C15.7738 10.1133 15.6615 10.1646 15.6549 10.1646C15.6514 10.1646 15.6104 10.1825 15.5638 10.2044L15.3945 10.2839C15.3479 10.3058 15.3069 10.3237 15.3034 10.3237C15.2998 10.3237 15.2588 10.3416 15.2123 10.3634L15.0429 10.443C14.9964 10.4648 14.9554 10.4827 14.9518 10.4827C14.9483 10.4827 14.9073 10.5006 14.8607 10.5225L14.6914 10.6021C14.6448 10.6239 14.6037 10.6418 14.5999 10.6418C14.5939 10.6418 14.4491 10.7083 14.3972 10.7349C14.3857 10.7408 14.3183 10.7707 14.2474 10.8014C14.1765 10.8322 14.07 10.8804 14.0108 10.9086C13.9516 10.9369 13.9002 10.96 13.8966 10.96C13.893 10.96 13.8536 10.9774 13.809 10.9987C13.6624 11.0687 13.5521 11.1191 13.5453 11.1191C13.5415 11.1191 13.502 11.1365 13.4574 11.1578C13.3109 11.2278 13.2006 11.2781 13.1937 11.2781C13.19 11.2781 13.1505 11.2956 13.1058 11.3169C12.9593 11.3869 12.849 11.4372 12.8421 11.4372C12.8361 11.4372 12.6925 11.5031 12.6396 11.5301C12.5261 11.5881 12.1803 11.7302 12.0547 11.7705C12.0081 11.7854 11.9464 11.806 11.9175 11.8163C11.8886 11.8265 11.854 11.8349 11.8405 11.8349C11.8271 11.8349 11.7863 11.8435 11.7498 11.854C11.6558 11.881 11.4613 11.9118 11.2857 11.9275C10.9061 11.9614 10.5186 11.9236 10.1341 11.815C10.0983 11.8049 10.0573 11.7938 10.043 11.7903C10.0191 11.7846 9.91094 11.7445 9.7418 11.6788C9.70505 11.6645 9.64939 11.6405 9.6181 11.6255C9.50517 11.5713 9.38521 11.5168 9.37891 11.5168C9.37536 11.5168 9.3329 11.4982 9.28454 11.4754L9.1152 11.3959C9.07042 11.3749 9.03089 11.3577 9.02734 11.3577C9.0238 11.3577 8.98427 11.3405 8.93949 11.3195L8.77014 11.2399C8.72178 11.2172 8.67932 11.1986 8.67578 11.1986C8.67224 11.1986 8.63124 11.1807 8.58467 11.1588L8.41533 11.0793C8.36876 11.0574 8.32776 11.0395 8.32422 11.0395C8.32068 11.0395 8.27822 11.0209 8.22986 10.9982L8.06051 10.9186C8.01573 10.8976 7.9762 10.8804 7.97266 10.8804C7.96911 10.8804 7.92811 10.8625 7.88155 10.8407L7.7122 10.7611C7.66564 10.7393 7.62464 10.7214 7.62109 10.7214C7.61755 10.7214 7.57802 10.7042 7.53324 10.6832L7.36389 10.6036C7.31553 10.5809 7.27307 10.5623 7.26953 10.5623C7.26599 10.5623 7.22499 10.5444 7.17842 10.5225L7.00908 10.443C6.96251 10.4211 6.92151 10.4032 6.91797 10.4032C6.91443 10.4032 6.87342 10.3853 6.82686 10.3634L6.65751 10.2839C6.61095 10.262 6.56995 10.2441 6.56641 10.2441C6.55982 10.2441 6.44751 10.1928 6.30301 10.1238C6.2584 10.1025 6.21887 10.085 6.21516 10.085C6.21145 10.085 6.1703 10.0672 6.12374 10.0453L5.95439 9.96574C5.90783 9.94386 5.86682 9.92597 5.86328 9.92597C5.85974 9.92597 5.81874 9.90807 5.77217 9.8862L5.60283 9.80666C5.55626 9.78478 5.51526 9.76689 5.51172 9.76689C5.50818 9.76689 5.46865 9.74995 5.42387 9.72925C5.29105 9.66785 5.26833 9.65887 5.17973 9.63274C5.07622 9.60224 4.96618 9.60274 4.85417 9.63424Z" stroke="currentColor" stroke-width="0.2"/>
<path fill-rule="evenodd" clip-rule="evenodd" d="M7.28833 2.13551C7.48985 2.05749 7.50314 2.05428 7.81242 2.00853C7.85181 2.00271 9.85669 1.99898 11.0455 2.00025L11.2716 2.00048C13.3599 2.00263 14.2613 2.00356 14.4674 2.05716C14.5702 2.08391 14.7713 2.15208 14.8124 2.17411C14.8303 2.18372 14.8713 2.20452 14.9036 2.22035C15.0466 2.29063 15.2224 2.41539 15.3593 2.54397C15.6174 2.78631 15.823 3.12286 15.9146 3.453C15.9868 3.71324 16.0006 4.88323 15.9947 5.44061L15.9932 5.58529C17.9269 5.58782 18.1063 5.59342 18.1745 5.60784C18.4932 5.67525 18.5625 5.69304 18.7148 5.7466C18.765 5.76422 18.8177 5.7817 18.832 5.78546C18.8464 5.78921 18.8757 5.80038 18.8971 5.81027C18.9186 5.82017 18.9714 5.84408 19.0143 5.86336C19.8071 6.21942 20.4311 6.8792 20.7629 7.71212C20.7989 7.80245 20.8128 7.84371 20.8639 8.01039C20.9094 8.1585 20.9557 8.38205 20.9677 8.51083C20.9723 8.56003 20.9814 8.60031 20.988 8.60031C20.9953 8.60031 21 10.3429 21 13.0346C21 15.7264 20.9953 17.469 20.988 17.469C20.9814 17.469 20.9723 17.5092 20.9677 17.5584C20.9467 17.7839 20.8454 18.1691 20.7454 18.4036C20.6545 18.6166 20.5474 18.8196 20.4353 18.9912C20.2448 19.2828 20.0149 19.5327 19.6836 19.8082C19.491 19.9684 19.1315 20.1682 18.819 20.2888C18.5736 20.3835 18.3455 20.4386 18.0247 20.4809C17.8299 20.5066 4.1847 20.5062 3.97526 20.4805C3.74836 20.4527 3.54703 20.4109 3.41493 20.3642C3.38604 20.354 3.35255 20.3456 3.34049 20.3456C3.32845 20.3456 3.29935 20.3373 3.27583 20.3271C3.25232 20.3169 3.20964 20.2996 3.18099 20.2886C3.15234 20.2776 3.0791 20.2476 3.01823 20.2218C2.38892 19.9558 1.7862 19.4113 1.44582 18.8013C1.39454 18.7093 1.25034 18.4061 1.22833 18.3439C1.12418 18.0496 1.05056 17.7546 1.0323 17.5584C1.02772 17.5092 1.01858 17.469 1.01198 17.469C1.00562 17.469 1.00122 16.1356 1.00022 14L1 12C1.00107 9.90485 1.00569 8.60031 1.01198 8.60031C1.01858 8.60031 1.02772 8.56003 1.0323 8.51083C1.05328 8.28552 1.15383 7.90313 1.25452 7.66572C1.38492 7.35826 1.56017 7.06204 1.76134 6.80902C1.94129 6.58272 2.27337 6.27745 2.49125 6.13804C2.69318 6.00884 2.9418 5.87703 3.10938 5.81034L3.19845 5.77494C3.25156 5.75391 3.37335 5.71526 3.46094 5.69166C3.50749 5.67912 3.57539 5.6603 3.61182 5.64984C3.64826 5.63938 3.69513 5.63079 3.71599 5.63075C3.73685 5.63071 3.77734 5.62402 3.80599 5.61588C3.83464 5.60772 3.91374 5.59665 3.98177 5.59127C4.01481 5.58866 4.78562 5.58643 6.00948 5.58493L6.00983 5.29607C6.01055 4.64785 6.0116 3.71206 6.08673 3.44637C6.15938 3.18937 6.31901 2.89539 6.49338 2.69737C6.53513 2.64998 6.60142 2.5809 6.64071 2.54386C6.71573 2.47315 6.91928 2.31293 6.93411 2.31293C6.93886 2.31293 6.9688 2.29504 7.00064 2.27316C7.03247 2.25129 7.06127 2.23339 7.06465 2.23339C7.06802 2.23339 7.10728 2.21619 7.15189 2.19516C7.19649 2.17414 7.2579 2.14729 7.28833 2.13551ZM14.6563 4.33151C14.6564 5.02604 14.6572 5.38637 14.6608 5.58412C13.738 5.58358 12.5684 5.58327 11.0846 5.58296C9.71334 5.58267 8.42401 5.58296 7.32999 5.5837C7.33038 5.54236 7.33063 5.49698 7.33075 5.44724C7.33196 4.96036 7.3395 3.87293 7.38968 3.76437C7.4844 3.55945 7.61851 3.44326 7.83846 3.37561C7.90392 3.35547 9.08794 3.35357 10.9804 3.35357L11.2532 3.35356C13.3194 3.35342 14.1478 3.35337 14.2981 3.43201C14.3977 3.4841 14.5349 3.62327 14.5804 3.71817L14.5833 3.72426C14.6042 3.76791 14.6191 3.79903 14.6297 3.83156C14.6562 3.91242 14.6562 4.00192 14.6563 4.31395L14.6563 4.33151ZM18.0638 6.97344C18.1919 7.00387 18.3425 7.05102 18.4284 7.08761C18.4845 7.1115 18.6518 7.19801 18.6888 7.22226C18.7103 7.23634 18.7367 7.25195 18.7474 7.25699C18.803 7.28301 18.9903 7.44168 19.1027 7.55793C19.3087 7.77104 19.4771 8.05314 19.5668 8.33518C19.6157 8.48883 19.6286 8.55384 19.6578 8.79253C19.6684 8.87897 19.6714 10.0694 19.6687 13.1142L19.6685 13.3723C19.6651 17.1612 19.665 17.3402 19.6265 17.5107C19.6246 17.5191 19.6226 17.5275 19.6205 17.5364C19.6196 17.5403 19.6186 17.5444 19.6176 17.5485C19.6099 17.5813 19.599 17.629 19.5934 17.6546C19.5878 17.6801 19.5705 17.7338 19.555 17.7739C19.5394 17.814 19.522 17.8617 19.5163 17.8799C19.5027 17.9237 19.4296 18.075 19.3978 18.1252C19.384 18.147 19.3686 18.1739 19.3637 18.1848C19.3395 18.2381 19.1556 18.468 19.0647 18.5587C18.8345 18.7883 18.5521 18.9609 18.2591 19.0512C18.077 19.1073 18.0429 19.1134 17.7643 19.1389C17.5192 19.1614 4.18633 19.1513 4.07292 19.1286C3.85992 19.0859 3.78997 19.0693 3.75021 19.0519C3.72669 19.0416 3.69906 19.0332 3.6888 19.0332C3.65422 19.0332 3.40751 18.9154 3.29288 18.8442C3.08505 18.715 2.88096 18.5254 2.73305 18.324C2.68484 18.2584 2.64134 18.1958 2.63637 18.1848C2.63139 18.1739 2.61576 18.147 2.60161 18.1252C2.58747 18.1033 2.57013 18.0721 2.56309 18.0558C2.55603 18.0395 2.53775 18.0007 2.52246 17.9696C2.48642 17.8963 2.41956 17.714 2.40694 17.6546C2.40152 17.629 2.39073 17.5843 2.38296 17.5551L2.37647 17.5305C2.33463 17.3662 2.33463 17.1912 2.33464 13.0872V13.028C2.33464 9.60791 2.3379 8.77211 2.35163 8.68647C2.4432 8.11477 2.70236 7.67638 3.15721 7.32372C3.20143 7.28944 3.2416 7.26139 3.24647 7.26139C3.25135 7.26139 3.27962 7.24482 3.30931 7.22458C3.35526 7.19324 3.47725 7.12973 3.57161 7.08802C3.62184 7.06583 3.71527 7.03384 3.76042 7.0234C3.78548 7.01759 3.81673 7.00828 3.82986 7.0027C3.84298 6.99713 3.90451 6.98215 3.96658 6.96943C4.07323 6.94756 4.46121 6.94643 11.026 6.94904C17.4004 6.95157 17.9802 6.95357 18.0638 6.97344Z" stroke="currentColor" stroke-width="0.2"/>
</svg>
