<svg width="100%" height="100%" viewBox="0 0 22 22" fill="none" xmlns="http://www.w3.org/2000/svg">
<path fill-rule="evenodd" clip-rule="evenodd" d="M7.28833 2.13551C7.48985 2.05749 7.50314 2.05428 7.81242 2.00853C7.85181 2.00271 9.85669 1.99898 11.0455 2.00025L11.2716 2.00048C13.3599 2.00263 14.2613 2.00356 14.4674 2.05716C14.5702 2.08391 14.7713 2.15208 14.8124 2.17411C14.8303 2.18372 14.8713 2.20452 14.9036 2.22035C15.0466 2.29063 15.2224 2.41539 15.3593 2.54397C15.6174 2.78631 15.823 3.12286 15.9146 3.453C15.9868 3.71324 16.0006 4.88323 15.9947 5.44061L15.9932 5.58529C17.9269 5.58782 18.1063 5.59342 18.1745 5.60784C18.4932 5.67525 18.5625 5.69304 18.7148 5.7466C18.765 5.76422 18.8177 5.7817 18.832 5.78546C18.8464 5.78921 18.8757 5.80038 18.8971 5.81027C18.9186 5.82017 18.9714 5.84408 19.0143 5.86336C19.8071 6.21942 20.4311 6.8792 20.7629 7.71212C20.7989 7.80245 20.8128 7.84371 20.8639 8.01039C20.9094 8.1585 20.9557 8.38205 20.9677 8.51083C20.9723 8.56003 20.9814 8.60031 20.988 8.60031C20.9953 8.60031 21 10.3429 21 13.0346C21 15.7264 20.9953 17.469 20.988 17.469C20.9814 17.469 20.9723 17.5092 20.9677 17.5584C20.9467 17.7839 20.8454 18.1691 20.7454 18.4036C20.6545 18.6166 20.5474 18.8196 20.4353 18.9912C20.2448 19.2828 20.0149 19.5327 19.6836 19.8082C19.491 19.9684 19.1315 20.1682 18.819 20.2888C18.5736 20.3835 18.3455 20.4386 18.0247 20.4809C17.8299 20.5066 4.1847 20.5062 3.97526 20.4805C3.74836 20.4527 3.54703 20.4109 3.41493 20.3642C3.38604 20.354 3.35255 20.3456 3.34049 20.3456C3.32845 20.3456 3.29935 20.3373 3.27583 20.3271C3.25232 20.3169 3.20964 20.2996 3.18099 20.2886C3.15234 20.2776 3.0791 20.2476 3.01823 20.2218C2.38892 19.9558 1.7862 19.4113 1.44582 18.8013C1.39454 18.7093 1.25034 18.4061 1.22833 18.3439C1.12418 18.0496 1.05056 17.7546 1.0323 17.5584C1.02772 17.5092 1.01858 17.469 1.01198 17.469C1.00471 17.469 1 15.7264 1 13.0346C1 10.3429 1.00471 8.60031 1.01198 8.60031C1.01858 8.60031 1.02772 8.56003 1.0323 8.51083C1.05328 8.28552 1.15383 7.90313 1.25452 7.66572C1.38492 7.35826 1.56017 7.06204 1.76134 6.80902C1.94129 6.58272 2.27337 6.27745 2.49125 6.13804C2.69318 6.00884 2.9418 5.87703 3.10938 5.81034L3.19845 5.77494C3.25156 5.75391 3.37335 5.71526 3.46094 5.69166C3.50749 5.67912 3.57539 5.6603 3.61182 5.64984C3.64826 5.63938 3.69513 5.63079 3.71599 5.63075C3.73685 5.63071 3.77734 5.62402 3.80599 5.61588C3.83464 5.60772 3.91374 5.59665 3.98177 5.59127C4.01481 5.58866 4.78562 5.58643 6.00948 5.58493L6.00983 5.29607C6.01055 4.64785 6.0116 3.71206 6.08673 3.44637C6.15938 3.18937 6.31901 2.89539 6.49338 2.69737C6.53513 2.64998 6.60142 2.5809 6.64071 2.54386C6.71573 2.47315 6.91928 2.31293 6.93411 2.31293C6.93886 2.31293 6.9688 2.29504 7.00064 2.27316C7.03247 2.25129 7.06127 2.23339 7.06465 2.23339C7.06802 2.23339 7.10728 2.21619 7.15189 2.19516C7.19649 2.17414 7.2579 2.14729 7.28833 2.13551ZM14.6563 4.33151C14.6564 5.02604 14.6572 5.38637 14.6608 5.58412C13.738 5.58358 12.5684 5.58327 11.0846 5.58296C9.71334 5.58267 8.42401 5.58296 7.32999 5.5837C7.33038 5.54236 7.33063 5.49698 7.33075 5.44724C7.33196 4.96036 7.3395 3.87293 7.38968 3.76437C7.4844 3.55945 7.61851 3.44326 7.83846 3.37561C7.90392 3.35547 9.08794 3.35357 10.9804 3.35357L11.2532 3.35356C13.3194 3.35342 14.1478 3.35337 14.2981 3.43201C14.3977 3.4841 14.5349 3.62327 14.5804 3.71817L14.5833 3.72426C14.6042 3.76791 14.6191 3.79903 14.6297 3.83156C14.6562 3.91242 14.6562 4.00192 14.6563 4.31395L14.6563 4.33151Z" fill="currentColor" stroke="currentColor" stroke-width="0.2"/>
<path d="M4.40471 10.0121C4.49461 9.8253 4.65533 9.69017 4.85415 9.63424C4.96617 9.60275 5.07621 9.60224 5.17971 9.63275C5.26832 9.65887 5.29104 9.66785 5.42386 9.72926C5.46863 9.74995 5.50817 9.76689 5.51171 9.76689C5.51525 9.76689 5.55625 9.78479 5.60281 9.80666L5.77216 9.8862C5.81873 9.90807 5.85973 9.92597 5.86327 9.92597C5.86681 9.92597 5.90781 9.94387 5.95438 9.96574L6.12373 10.0453C6.17029 10.0672 6.21143 10.085 6.21514 10.085C6.21886 10.085 6.25839 10.1025 6.303 10.1238C6.4475 10.1928 6.55981 10.2441 6.56639 10.2441C6.56994 10.2441 6.61094 10.262 6.6575 10.2839L6.82685 10.3634C6.87341 10.3853 6.91442 10.4032 6.91796 10.4032C6.9215 10.4032 6.9625 10.4211 7.00906 10.443L7.17841 10.5225C7.22498 10.5444 7.26598 10.5623 7.26952 10.5623C7.27306 10.5623 7.31552 10.5809 7.36388 10.6036L7.53323 10.6832C7.57801 10.7042 7.61754 10.7214 7.62108 10.7214C7.62462 10.7214 7.66563 10.7393 7.71219 10.7611L7.88154 10.8407C7.9281 10.8625 7.9691 10.8804 7.97264 10.8804C7.97619 10.8804 8.01572 10.8976 8.0605 10.9186L8.22985 10.9982C8.2782 11.0209 8.32067 11.0395 8.32421 11.0395C8.32775 11.0395 8.36875 11.0574 8.41531 11.0793L8.58466 11.1588C8.63123 11.1807 8.67223 11.1986 8.67577 11.1986C8.67931 11.1986 8.72177 11.2172 8.77013 11.2399L8.93948 11.3195C8.98426 11.3405 9.02379 11.3577 9.02733 11.3577C9.03087 11.3577 9.07041 11.3749 9.11518 11.3959L9.28453 11.4754C9.33289 11.4982 9.37535 11.5168 9.37889 11.5168C9.3852 11.5168 9.50516 11.5713 9.61809 11.6255C9.64938 11.6405 9.70504 11.6645 9.74179 11.6788C9.91093 11.7445 10.0191 11.7846 10.043 11.7903C10.0573 11.7938 10.0983 11.8049 10.1341 11.815C10.5185 11.9236 10.9061 11.9614 11.2857 11.9275C11.4613 11.9118 11.6558 11.881 11.7498 11.854C11.7863 11.8435 11.8271 11.8349 11.8405 11.8349C11.854 11.8349 11.8886 11.8265 11.9175 11.8163C11.9464 11.806 12.0081 11.7854 12.0547 11.7705C12.1803 11.7302 12.5261 11.5881 12.6396 11.5301C12.6925 11.5031 12.8361 11.4372 12.8421 11.4372C12.849 11.4372 12.9593 11.3869 13.1058 11.3169C13.1504 11.2956 13.19 11.2781 13.1937 11.2781C13.2006 11.2781 13.3109 11.2278 13.4574 11.1578C13.502 11.1365 13.5415 11.1191 13.5452 11.1191C13.5521 11.1191 13.6624 11.0687 13.809 10.9987C13.8536 10.9774 13.893 10.96 13.8966 10.96C13.9002 10.96 13.9516 10.9369 14.0108 10.9086C14.07 10.8804 14.1765 10.8322 14.2474 10.8014C14.3183 10.7707 14.3857 10.7408 14.3971 10.7349C14.4491 10.7083 14.5939 10.6418 14.5999 10.6418C14.6036 10.6418 14.6448 10.6239 14.6914 10.6021L14.8607 10.5225C14.9073 10.5006 14.9483 10.4827 14.9518 10.4827C14.9554 10.4827 14.9964 10.4648 15.0429 10.443L15.2123 10.3634C15.2588 10.3416 15.2998 10.3237 15.3034 10.3237C15.3069 10.3237 15.3479 10.3058 15.3945 10.2839L15.5638 10.2044C15.6104 10.1825 15.6514 10.1646 15.6549 10.1646C15.6615 10.1646 15.7738 10.1133 15.9183 10.0443C15.9629 10.0229 16.0025 10.0055 16.0062 10.0055C16.0099 10.0055 16.051 9.98761 16.0976 9.96574L16.267 9.8862C16.3135 9.86433 16.3545 9.84643 16.3581 9.84643C16.3616 9.84643 16.4041 9.82783 16.4524 9.8051C16.8048 9.63945 16.8968 9.60761 17.0216 9.60804C17.091 9.60827 17.2389 9.64388 17.3151 9.67871C17.3869 9.7115 17.5047 9.80846 17.5561 9.87704C17.7751 10.169 17.7447 10.5618 17.4836 10.8147C17.4298 10.8668 17.2965 10.9433 17.1263 11.0197C17.1048 11.0293 17.0477 11.0556 16.9993 11.0781C16.9509 11.1006 16.9038 11.1191 16.8945 11.1191C16.8852 11.1191 16.872 11.1244 16.8652 11.131C16.8584 11.1376 16.7948 11.1679 16.7239 11.1984C16.653 11.2289 16.5856 11.2585 16.5742 11.2641C16.5627 11.2697 16.5313 11.2839 16.5043 11.2957C16.4568 11.3166 16.4173 11.3341 16.3157 11.3795C16.2889 11.3915 16.2576 11.4059 16.2461 11.4115C16.2347 11.4171 16.1673 11.4466 16.0964 11.4772C16.0255 11.5077 15.9619 11.538 15.9551 11.5446C15.9483 11.5512 15.9351 11.5565 15.9258 11.5565C15.9165 11.5565 15.8694 11.5747 15.821 11.597C15.7225 11.6423 15.6711 11.6657 15.5996 11.6977C15.5727 11.7097 15.5416 11.724 15.5304 11.7294C15.5192 11.7348 15.4112 11.7823 15.2904 11.8349C15.1695 11.8875 15.0615 11.9352 15.0503 11.9409C15.0032 11.9649 14.8757 12.0223 14.7119 12.0932C14.6158 12.1349 14.5279 12.1735 14.5166 12.179C14.5053 12.1845 14.474 12.1986 14.4471 12.2104C14.3591 12.249 14.3011 12.2751 14.2804 12.2857C14.2692 12.2914 14.1612 12.3391 14.0404 12.3917C13.9195 12.4443 13.8115 12.4918 13.8003 12.4972C13.7891 12.5027 13.7565 12.5176 13.7279 12.5304C13.6992 12.5432 13.6666 12.5584 13.6554 12.5641C13.6442 12.5698 13.5362 12.6175 13.4154 12.6701C13.2945 12.7227 13.1865 12.7702 13.1753 12.7756C13.1641 12.781 13.1344 12.7948 13.1094 12.8062L12.9922 12.8597C12.9528 12.8777 12.8883 12.9056 12.8489 12.9216C12.8096 12.9376 12.766 12.9569 12.7522 12.9645C12.7383 12.972 12.712 12.983 12.6936 12.9889C12.6752 12.9947 12.6279 13.0122 12.5885 13.0277C12.5491 13.0431 12.4788 13.068 12.4323 13.083C12.3857 13.0979 12.3271 13.1177 12.3021 13.1271C12.2568 13.1438 12.1682 13.1679 12.0807 13.1871C12.0557 13.1926 12.0088 13.2034 11.9766 13.2112C11.5769 13.3071 11.1492 13.3421 10.7298 13.3132C10.4648 13.2949 10.3825 13.2848 10.1732 13.2448C10.0375 13.2189 9.82431 13.1655 9.70442 13.1274L9.58072 13.0883C9.54133 13.0758 9.48859 13.0579 9.46353 13.0483C9.37103 13.0132 9.29958 12.9844 9.2552 12.9644C9.23013 12.9532 9.19205 12.9366 9.17056 12.9277C9.12431 12.9083 9.07166 12.8847 8.95242 12.8299C8.90406 12.8076 8.86146 12.7894 8.85775 12.7894C8.85168 12.7894 8.7069 12.7229 8.65496 12.6963C8.64352 12.6904 8.57613 12.6606 8.50522 12.63C8.43431 12.5994 8.34699 12.5606 8.31119 12.5437C8.15548 12.4703 8.06978 12.4315 8.06379 12.4315C8.06025 12.4315 8.01779 12.4133 7.96943 12.391C7.85145 12.3367 7.77283 12.3011 7.65363 12.2479C7.62141 12.2335 7.55988 12.2058 7.51692 12.1863L7.39322 12.1301C7.36815 12.1187 7.3384 12.1049 7.32711 12.0994C7.31582 12.0939 7.22837 12.0554 7.1328 12.0139C7.03723 11.9723 6.94978 11.9336 6.93849 11.9279C6.9272 11.9221 6.89745 11.9081 6.87238 11.8967C6.84732 11.8854 6.78724 11.8579 6.73888 11.8356C6.69052 11.8134 6.64806 11.7951 6.64452 11.7951C6.64098 11.7951 6.60145 11.778 6.55667 11.7569L6.38732 11.6774C6.33896 11.6547 6.2965 11.6361 6.29296 11.6361C6.28942 11.6361 6.24695 11.6177 6.19859 11.5951C5.94628 11.4777 5.85685 11.4372 5.84994 11.4372C5.84392 11.4372 5.70027 11.3713 5.64742 11.3443C5.63613 11.3385 5.54869 11.2998 5.45311 11.2583C5.35754 11.2167 5.27009 11.1777 5.2588 11.1716C5.22328 11.1523 5.06272 11.0793 5.05598 11.0793C5.05244 11.0793 5.00998 11.0611 4.96162 11.0388L4.83462 10.9806C4.58287 10.8659 4.49465 10.7854 4.39766 10.5822C4.3537 10.4901 4.35337 10.488 4.35353 10.3038L4.3537 10.1182L4.40471 10.0121Z" fill="white"/>
</svg>
