<svg width="100%" height="100%" viewBox="0 0 14 14" fill="none" xmlns="http://www.w3.org/2000/svg">
<path fill-rule="evenodd" clip-rule="evenodd" d="M1.23958 0.050048C1.12929 0.0747117 0.957028 0.135621 0.856769 0.185398C0.637475 0.294361 0.293787 0.63639 0.186674 0.852291C-0.00451146 1.23758 9.21779e-06 1.12277 9.21779e-06 5.58891V9.73877L0.0933413 9.8528C0.199835 9.9829 0.396525 10.0381 0.530289 9.97548C0.578231 9.95299 1.1449 9.52752 1.78954 9.02994C2.43419 8.53235 3.01661 8.10164 3.0838 8.07278C3.18522 8.02922 3.72775 8.02026 6.27871 8.02008C8.07707 8.01997 9.44048 8.0049 9.56608 7.98372C10.233 7.87146 10.7561 7.33362 10.8653 6.64795C10.9116 6.35746 10.9116 1.66184 10.8653 1.37135C10.7561 0.68568 10.233 0.14784 9.56608 0.0355796C9.23511 -0.0201572 1.49365 -0.00666335 1.23958 0.050048ZM12.0583 5.42462C12.0452 6.63629 12.0336 6.87461 11.9776 7.08323C11.7024 8.10914 10.9727 8.85834 9.98006 9.13403C9.77611 9.1907 9.40712 9.19857 6.42571 9.20997L3.09893 9.22271L3.09955 9.84909C3.1005 10.7898 3.18508 11.102 3.54495 11.4932C3.75794 11.7248 3.95058 11.8491 4.22664 11.9332C4.40186 11.9865 4.78303 11.9935 7.53727 11.9935C9.78268 11.9935 10.6968 12.0056 10.8183 12.0371C10.9489 12.0709 11.2627 12.293 12.2142 13.0248C12.8892 13.5441 13.485 13.9802 13.5381 13.9939C13.5943 14.0084 13.687 13.9963 13.7601 13.9649C14.015 13.8554 13.9998 14.1336 13.9998 9.57955C13.9998 6.68337 13.9878 5.41671 13.9588 5.27653C13.8406 4.70372 13.3836 4.2161 12.8204 4.06194C12.7171 4.03368 12.5069 4.01032 12.3531 4.0101L12.0736 4.00965L12.0583 5.42462Z" fill="currentColor"/>
</svg>
