<svg width="100%" height="100%" viewBox="0 0 16 16" fill="none" xmlns="http://www.w3.org/2000/svg">
<path fill-rule="evenodd" clip-rule="evenodd" d="M5.02083 0.771848V1.5437H7.43411H9.84739V0.771848V0H7.43411H5.02083V0.771848ZM12.5273 1.94575C12.2572 2.24863 12.0362 2.51697 12.0362 2.54209C12.0362 2.60113 14.2613 4.38814 14.3524 4.40219C14.3904 4.4081 14.6416 4.1618 14.9107 3.85493L15.4 3.29696L15.1913 3.12284C14.7907 2.78855 13.1301 1.45794 13.0744 1.42664C13.0436 1.40929 12.7974 1.64292 12.5273 1.94575ZM6.62033 2.35121C4.24359 2.6073 2.10974 3.99753 1.01894 6.00067C-0.460904 8.71826 0.100548 11.9806 2.41326 14.1026C3.41465 15.0214 4.59924 15.613 6.0591 15.9233C6.59603 16.0375 8.36058 16.0207 8.92136 15.8962C10.3365 15.5819 11.4428 15.0256 12.4181 14.1378C14.1247 12.5843 14.9331 10.3809 14.5943 8.20623C14.1042 5.06034 11.5044 2.68747 8.17555 2.34786C7.52424 2.28142 7.26316 2.28196 6.62033 2.35121ZM8.79464 3.98683C10.5546 4.42168 11.9637 5.56534 12.6412 7.10883C12.9433 7.79726 13.0186 8.22109 13.0141 9.20895C13.0101 10.0623 12.9969 10.1807 12.8575 10.6196C12.2744 12.454 10.9006 13.7784 9.05561 14.2851C6.32838 15.034 3.51523 13.8404 2.32705 11.4301C1.76571 10.2914 1.66143 8.79241 2.05772 7.55879C2.4806 6.2426 3.5562 5.03452 4.85246 4.41987C5.43636 4.14301 5.92177 4.00131 6.76064 3.86281C7.10557 3.8059 8.37563 3.88335 8.79464 3.98683ZM6.64839 7.66525V9.95418H7.43411H8.21983V7.66525V5.37632H7.43411H6.64839V7.66525Z" fill="currentColor"/>
</svg>
