<svg width="100%" height="100%" viewBox="0 0 16 16" fill="none" xmlns="http://www.w3.org/2000/svg">
<path fill-rule="evenodd" clip-rule="evenodd" d="M9.50961 1.02323C9.28403 1.06923 8.98835 1.22449 8.82742 1.38151C8.75055 1.45649 8.09939 2.31774 7.38042 3.29538C6.66141 4.27302 5.9348 5.24196 5.76571 5.44855C5.59659 5.65518 5.15897 6.1199 4.79318 6.48131C4.4274 6.84272 4.10896 7.17431 4.08553 7.21815C4.05485 7.27565 4.04296 8.13303 4.04296 10.2883V13.2788L4.15116 13.4211C4.27757 13.5874 5.08371 14.356 5.30286 14.5191C5.48869 14.6573 5.83725 14.8294 6.11145 14.9183C6.30292 14.9803 6.51804 14.9862 9.00734 14.9971C10.8822 15.0053 11.7727 14.9964 11.9483 14.9677C12.3334 14.9048 12.6961 14.718 12.993 14.4298C13.1322 14.2947 13.2806 14.1184 13.3227 14.0381C13.3649 13.9578 13.9527 12.6846 14.629 11.2089C15.3873 9.55404 15.8873 8.41672 15.9336 8.24139C15.9978 7.99814 16.0069 7.86387 15.9962 7.31048C15.9839 6.67027 15.9826 6.6614 15.8637 6.41775C15.7271 6.13783 15.4559 5.85341 15.2086 5.73071C14.8532 5.55435 14.8068 5.55128 12.458 5.55084C11.2427 5.55059 10.2484 5.54281 10.2484 5.5335C10.2484 5.52423 10.4691 4.97919 10.7389 4.3223C11.3049 2.94401 11.3474 2.77849 11.2522 2.32505C11.1533 1.85419 10.9124 1.47263 10.5697 1.24377C10.2672 1.04167 9.84745 0.954383 9.50961 1.02323ZM0.969784 6.6599C0.592153 6.77953 0.299856 7.02405 0.104741 7.38353L0 7.5765V10.5152V13.454L0.109818 13.6645C0.240584 13.9151 0.551272 14.2119 0.799152 14.3231C0.947181 14.3894 1.04557 14.4032 1.37273 14.4032C1.73467 14.4032 1.78575 14.3942 1.98492 14.2963C2.25296 14.1646 2.51152 13.902 2.64466 13.6262L2.74545 13.4175V10.5145V7.61147L2.62322 7.37046C2.38775 6.90617 1.96424 6.64026 1.42914 6.62069C1.24519 6.61398 1.0667 6.62923 0.969784 6.6599Z" fill="currentColor"/>
</svg>
