<svg width="100%" height="100%" viewBox="0 0 16 16" fill="none" xmlns="http://www.w3.org/2000/svg">
    <path d="M13.6927 2.16265H12.2622V0.712096C12.2622 0.445193 12.0486 0.228577 11.7853 0.228577H3.20203C2.41332 0.228577 1.77148 0.879394 1.77148 1.67913V13.7671C1.77148 14.8338 2.62695 15.7012 3.67888 15.7012H13.6927C13.956 15.7012 14.1696 15.4846 14.1696 15.2177V2.64617C14.1696 2.37927 13.956 2.16265 13.6927 2.16265ZM11.3085 12.3166C11.3085 12.5835 11.0949 12.8001 10.8316 12.8001H5.10944C4.84621 12.8001 4.63259 12.5835 4.63259 12.3166V11.3495C4.63259 10.016 5.70264 8.93193 7.01684 8.93193H8.92424C10.2394 8.93193 11.3085 10.016 11.3085 11.3495V12.3166ZM6.06314 6.03081C6.06314 4.96417 6.9186 4.09673 7.97054 4.09673C9.02247 4.09673 9.87794 4.96417 9.87794 6.03081C9.87794 7.09745 9.02247 7.96489 7.97054 7.96489C6.9186 7.96489 6.06314 7.09745 6.06314 6.03081ZM11.3085 2.16265H3.20203C2.93881 2.16265 2.72518 1.94604 2.72518 1.67913C2.72518 1.41223 2.93881 1.19562 3.20203 1.19562H11.3085V2.16265Z" fill="currentColor"/>
</svg>
