<svg width="100%" height="100%" viewBox="0 0 20 20" fill="none" xmlns="http://www.w3.org/2000/svg">
<path fill-rule="evenodd" clip-rule="evenodd" d="M5.49142 5.27174C5.49142 6.62632 6.10106 7.84061 7.059 8.65544C6.16037 9.02779 5.33535 9.57674 4.62759 10.2845C3.37831 11.5338 2.62352 13.0799 2.46246 15.0298C2.42575 15.4741 2.79139 15.8365 3.23726 15.8365V15.8365C3.6878 15.8365 4.04599 15.4658 4.08769 15.0172C4.39821 11.6767 6.93081 9.7135 9.93318 9.7135C12.9112 9.7135 15.4701 11.9532 15.7811 15.0111C15.8269 15.4607 16.1837 15.8365 16.6357 15.8365V15.8365C17.0779 15.8365 17.4402 15.4771 17.3958 15.0371C17.2189 13.2818 16.4683 11.514 15.2388 10.2845C14.531 9.57673 13.706 9.02778 12.8074 8.65544C13.7653 7.84061 14.3749 6.62632 14.3749 5.27174C14.3749 2.82235 12.3826 0.829987 9.93318 0.829987C7.48378 0.829987 5.49142 2.82235 5.49142 5.27174ZM5.66142 5.27202C5.66147 6.10914 5.90363 6.89066 6.3214 7.55037C6.56973 7.9425 6.88011 8.2916 7.23857 8.58376C7.26149 8.60244 7.28461 8.62089 7.30792 8.6391C7.337 8.66182 7.36639 8.68418 7.39606 8.70616C7.33348 8.72918 7.27123 8.75307 7.20933 8.7778C6.29829 9.14181 5.46216 9.69034 4.7478 10.4047C3.38492 11.7676 2.62442 13.5728 2.60051 15.4965L2.60033 15.5129C2.60006 15.5386 2.59993 15.5643 2.59993 15.5901C2.59993 13.6315 3.36283 11.7897 4.7478 10.4047C5.5107 9.64181 6.41248 9.06803 7.39606 8.70616C6.34469 7.92749 5.66142 6.67835 5.66142 5.27202ZM15.9799 15.5901C15.9799 12.3438 13.4082 9.68665 10.1951 9.5491C12.308 9.63961 14.1435 10.8196 15.1528 12.5402C15.6783 13.4361 15.9799 14.4786 15.9799 15.5901ZM9.95921 9.54356C9.95059 9.54352 9.94197 9.5435 9.93334 9.5435ZM9.93318 8.08684C8.38115 8.08684 7.11808 6.82379 7.11808 5.27174C7.11808 3.7197 8.38115 2.45665 9.93318 2.45665C11.4852 2.45665 12.7483 3.7197 12.7483 5.27174C12.7483 6.82379 11.4852 8.08684 9.93318 8.08684ZM4.21903 11.1152C3.23442 12.3675 2.69342 13.8986 2.67688 15.5137C2.67665 15.5358 2.67666 15.5578 2.67666 15.5799L2.67666 15.5901C2.67672 13.947 3.219 12.3872 4.21903 11.1152ZM7.47094 8.76026C6.92522 8.95661 6.40447 9.21866 5.91859 9.5425C6.43067 9.20119 6.98145 8.92852 7.55946 8.72906C7.52988 8.73927 7.50038 8.74967 7.47094 8.76026ZM14.6196 10.0485C13.9541 9.48405 13.2022 9.05042 12.3958 8.76026C12.3664 8.7497 12.337 8.73933 12.3075 8.72915C13.1475 9.01901 13.9299 9.46345 14.6196 10.0485Z" fill="currentColor"/>
<path fill-rule="evenodd" clip-rule="evenodd" d="M6.32559 16.7533H9.15198V19.5796H10.7142V16.7533H13.5405V15.1911H10.7142V12.3647H9.15198V15.1911H6.32559V16.7533Z" fill="currentColor"/>
</svg>
