<svg width="100%" height="100%" viewBox="0 0 20 20" fill="none" xmlns="http://www.w3.org/2000/svg">
<path d="M16.6667 5.33333H3.33341C2.41294 5.33333 1.66675 6.07952 1.66675 6.99999V16.3333C1.66675 17.2538 2.41294 18 3.33341 18H16.6667C17.5872 18 18.3334 17.2538 18.3334 16.3333V6.99999C18.3334 6.07952 17.5872 5.33333 16.6667 5.33333Z" stroke="currentColor" stroke-width="1.6" stroke-linecap="round" stroke-linejoin="round"/>
<path d="M13.3334 5V3.66667C13.3334 3.22464 13.1578 2.80072 12.8453 2.48816C12.5327 2.17559 12.1088 2 11.6667 2H8.33341C7.89139 2 7.46746 2.17559 7.1549 2.48816C6.84234 2.80072 6.66675 3.22464 6.66675 3.66667V5" stroke="currentColor" stroke-width="1.6" stroke-linecap="round" stroke-linejoin="round"/>
<path fill-rule="evenodd" clip-rule="evenodd" d="M10.7999 8.47999C10.7999 8.31431 10.6655 8.17999 10.4999 8.17999H9.49985C9.33417 8.17999 9.19985 8.31431 9.19985 8.47999V10.93H6.74995C6.58427 10.93 6.44995 11.0643 6.44995 11.23V12.23C6.44995 12.3957 6.58427 12.53 6.74995 12.53H9.19985V14.98C9.19985 15.1457 9.33417 15.28 9.49985 15.28H10.4999C10.6655 15.28 10.7999 15.1457 10.7999 14.98V12.53H13.25C13.4156 12.53 13.55 12.3957 13.55 12.23V11.23C13.55 11.0643 13.4156 10.93 13.25 10.93H10.7999V8.47999Z" fill="currentColor"/>
</svg>
