<svg width="100%" height="100%" viewBox="0 0 24 21" fill="none" xmlns="http://www.w3.org/2000/svg">
<path fill-rule="evenodd" clip-rule="evenodd" d="M12.7999 13.3C12.7999 13.1343 12.6655 13 12.4999 13H11.4999C11.3342 13 11.1999 13.1343 11.1999 13.3V15.75H8.74995C8.58427 15.75 8.44995 15.8843 8.44995 16.05V17.05C8.44995 17.2157 8.58427 17.35 8.74995 17.35H11.1999V19.8C11.1999 19.9657 11.3342 20.1 11.4999 20.1H12.4999C12.6655 20.1 12.7999 19.9657 12.7999 19.8V17.35H15.25C15.4156 17.35 15.55 17.2157 15.55 17.05V16.05C15.55 15.8843 15.4156 15.75 15.25 15.75H12.7999V13.3Z" fill="currentColor"/>
<path fill-rule="evenodd" clip-rule="evenodd" d="M9.10687 1.01895C8.63698 1.07545 8.20361 1.2701 7.74885 1.62894C6.53719 2.58493 5.42924 4.88154 4.62806 8.9779L4.44815 9.70001L2.93058 9.71214C1.47508 9.72376 1.40819 9.72783 1.29432 9.81173C1.04012 9.99896 0.998005 10.1008 1.00007 10.523C1.00743 12.03 2.10518 13.4715 3.64383 13.9946C3.65465 13.9982 3.66522 14.0018 3.67559 14.0054C3.71828 14.02 3.7577 14.0334 3.79744 14.0458C4.13155 14.1503 4.48839 14.1821 7 14.1928V12.9213C4.55125 12.9097 4.23497 12.8748 3.95651 12.7533C3.92545 12.7397 3.89485 12.7251 3.86182 12.7093C3.84173 12.6997 3.82073 12.6896 3.79818 12.6791C3.12361 12.3652 2.57542 11.7438 2.3734 11.064L2.34294 10.9615L6.93675 10.9897C9.46333 11.0053 13.8032 11.018 16.581 11.018H21.6315L21.6027 11.1134C21.5869 11.1659 21.5053 11.352 21.4214 11.527C21.2182 11.9509 20.7434 12.4273 20.3099 12.6424C20.2682 12.663 20.2319 12.6823 20.1982 12.7002C20.1615 12.7196 20.1278 12.7375 20.0934 12.7539C19.8097 12.889 19.4781 12.9236 17 12.9302V14.1987C19.5984 14.1941 19.7353 14.1758 19.9784 14.1171C21.6762 13.7066 22.8724 12.3218 22.989 10.6313C23.0118 10.3013 23.0046 10.2488 22.9143 10.0905C22.8485 9.97508 22.7536 9.88617 22.6366 9.83031C22.4688 9.75023 22.371 9.74548 20.8837 9.74548C19.4204 9.74548 19.3069 9.74022 19.2869 9.67125C19.275 9.63044 19.2335 9.43477 19.1946 9.23648C18.8695 7.57939 18.2825 4.87182 17.6891 3.66944C16.7821 1.83157 15.8062 1.00508 14.5521 1.01263C13.6963 1.01781 13.3217 1.19668 12.7849 1.85655C12.4524 2.26528 12.2833 2.3756 11.9895 2.3756C11.6956 2.3756 11.5266 2.26532 11.1941 1.85651C11.0282 1.65257 10.8143 1.42959 10.7187 1.361C10.4753 1.18628 10.1336 1.06243 9.82335 1.03643C9.6779 1.02425 9.51052 1.00894 9.45137 1.00237C9.39221 0.995834 9.23722 1.0033 9.10687 1.01895ZM9.8908 2.35215C9.93141 2.3695 10.0981 2.55036 10.2613 2.75405C10.5953 3.17096 10.951 3.43475 11.3389 3.55318C11.7037 3.66456 12.4071 3.65078 12.7305 3.52594C13.0929 3.38597 13.4408 3.11268 13.7296 2.74081C13.8702 2.55982 14.0395 2.38405 14.1058 2.35024C14.2925 2.25506 14.7804 2.26587 15.0204 2.37051C15.4193 2.54451 15.9595 3.15879 16.3679 3.90273C16.9481 4.95971 17.556 7.69684 17.9491 9.61382L17.9787 9.75786L11.907 9.73627C8.5675 9.7244 5.82527 9.70484 5.81305 9.69279C5.75463 9.63523 6.32588 6.76174 6.65114 5.88796C7.20428 4.4021 7.7467 3.42347 8.35379 2.81619C8.67557 2.49429 8.91974 2.34596 9.20766 2.29752C9.39097 2.26664 9.75977 2.29616 9.8908 2.35215Z" fill="currentColor"/>
<path d="M7.74885 1.62894L7.79531 1.68782L7.79531 1.68782L7.74885 1.62894ZM9.10687 1.01895L9.09793 0.944486L9.09792 0.944487L9.10687 1.01895ZM4.62806 8.9779L4.70093 8.99606L4.70166 8.9923L4.62806 8.9779ZM4.44815 9.70001L4.44875 9.775L4.50688 9.77454L4.52093 9.71814L4.44815 9.70001ZM2.93058 9.71214L2.93118 9.78713H2.93118L2.93058 9.71214ZM1.29432 9.81173L1.3388 9.87212L1.33881 9.87211L1.29432 9.81173ZM1.00007 10.523L1.07507 10.5226L1.07507 10.5226L1.00007 10.523ZM3.64383 13.9946L3.61969 14.0656L3.6197 14.0656L3.64383 13.9946ZM3.67559 14.0054L3.65136 14.0764H3.65136L3.67559 14.0054ZM3.79744 14.0458L3.77505 14.1174H3.77505L3.79744 14.0458ZM7 14.1928L6.99968 14.2678L7.075 14.2681V14.1928H7ZM7 12.9213H7.075V12.8467L7.00035 12.8463L7 12.9213ZM3.95651 12.7533L3.92651 12.822H3.92651L3.95651 12.7533ZM3.86182 12.7093L3.89419 12.6416H3.89418L3.86182 12.7093ZM3.79818 12.6791L3.82983 12.6111L3.82983 12.6111L3.79818 12.6791ZM2.3734 11.064L2.44529 11.0426L2.44529 11.0426L2.3734 11.064ZM2.34294 10.9615L2.34341 10.8865L2.24223 10.8859L2.27105 10.9828L2.34294 10.9615ZM6.93675 10.9897L6.93629 11.0647H6.93629L6.93675 10.9897ZM21.6315 11.018L21.7033 11.0396L21.7324 10.943H21.6315V11.018ZM21.6027 11.1134L21.5309 11.0918L21.5309 11.0918L21.6027 11.1134ZM21.4214 11.527L21.4891 11.5594L21.4214 11.527ZM20.3099 12.6424L20.3432 12.7096L20.3432 12.7095L20.3099 12.6424ZM20.1982 12.7002L20.163 12.6339L20.1982 12.7002ZM20.0934 12.7539L20.0611 12.6862L20.0611 12.6862L20.0934 12.7539ZM17 12.9302L16.9998 12.8552L16.925 12.8554V12.9302H17ZM17 14.1987H16.925V14.2738L17.0001 14.2737L17 14.1987ZM19.9784 14.1171L19.996 14.19L19.996 14.19L19.9784 14.1171ZM22.989 10.6313L22.9142 10.6261V10.6261L22.989 10.6313ZM22.9143 10.0905L22.8491 10.1276L22.8491 10.1276L22.9143 10.0905ZM22.6366 9.83031L22.6689 9.76263L22.6689 9.76262L22.6366 9.83031ZM19.2869 9.67125L19.3589 9.65031L19.3589 9.65029L19.2869 9.67125ZM19.1946 9.23648L19.2682 9.22204L19.2682 9.22204L19.1946 9.23648ZM17.6891 3.66944L17.7564 3.63625V3.63625L17.6891 3.66944ZM14.5521 1.01263L14.5517 0.937632L14.5517 0.937632L14.5521 1.01263ZM12.7849 1.85655L12.8431 1.90388L12.8431 1.90388L12.7849 1.85655ZM11.1941 1.85651L11.1359 1.90383L11.1359 1.90384L11.1941 1.85651ZM10.7187 1.361L10.7625 1.30007L10.7625 1.30006L10.7187 1.361ZM9.82335 1.03643L9.82961 0.961689L9.8296 0.961688L9.82335 1.03643ZM9.45137 1.00237L9.45965 0.927825L9.4596 0.927819L9.45137 1.00237ZM10.2613 2.75405L10.2027 2.80094L10.2027 2.80094L10.2613 2.75405ZM9.8908 2.35215L9.86133 2.42112L9.86134 2.42112L9.8908 2.35215ZM11.3389 3.55318L11.3608 3.48144L11.3608 3.48144L11.3389 3.55318ZM12.7305 3.52594L12.7575 3.59591L12.7575 3.59591L12.7305 3.52594ZM13.7296 2.74081L13.6704 2.6948L13.6704 2.69481L13.7296 2.74081ZM14.1058 2.35024L14.0718 2.28342L14.0718 2.28343L14.1058 2.35024ZM15.0204 2.37051L14.9904 2.43926L14.9904 2.43926L15.0204 2.37051ZM16.3679 3.90273L16.4337 3.86664L16.4337 3.86664L16.3679 3.90273ZM17.9491 9.61382L17.8757 9.62888L17.8757 9.62889L17.9491 9.61382ZM17.9787 9.75786L17.9784 9.83286L18.0707 9.83319L18.0521 9.74279L17.9787 9.75786ZM11.907 9.73627L11.9067 9.81127L11.907 9.73627ZM5.81305 9.69279L5.86571 9.63939L5.86569 9.63937L5.81305 9.69279ZM6.65114 5.88796L6.58086 5.86179L6.58086 5.86179L6.65114 5.88796ZM8.35379 2.81619L8.40683 2.86921L8.40683 2.86921L8.35379 2.81619ZM9.20766 2.29752L9.22011 2.37148L9.22012 2.37147L9.20766 2.29752ZM7.79531 1.68782C8.24166 1.33561 8.6624 1.14793 9.11582 1.09341L9.09792 0.944487C8.61156 1.00297 8.16555 1.20459 7.70239 1.57007L7.79531 1.68782ZM4.70166 8.9923C5.1016 6.94748 5.57753 5.35495 6.10321 4.1559C6.62924 2.95606 7.2029 2.15523 7.79531 1.68782L7.7024 1.57006C7.08315 2.05865 6.497 2.88411 5.96584 4.09567C5.43433 5.30801 4.9557 6.91196 4.55445 8.96351L4.70166 8.9923ZM4.52093 9.71814L4.70083 8.99604L4.55528 8.95977L4.37538 9.68188L4.52093 9.71814ZM2.93118 9.78713L4.44875 9.775L4.44755 9.62501L2.92998 9.63714L2.93118 9.78713ZM1.33881 9.87211C1.36266 9.85454 1.37987 9.84388 1.4132 9.83473C1.45037 9.82453 1.50844 9.81611 1.6139 9.80969C1.82427 9.79689 2.20221 9.79295 2.93118 9.78713L2.92998 9.63714C2.20345 9.64294 1.8202 9.64686 1.60478 9.65997C1.49735 9.66651 1.42637 9.67557 1.37349 9.69009C1.31677 9.70566 1.28291 9.72697 1.24983 9.75135L1.33881 9.87211ZM1.07507 10.5226C1.07403 10.3106 1.08484 10.1939 1.1204 10.1079C1.1543 10.026 1.2143 9.96382 1.3388 9.87212L1.24984 9.75134C1.12014 9.84687 1.03198 9.92925 0.981793 10.0506C0.933264 10.1679 0.924043 10.3132 0.925071 10.5233L1.07507 10.5226ZM3.66797 13.9236C2.15642 13.4097 1.08225 11.9945 1.07507 10.5226L0.925071 10.5233C0.932599 12.0656 2.05394 13.5333 3.61969 14.0656L3.66797 13.9236ZM3.69983 13.9344C3.68946 13.9309 3.67884 13.9272 3.66797 13.9236L3.6197 14.0656C3.63046 14.0692 3.64098 14.0728 3.65136 14.0764L3.69983 13.9344ZM3.81983 13.9743C3.78117 13.9622 3.74268 13.949 3.69983 13.9344L3.65136 14.0764C3.69388 14.0909 3.73423 14.1047 3.77505 14.1174L3.81983 13.9743ZM7.00032 14.1178C5.7442 14.1125 5.02883 14.1019 4.58592 14.0796C4.14411 14.0574 3.97839 14.0239 3.81983 13.9743L3.77505 14.1174C3.9506 14.1723 4.13035 14.2069 4.57839 14.2294C5.02533 14.2519 5.74418 14.2625 6.99968 14.2678L7.00032 14.1178ZM7.075 14.1928V12.9213H6.925V14.1928H7.075ZM3.92651 12.822C4.07756 12.888 4.23643 12.9278 4.65988 12.9534C5.08231 12.9789 5.77572 12.9905 6.99965 12.9963L7.00035 12.8463C5.77553 12.8405 5.08643 12.8289 4.66892 12.8037C4.25242 12.7785 4.11392 12.7402 3.98651 12.6846L3.92651 12.822ZM3.82945 12.7769C3.86226 12.7926 3.89404 12.8079 3.92651 12.822L3.98651 12.6846C3.95685 12.6716 3.92744 12.6575 3.89419 12.6416L3.82945 12.7769ZM3.76654 12.7471C3.78867 12.7574 3.80932 12.7673 3.82945 12.7769L3.89418 12.6416C3.87413 12.632 3.85279 12.6218 3.82983 12.6111L3.76654 12.7471ZM2.30151 11.0853C2.50998 11.7868 3.07357 12.4247 3.76654 12.7471L3.82983 12.6111C3.17364 12.3058 2.64086 11.7007 2.44529 11.0426L2.30151 11.0853ZM2.27105 10.9828L2.30151 11.0853L2.44529 11.0426L2.41484 10.9401L2.27105 10.9828ZM6.93721 10.9147L2.34341 10.8865L2.34248 11.0365L6.93629 11.0647L6.93721 10.9147ZM16.581 10.943C13.8034 10.943 9.46362 10.9303 6.93721 10.9147L6.93629 11.0647C9.46303 11.0803 13.8031 11.093 16.581 11.093V10.943ZM21.6315 10.943H16.581V11.093H21.6315V10.943ZM21.6745 11.1351L21.7033 11.0396L21.5597 10.9963L21.5309 11.0918L21.6745 11.1351ZM21.4891 11.5594C21.5722 11.3859 21.6567 11.1943 21.6745 11.1351L21.5309 11.0918C21.5171 11.1376 21.4384 11.3181 21.3538 11.4946L21.4891 11.5594ZM20.3432 12.7095C20.7913 12.4873 21.2783 11.9989 21.4891 11.5594L21.3538 11.4946C21.158 11.9029 20.6956 12.3673 20.2765 12.5752L20.3432 12.7095ZM20.2333 12.7664C20.2671 12.7485 20.3025 12.7297 20.3432 12.7096L20.2765 12.5752C20.2338 12.5964 20.1967 12.616 20.163 12.6339L20.2333 12.7664ZM20.1257 12.8216C20.1618 12.8044 20.1969 12.7857 20.2333 12.7664L20.163 12.6339C20.1261 12.6535 20.0938 12.6706 20.0611 12.6862L20.1257 12.8216ZM17.0002 13.0052C18.2387 13.0019 18.9435 12.9916 19.3742 12.9651C19.8059 12.9385 19.971 12.8953 20.1257 12.8216L20.0611 12.6862C19.9321 12.7476 19.7895 12.7892 19.365 12.8154C18.9395 12.8416 18.2394 12.8519 16.9998 12.8552L17.0002 13.0052ZM16.925 12.9302V14.1987H17.075V12.9302H16.925ZM19.9608 14.0442C19.7288 14.1002 19.6044 14.1191 16.9999 14.1237L17.0001 14.2737C19.5924 14.2691 19.7418 14.2514 19.996 14.19L19.9608 14.0442ZM22.9142 10.6261C22.7999 12.2826 21.6282 13.6411 19.9608 14.0442L19.996 14.19C21.7243 13.7722 22.9448 12.3609 23.0638 10.6365L22.9142 10.6261ZM22.8491 10.1276C22.8927 10.2041 22.9115 10.2468 22.9198 10.3068C22.9288 10.3718 22.9257 10.4593 22.9142 10.6261L23.0638 10.6365C23.0751 10.4733 23.0799 10.3695 23.0684 10.2863C23.0561 10.1979 23.0262 10.1353 22.9795 10.0534L22.8491 10.1276ZM22.6043 9.89799C22.7072 9.94709 22.7907 10.0252 22.8491 10.1276L22.9795 10.0534C22.9063 9.92499 22.8001 9.82525 22.6689 9.76263L22.6043 9.89799ZM20.8837 9.82048C21.6283 9.82048 22.0223 9.82169 22.2513 9.83277C22.4773 9.84371 22.5328 9.86385 22.6043 9.898L22.6689 9.76262C22.5727 9.71669 22.4953 9.69441 22.2586 9.68295C22.0249 9.67164 21.6263 9.67048 20.8837 9.67048V9.82048ZM19.2149 9.69218C19.2204 9.71125 19.231 9.73281 19.2525 9.75121C19.2719 9.76787 19.2953 9.77756 19.3188 9.78415C19.3644 9.79695 19.4342 9.8042 19.5406 9.80914C19.7566 9.81918 20.153 9.82048 20.8837 9.82048V9.67048C20.151 9.67048 19.7591 9.66914 19.5475 9.65931C19.4402 9.65432 19.3864 9.64732 19.3593 9.63973C19.3465 9.63613 19.3463 9.6341 19.35 9.63726C19.3557 9.64217 19.3584 9.64849 19.3589 9.65031L19.2149 9.69218ZM19.121 9.25091C19.1596 9.44759 19.2018 9.64735 19.2149 9.6922L19.3589 9.65029C19.3482 9.61353 19.3074 9.42196 19.2682 9.22204L19.121 9.25091ZM17.6219 3.70263C17.9147 4.29598 18.2082 5.26651 18.4698 6.30083C18.7309 7.3333 18.9586 8.42298 19.121 9.25092L19.2682 9.22204C19.1055 8.39288 18.8772 7.30024 18.6152 6.26406C18.3536 5.22973 18.0569 4.24528 17.7564 3.63625L17.6219 3.70263ZM14.5526 1.08763C15.7625 1.08035 16.7188 1.87286 17.6219 3.70263L17.7564 3.63625C16.8453 1.79028 15.8499 0.929816 14.5517 0.937632L14.5526 1.08763ZM12.8431 1.90388C13.1086 1.57741 13.3281 1.37761 13.5812 1.25676C13.8343 1.13588 14.129 1.09019 14.5526 1.08763L14.5517 0.937632C14.1194 0.940246 13.7989 0.98658 13.5165 1.1214C13.2342 1.25624 12.9979 1.47582 12.7267 1.80922L12.8431 1.90388ZM11.9895 2.4506C12.148 2.4506 12.2787 2.42026 12.4137 2.33216C12.5447 2.24667 12.6762 2.10898 12.8431 1.90388L12.7267 1.80922C12.561 2.01285 12.4418 2.13468 12.3317 2.20654C12.2256 2.27579 12.1248 2.3006 11.9895 2.3006V2.4506ZM11.1359 1.90384C11.3027 2.10897 11.4343 2.24668 11.5653 2.33217C11.7003 2.42027 11.8309 2.4506 11.9895 2.4506V2.3006C11.8541 2.3006 11.7533 2.2758 11.6472 2.20655C11.5371 2.1347 11.4179 2.01286 11.2522 1.80918L11.1359 1.90384ZM10.675 1.42193C10.7166 1.4518 10.7898 1.52016 10.8759 1.60992C10.9607 1.69834 11.0543 1.80354 11.1359 1.90383L11.2522 1.80919C11.168 1.70554 11.0716 1.59728 10.9842 1.50608C10.898 1.41621 10.8164 1.33879 10.7625 1.30007L10.675 1.42193ZM9.81709 1.11116C10.1144 1.13608 10.443 1.25543 10.675 1.42193L10.7625 1.30006C10.5075 1.11713 10.1529 0.988776 9.82961 0.961689L9.81709 1.11116ZM9.44308 1.07691C9.50336 1.08361 9.67167 1.09899 9.81709 1.11117L9.8296 0.961688C9.68413 0.949512 9.51767 0.934274 9.45965 0.927825L9.44308 1.07691ZM9.11581 1.09342C9.2456 1.07783 9.39321 1.0714 9.44313 1.07691L9.4596 0.927819C9.39122 0.920268 9.22883 0.928767 9.09793 0.944486L9.11581 1.09342ZM10.3198 2.70715C10.2373 2.60419 10.1537 2.50671 10.0852 2.43239C10.051 2.39531 10.02 2.36333 9.99439 2.33911C9.98162 2.32705 9.96949 2.31623 9.95851 2.30746C9.94901 2.29986 9.9353 2.2896 9.92027 2.28318L9.86134 2.42112C9.85646 2.41903 9.85684 2.41822 9.86486 2.42463C9.87141 2.42986 9.88024 2.43762 9.89136 2.44813C9.91351 2.46907 9.94197 2.49829 9.97493 2.53405C10.0407 2.60543 10.1221 2.70022 10.2027 2.80094L10.3198 2.70715ZM11.3608 3.48144C10.9913 3.36862 10.6473 3.11597 10.3198 2.70715L10.2027 2.80094C10.5432 3.22595 10.9108 3.50087 11.317 3.62491L11.3608 3.48144ZM12.7035 3.45598C12.5539 3.5137 12.3076 3.54809 12.0488 3.55316C11.7906 3.55821 11.5325 3.53386 11.3608 3.48144L11.317 3.62491C11.5102 3.68388 11.7861 3.70833 12.0517 3.70313C12.3167 3.69794 12.5837 3.66302 12.7575 3.59591L12.7035 3.45598ZM13.6704 2.69481C13.3881 3.05819 13.0508 3.32186 12.7035 3.45598L12.7575 3.59591C13.1351 3.45008 13.4934 3.16717 13.7888 2.78682L13.6704 2.69481ZM14.0718 2.28343C14.0463 2.2964 14.0174 2.31908 13.9894 2.34373C13.9599 2.36957 13.9266 2.40193 13.8916 2.4383C13.8215 2.51108 13.7422 2.60229 13.6704 2.6948L13.7888 2.78683C13.8576 2.69834 13.9333 2.61117 13.9996 2.54236C14.0328 2.50794 14.063 2.4787 14.0883 2.45643C14.1151 2.43295 14.1322 2.42098 14.1399 2.41705L14.0718 2.28343ZM15.0503 2.30177C14.9177 2.2439 14.7247 2.21445 14.5448 2.21046C14.4538 2.20844 14.3637 2.21287 14.2832 2.22428C14.2038 2.23553 14.129 2.25422 14.0718 2.28342L14.1399 2.41705C14.1759 2.39867 14.2321 2.38302 14.3043 2.37279C14.3753 2.36273 14.4571 2.35855 14.5415 2.36042C14.7122 2.36421 14.8831 2.39248 14.9904 2.43926L15.0503 2.30177ZM16.4337 3.86664C16.2271 3.49036 15.9869 3.14621 15.7469 2.87336C15.5084 2.60215 15.2649 2.39532 15.0503 2.30177L14.9904 2.43926C15.1748 2.5197 15.4009 2.70701 15.6343 2.97242C15.8663 3.2362 16.1004 3.57115 16.3022 3.93882L16.4337 3.86664ZM18.0226 9.59875C17.8259 8.6399 17.5754 7.47488 17.3013 6.41696C17.0278 5.3617 16.7289 4.40446 16.4337 3.86664L16.3022 3.93882C16.5872 4.45799 16.8822 5.39779 17.1561 6.45459C17.4292 7.50872 17.6791 8.67075 17.8757 9.62888L18.0226 9.59875ZM18.0521 9.74279L18.0226 9.59874L17.8757 9.62889L17.9052 9.77294L18.0521 9.74279ZM11.9067 9.81127L17.9784 9.83286L17.9789 9.68286L11.9072 9.66127L11.9067 9.81127ZM5.7604 9.7462C5.77277 9.7584 5.7862 9.76288 5.78784 9.76348C5.79218 9.76504 5.79579 9.7659 5.79757 9.76629C5.80133 9.76713 5.80457 9.76756 5.8062 9.76777C5.80985 9.76823 5.8137 9.76854 5.81696 9.76877C5.82382 9.76924 5.83301 9.76967 5.84401 9.77009C5.86623 9.77092 5.89845 9.77176 5.93989 9.77262C6.0229 9.77434 6.14433 9.77614 6.29987 9.77799C6.61104 9.78171 7.05946 9.78566 7.61176 9.78959C8.71639 9.79747 10.2369 9.80533 11.9067 9.81127L11.9072 9.66127C10.2376 9.65533 8.71723 9.64748 7.61283 9.6396C7.06061 9.63566 6.61247 9.63172 6.30166 9.62801C6.14623 9.62615 6.02533 9.62435 5.94299 9.62265C5.90176 9.6218 5.87055 9.62097 5.84962 9.62019C5.83905 9.61979 5.83175 9.61943 5.82731 9.61912C5.82491 9.61896 5.82442 9.61888 5.82503 9.61896C5.82515 9.61897 5.8272 9.61922 5.8301 9.61986C5.83146 9.62016 5.83472 9.62092 5.8388 9.6224C5.84019 9.6229 5.85343 9.62728 5.86571 9.63939L5.7604 9.7462ZM6.58086 5.86179C6.41596 6.30477 6.19081 7.24708 6.01483 8.08097C5.92662 8.49898 5.85034 8.8918 5.79972 9.18408C5.77444 9.33007 5.75541 9.45182 5.74452 9.53937C5.73911 9.5829 5.73552 9.6195 5.73433 9.64694C5.73375 9.6604 5.73364 9.67389 5.73468 9.6858C5.73519 9.69165 5.73615 9.6994 5.73836 9.70759C5.73995 9.71347 5.74497 9.731 5.76042 9.74622L5.86569 9.63937C5.87931 9.65279 5.88282 9.66715 5.88318 9.66852C5.88418 9.67219 5.88423 9.6741 5.88411 9.67279C5.8839 9.6704 5.88372 9.66438 5.8842 9.65341C5.88512 9.63202 5.88813 9.60013 5.89338 9.55787C5.90382 9.47385 5.92238 9.35483 5.94752 9.20968C5.99774 8.91968 6.07365 8.52873 6.1616 8.11195C6.33796 7.27626 6.56107 6.34492 6.72143 5.91412L6.58086 5.86179ZM8.30074 2.76316C7.68207 3.38204 7.1351 4.37297 6.58086 5.86179L6.72143 5.91412C7.27346 4.43123 7.81134 3.46489 8.40683 2.86921L8.30074 2.76316ZM9.19522 2.22356C8.88549 2.27566 8.62781 2.43597 8.30074 2.76316L8.40683 2.86921C8.72332 2.5526 8.95399 2.41625 9.22011 2.37148L9.19522 2.22356ZM9.92027 2.28318C9.84262 2.25 9.70696 2.22807 9.57481 2.21749C9.44083 2.20678 9.29574 2.20662 9.19521 2.22356L9.22012 2.37147C9.30289 2.35753 9.43385 2.3567 9.56285 2.36702C9.69369 2.37748 9.80795 2.39831 9.86133 2.42112L9.92027 2.28318Z" fill="currentColor"/>
</svg>
