<svg xmlns="http://www.w3.org/2000/svg" width="100%" height="100%" viewBox="0 0 20 16" fill="none">
<path fill-rule="evenodd" clip-rule="evenodd" d="M7.13831 0.22256C7.2206 0.140287 7.3317 0.0532947 7.3852 0.0293157C7.98223 -0.238562 8.80565 1.35827 9.24564 3.63731C9.29083 3.87135 9.3278 4.06996 9.3278 4.07869C9.3278 4.08739 8.51841 4.09451 7.52914 4.09451H5.73045L5.75118 3.97414C6.0508 2.23468 6.59314 0.767882 7.13831 0.22256ZM1.26856 3.36686C2.19994 1.97675 3.44041 1.01631 5.05941 0.431662C5.24475 0.364733 5.41362 0.309231 5.43467 0.308333C5.4574 0.307337 5.42656 0.407844 5.35887 0.555442C4.89583 1.56494 4.59001 2.62451 4.36745 3.99019L4.35044 4.09451H2.60284C1.64165 4.09451 0.855204 4.08681 0.855204 4.0774C0.855204 4.02665 1.04446 3.70135 1.26856 3.36686ZM10.6937 3.99019C10.4712 2.62451 10.1653 1.56494 9.7023 0.555442C9.63955 0.418598 9.60043 0.306663 9.61536 0.306663C9.66979 0.306663 10.2927 0.533678 10.5785 0.657649C11.848 1.2084 12.9966 2.17394 13.7872 3.35508C13.9691 3.62681 14.206 4.03317 14.206 4.07352C14.206 4.08508 13.4195 4.09451 12.4583 4.09451H10.7107L10.6937 3.99019ZM0.0171544 7.06871C0.0558588 6.56641 0.113787 6.19013 0.219374 5.75571L0.287636 5.47483H2.24391H4.20018L4.18237 5.57916C4.17255 5.63652 4.14729 6.05906 4.1262 6.5181C4.08971 7.31236 4.11863 8.79469 4.1824 9.39911L4.20188 9.58369H2.24477H0.287636L0.219374 9.30281C0.0351587 8.54485 -0.0359919 7.75887 0.0171544 7.06871ZM5.47701 7.52926C5.47704 6.93534 5.5254 5.77581 5.55833 5.57916L5.57582 5.47483H7.53142H9.48705L9.50335 5.54706C9.60599 6.00118 9.60467 8.80637 9.50152 9.46331L9.48262 9.58369H7.53058H5.57855L5.55965 9.46331C5.5245 9.23951 5.47694 8.12681 5.47701 7.52926ZM10.9345 8.53105C10.9704 7.7261 10.9423 6.27124 10.8792 5.66682L10.8591 5.47483H12.8161H12.9927C12.9523 5.52873 12.914 5.58537 12.878 5.64476L10.9179 8.87806C10.9235 8.76873 10.9291 8.65114 10.9345 8.53105ZM9.17955 11.7455C9.20242 11.639 9.22447 11.5309 9.24564 11.4212C9.29083 11.1872 9.3278 10.9886 9.3278 10.9798C9.3278 10.9711 8.51841 10.964 7.52914 10.964H5.73045L5.75092 11.0844C6.0507 12.8487 6.59844 14.3152 7.16244 14.8634C7.31608 15.0128 7.44698 15.0767 7.58149 15.0545C7.55863 14.6721 7.64677 14.274 7.87083 13.9044L9.17955 11.7455ZM1.27396 11.7034C1.09208 11.4317 0.855204 11.0253 0.855204 10.985C0.855204 10.9734 1.64165 10.964 2.60284 10.964H4.35044L4.36745 11.0683C4.59001 12.434 4.89583 13.4936 5.35887 14.5031C5.42161 14.6399 5.46205 14.7519 5.44873 14.7519C5.43538 14.7519 5.30142 14.7103 5.15104 14.6594C4.05399 14.2885 3.04065 13.6634 2.23248 12.8589C1.83276 12.461 1.56504 12.1383 1.27396 11.7034Z" fill="currentColor"/>
<path fill-rule="evenodd" clip-rule="evenodd" d="M14.3347 7.06994C14.0702 7.17182 13.8746 7.31614 13.7418 7.50733C13.4466 7.93244 9.41902 14.3417 9.36312 14.4754C9.27238 14.6925 9.28037 15.0346 9.3818 15.2737C9.49118 15.5316 9.72869 15.7622 10.0198 15.8931L10.2574 16H14.8038H19.3502L19.5506 15.9142C20.0772 15.6886 20.3639 15.2045 20.288 14.6693C20.2543 14.4314 20.3942 14.6628 17.8928 10.7078C16.4594 8.44142 15.7973 7.42414 15.6898 7.32321C15.4647 7.11189 15.2117 7.01649 14.8402 7.00297C14.5834 6.99362 14.5063 7.00382 14.3347 7.06994ZM15.3393 10.8701V12.6289H14.8045H14.2698V10.8701V9.11133H14.8045H15.3393V10.8701ZM15.3393 14.29V14.7786H14.8045H14.2698V14.29V13.8015H14.8045H15.3393V14.29Z" fill="currentColor"/>
</svg>