<svg width="100%" height="100%" viewBox="0 0 16 16" fill="none" xmlns="http://www.w3.org/2000/svg">
<g clip-path="url(#clip0_1367_5768)">
<path fill-rule="evenodd" clip-rule="evenodd" d="M12.2235 0.0434073C11.9366 0.120146 11.7521 0.260546 11.162 0.851145L10.714 1.29965L14.704 5.28965L15.1725 4.81701C15.8088 4.17529 15.9081 4.0302 15.981 3.63662C16.0425 3.30492 15.9514 2.88582 15.7569 2.60543C15.6161 2.40227 13.4422 0.259513 13.2868 0.170606C12.9998 0.00639899 12.5589 -0.0463136 12.2235 0.0434073ZM5.87182 6.14048L9.29934 2.71346L13.2883 6.70246L9.86119 10.129L6.50617 13.4835L2.51723 9.49457L5.87182 6.14048ZM1.26466 11.0249C1.25587 11.0398 0.963851 12.0499 0.615733 13.2696C0.120558 15.0045 -0.013232 15.5116 0.00100431 15.5994C0.0330752 15.797 0.20316 15.9669 0.400905 15.999C0.489076 16.0133 0.999551 15.8791 2.7546 15.3803C3.98721 15.03 4.99571 14.7363 4.99574 14.7277C4.99583 14.6894 1.27893 11.0006 1.26466 11.0249Z" fill="currentColor"/>
</g>
<defs>
<clipPath id="clip0_1367_5768">
<rect width="100%" height="100%" fill="white"/>
</clipPath>
</defs>
</svg>

