<svg width="100%" height="100%" viewBox="0 0 16 16" fill="none" xmlns="http://www.w3.org/2000/svg">
    <path fill-rule="evenodd" clip-rule="evenodd" d="M0 7C0 3.13401 3.13401 0 7 0H9C12.866 0 16 3.13401 16 7V9C16 12.866 12.866 16 9 16H7C3.13401 16 0 12.866 0 9V7ZM8 7C8.55228 7 9 7.44772 9 8V12C9 12.5523 8.55228 13 8 13C7.44772 13 7 12.5523 7 12V8C7 7.44772 7.44772 7 8 7ZM8 3C7.44772 3 7 3.44772 7 4C7 4.55228 7.44772 5 8 5H8.01C8.56228 5 9.01 4.55228 9.01 4C9.01 3.44772 8.56228 3 8.01 3H8Z" fill="currentColor"/>
</svg>
