<svg width="100%" height="100%" viewBox="0 0 16 16" fill="none" xmlns="http://www.w3.org/2000/svg">
    <path fill-rule="evenodd" clip-rule="evenodd" d="M3.42847 1.5C3.42847 0.671573 4.10004 0 4.92847 0H11.0713C11.8997 0 12.5713 0.671573 12.5713 1.5V14.5C12.5713 15.3284 11.8998 16 11.0713 16H4.92847C4.10004 16 3.42847 15.3284 3.42847 14.5V1.5ZM9.14265 13.1429C9.14265 13.774 8.63097 14.2857 7.99979 14.2857C7.36861 14.2857 6.85693 13.774 6.85693 13.1429C6.85693 12.5117 7.36861 12 7.99979 12C8.63097 12 9.14265 12.5117 9.14265 13.1429ZM6.28561 1.42857C5.97002 1.42857 5.71418 1.68441 5.71418 2C5.71418 2.31559 5.97002 2.57143 6.28561 2.57143H9.71418C10.0298 2.57143 10.2856 2.31559 10.2856 2C10.2856 1.68441 10.0298 1.42857 9.71418 1.42857H6.28561Z" fill="currentColor"/>
</svg>
