<svg width="100%" height="100%" viewBox="0 0 16 16" fill="none" xmlns="http://www.w3.org/2000/svg">
<g clip-path="url(#clip0_567_2892)">
<path fill-rule="evenodd" clip-rule="evenodd" d="M0.0329375 4.68796C0.0329375 4.68796 7.96886 1.50083 8.01457 1.5C8.0868 1.49872 15.7829 4.54466 15.9474 4.63962C15.9845 4.66103 16.0052 4.70778 15.9989 4.75574C15.9895 4.82601 15.5002 5.02999 12.0627 6.39652C9.90367 7.2548 8.07549 7.97598 8.00006 7.99913C7.86636 8.04013 7.76453 8.00105 3.94195 6.44168C1.78543 5.56195 0.0129843 4.81917 0.00321337 4.79112C-0.00659181 4.76302 0.00681318 4.71658 0.0329375 4.68796ZM2.13522 12.6106C2.09422 12.5255 2.0861 11.1522 2.0861 9.35448C2.0861 8.16965 2.09494 7.20028 2.10577 7.20028C2.11657 7.20028 3.40085 7.72027 4.9597 8.35584C7.37617 9.34104 7.81421 9.50873 7.93129 9.4934C8.00682 9.4835 9.31828 8.97835 10.8456 8.37083C12.373 7.76331 13.6496 7.2579 13.6826 7.24774C13.7393 7.23026 13.7426 7.35014 13.7426 9.38756V12.5459L13.5813 12.7359C13.4925 12.8404 13.2814 13.0279 13.1121 13.1527C11.8485 14.0836 9.82338 14.5659 7.48581 14.4927C5.80141 14.44 4.59979 14.184 3.49125 13.6416C2.92907 13.3666 2.25114 12.8512 2.13522 12.6106Z" fill="currentColor"/>
</g>
<defs>
<clipPath id="clip0_567_2892">
<rect width="100%" height="100%" fill="white"/>
</clipPath>
</defs>
</svg>
