<svg width="100%" height="100%" viewBox="0 0 14 10" fill="none" xmlns="http://www.w3.org/2000/svg">
<path fill-rule="evenodd" clip-rule="evenodd" d="M1.81829 0.0183542C1.57667 0.0461698 1.28711 0.140568 1.04735 0.269623C0.807811 0.398598 0.454302 0.73989 0.306963 0.98445C0.163453 1.22262 0.0579613 1.51324 0.0953771 1.56738C0.118571 1.60093 6.8996 5.62223 6.98925 5.65559C7.02599 5.66925 13.8666 1.62715 13.9073 1.56768C13.9266 1.53954 13.916 1.47564 13.8711 1.349C13.7694 1.06246 13.6064 0.819863 13.3494 0.57236C13.1543 0.384518 13.0699 0.324989 12.8544 0.223272C12.3458 -0.01678 12.9048 0.00496342 7.12442 0.000376092C4.31139 -0.0018778 1.92364 0.00623624 1.81829 0.0183542ZM4.93238e-06 5.51055C0.000524597 8.38444 -0.000952344 8.34984 0.137361 8.71048C0.368776 9.31376 0.947026 9.80168 1.60924 9.9524C1.80655 9.9973 2.11146 10 7.00134 10C11.8912 10 12.1961 9.9973 12.3934 9.9524C13.0745 9.79739 13.6521 9.29872 13.8786 8.67018C14.004 8.3221 14.0053 8.28795 13.9972 5.48676L13.9895 2.82967L10.7347 4.75276C8.94462 5.81047 7.42156 6.70506 7.35017 6.74072C7.1652 6.83313 6.94396 6.84997 6.75519 6.78601C6.67127 6.75758 5.15344 5.87549 3.32266 4.79124C1.51751 3.72213 0.0313489 2.84221 0.0200531 2.83582C0.00875719 2.82943 -0.000241225 4.03306 4.93238e-06 5.51055Z" fill="currentColor"/>
</svg>
