<svg width="100%" height="100%" viewBox="0 0 16 16" fill="none" xmlns="http://www.w3.org/2000/svg">
<path fill-rule="evenodd" clip-rule="evenodd" d="M7.66536 1.01738C6.22412 1.16598 5.02551 2.1807 4.60748 3.60613C4.49008 4.00641 4.47 4.16924 4.45943 4.80692C4.44906 5.43104 4.46452 5.68237 4.53403 6.02025C4.68069 6.73302 5.01751 7.35741 5.53255 7.87119C5.7596 8.09769 5.934 8.23958 6.15071 8.37416C6.76746 8.75715 7.38769 8.92475 8.10737 8.90288C8.46823 8.89192 8.67278 8.86055 8.98548 8.76824C9.8013 8.52739 10.4664 8.02388 10.9589 7.27427C11.2071 6.89659 11.4026 6.40718 11.4894 5.94631C11.5674 5.53273 11.5807 4.60555 11.5155 4.13546C11.4305 3.52305 11.1821 2.92083 10.8066 2.41746C10.6648 2.22729 10.3347 1.89003 10.1506 1.74722C9.43162 1.18955 8.53875 0.927341 7.66536 1.01738ZM7.32258 10.7758C5.32742 10.971 2.95856 11.9449 1.92596 12.9944C1.57661 13.3494 1.44515 13.7037 1.52054 14.0867C1.55659 14.2698 1.59731 14.3715 1.6924 14.5156C1.83909 14.738 2.0674 14.8994 2.33683 14.9711C2.43699 14.9978 2.98387 15.0005 8.00172 14.9999C12.6443 14.9994 13.5721 14.9951 13.655 14.9738C14.0224 14.8795 14.2479 14.6878 14.4124 14.3297C14.5573 14.0141 14.5194 13.5772 14.3212 13.2806C14.1649 13.0467 13.8216 12.7322 13.4205 12.4554C12.4189 11.7642 10.9669 11.1812 9.54163 10.8981C8.84718 10.7601 7.97443 10.712 7.32258 10.7758Z" fill="currentColor"/>
</svg>
