<svg width="100%" height="100%" viewBox="0 0 22 17" fill="none" xmlns="http://www.w3.org/2000/svg">
<g>
<path fill-rule="evenodd" clip-rule="evenodd" d="M2.55673 9.2486C2.3529 8.93299 2.19896 8.67086 2.09666 8.489L2.06709 8.4361L2.09666 8.38319C2.19896 8.20133 2.3529 7.9392 2.55673 7.6236C2.96501 6.99142 3.57017 6.14976 4.35743 5.31002C5.94107 3.6208 8.20235 2 11.0371 2C13.8719 2 16.1332 3.6208 17.7168 5.31002C18.5041 6.14976 19.1093 6.99142 19.5175 7.6236C19.7214 7.9392 19.8753 8.20133 19.9776 8.38319L20.0072 8.4361L19.9776 8.489C19.8753 8.67086 19.7214 8.93299 19.5175 9.2486C19.1093 9.88078 18.5041 10.7224 17.7168 11.5622C16.1332 13.2514 13.8719 14.8722 11.0371 14.8722C8.20235 14.8722 5.94107 13.2514 4.35743 11.5622C3.57017 10.7224 2.96501 9.88078 2.55673 9.2486ZM21.0213 8.21211C21.0214 8.21231 21.0215 8.21249 20.5743 8.4361C21.0215 8.65971 21.0214 8.65988 21.0213 8.66009L21.021 8.66064L21.0202 8.6622L21.0177 8.66721L21.0088 8.68461C21.0012 8.69944 20.9902 8.72066 20.9758 8.74785C20.947 8.80223 20.9047 8.8805 20.8492 8.97926C20.7381 9.17672 20.5737 9.45648 20.3576 9.79113C19.9259 10.4595 19.2848 11.3518 18.4464 12.2461C16.7787 14.025 14.2714 15.8722 11.0371 15.8722C7.80284 15.8722 5.29555 14.025 3.62789 12.2461C2.7895 11.3518 2.14833 10.4595 1.71669 9.79113C1.50056 9.45648 1.33615 9.17672 1.22508 8.97926C1.16953 8.8805 1.12726 8.80223 1.09849 8.74785C1.0841 8.72066 1.07308 8.69944 1.06546 8.68461L1.05657 8.66721L1.05404 8.6622L1.05325 8.66064L1.05298 8.66009C1.05288 8.65988 1.05279 8.65971 1.5 8.4361C1.05279 8.21249 1.05288 8.21231 1.05298 8.21211L1.05325 8.21156L1.05404 8.21L1.05657 8.20499L1.06546 8.18759C1.07308 8.17276 1.0841 8.15153 1.09849 8.12434C1.12726 8.06997 1.16953 7.99169 1.22508 7.89293C1.33615 7.69547 1.50056 7.41572 1.71669 7.08107C2.14833 6.41273 2.7895 5.52036 3.62789 4.62608C5.29555 2.84724 7.80284 1 11.0371 1C14.2714 1 16.7787 2.84724 18.4464 4.62608C19.2848 5.52036 19.9259 6.41273 20.3576 7.08107C20.5737 7.41572 20.7381 7.69547 20.8492 7.89293C20.9047 7.99169 20.947 8.06997 20.9758 8.12434C20.9902 8.15153 21.0012 8.17276 21.0088 8.18759L21.0177 8.20499L21.0202 8.21L21.021 8.21156L21.0213 8.21211ZM20.5743 8.4361L21.0215 8.21249C21.0919 8.35326 21.0919 8.51894 21.0215 8.65971L20.5743 8.4361ZM1.05279 8.21249L1.5 8.4361L1.05279 8.65971C0.982405 8.51894 0.982405 8.35326 1.05279 8.21249ZM8.93602 8.4361C8.93602 7.27573 9.87669 6.33506 11.0371 6.33506C12.1974 6.33506 13.1381 7.27573 13.1381 8.4361C13.1381 9.59647 12.1974 10.5371 11.0371 10.5371C9.87669 10.5371 8.93602 9.59647 8.93602 8.4361ZM11.0371 5.33506C9.3244 5.33506 7.93602 6.72344 7.93602 8.4361C7.93602 10.1488 9.3244 11.5371 11.0371 11.5371C12.7497 11.5371 14.1381 10.1488 14.1381 8.4361C14.1381 6.72344 12.7497 5.33506 11.0371 5.33506Z" fill="#999999"/>
<path d="M2.09666 8.489L1.66021 8.73296L1.66087 8.73413L2.09666 8.489ZM2.55673 9.2486L2.13671 9.51986L2.13671 9.51987L2.55673 9.2486ZM2.06709 8.4361L1.63064 8.19214C1.5459 8.34374 1.5459 8.52846 1.63064 8.68006L2.06709 8.4361ZM2.09666 8.38319L1.66087 8.13806L1.66021 8.13924L2.09666 8.38319ZM2.55673 7.6236L2.13671 7.35233H2.13671L2.55673 7.6236ZM4.35743 5.31002L4.7222 5.65199L4.35743 5.31002ZM17.7168 5.31002L17.3521 5.65199L17.7168 5.31002ZM19.5175 7.6236L19.0975 7.89486L19.5175 7.6236ZM19.9776 8.38319L20.4141 8.13924L20.4134 8.13806L19.9776 8.38319ZM20.0072 8.4361L20.4436 8.68003C20.5284 8.52843 20.5284 8.34373 20.4436 8.19214L20.0072 8.4361ZM19.9776 8.489L20.4134 8.73414L20.4141 8.73294L19.9776 8.489ZM19.5175 9.2486L19.9376 9.51987V9.51986L19.5175 9.2486ZM17.7168 11.5622L18.0816 11.9041L17.7168 11.5622ZM4.35743 11.5622L3.99266 11.9041H3.99266L4.35743 11.5622ZM20.5743 8.4361L20.3507 7.98888C20.1813 8.07358 20.0743 8.24671 20.0743 8.4361C20.0743 8.62548 20.1813 8.79862 20.3507 8.88331L20.5743 8.4361ZM21.0213 8.21211L21.4685 7.9885L21.4684 7.98819L21.0213 8.21211ZM21.0213 8.66009L21.4684 8.88401L21.4685 8.8837L21.0213 8.66009ZM21.021 8.66064L21.4677 8.88522L21.4681 8.88456L21.021 8.66064ZM21.0202 8.6622L21.4665 8.88772L21.467 8.88679L21.0202 8.6622ZM21.0177 8.66721L21.463 8.89468L21.464 8.89273L21.0177 8.66721ZM21.0088 8.68461L21.4535 8.91324L21.4541 8.91208L21.0088 8.68461ZM20.9758 8.74785L21.4177 8.98172L21.4177 8.9817L20.9758 8.74785ZM20.8492 8.97926L20.4134 8.73413L20.4134 8.73414L20.8492 8.97926ZM20.3576 9.79113L20.7776 10.0624L20.7776 10.0624L20.3576 9.79113ZM18.4464 12.2461L18.8112 12.5881L18.4464 12.2461ZM3.62789 12.2461L3.26312 12.5881H3.26312L3.62789 12.2461ZM1.71669 9.79113L1.29667 10.0624L1.29667 10.0624L1.71669 9.79113ZM1.22508 8.97926L0.789296 9.22439L0.789296 9.2244L1.22508 8.97926ZM1.09849 8.74785L1.54043 8.51399L1.54043 8.51399L1.09849 8.74785ZM1.06546 8.68461L0.620192 8.91207L0.620782 8.91322L1.06546 8.68461ZM1.05657 8.66721L0.610305 8.89271L0.611304 8.89467L1.05657 8.66721ZM1.05404 8.6622L0.607319 8.88679L0.607778 8.8877L1.05404 8.6622ZM1.05325 8.66064L0.606254 8.88467L0.606534 8.88523L1.05325 8.66064ZM1.05298 8.66009L0.605843 8.88385L0.605981 8.88413L1.05298 8.66009ZM1.5 8.4361L1.72361 8.88331C1.893 8.79862 2 8.62548 2 8.4361C2 8.24671 1.893 8.07358 1.72361 7.98888L1.5 8.4361ZM1.05298 8.21211L0.605981 7.98807L0.605843 7.98834L1.05298 8.21211ZM1.05325 8.21156L0.606533 7.98697L0.606254 7.98752L1.05325 8.21156ZM1.05404 8.21L0.607777 7.98449L0.60732 7.9854L1.05404 8.21ZM1.05657 8.20499L0.6113 7.97753L0.610309 7.97949L1.05657 8.20499ZM1.06546 8.18759L0.620781 7.95898L0.620194 7.96013L1.06546 8.18759ZM1.09849 8.12434L1.54043 8.35821L1.54043 8.3582L1.09849 8.12434ZM1.22508 7.89293L0.789296 7.6478H0.789296L1.22508 7.89293ZM1.71669 7.08107L2.13671 7.35233L1.71669 7.08107ZM3.62789 4.62608L3.26312 4.28411L3.62789 4.62608ZM18.4464 4.62608L18.8112 4.28411L18.4464 4.62608ZM20.3576 7.08107L20.7776 6.80981L20.7776 6.80981L20.3576 7.08107ZM20.8492 7.89293L20.4134 8.13806L20.4134 8.13807L20.8492 7.89293ZM20.9758 8.12434L21.4177 7.89049L21.4177 7.89048L20.9758 8.12434ZM21.0088 8.18759L21.4541 7.96012L21.4535 7.95896L21.0088 8.18759ZM21.0177 8.20499L21.464 7.97946L21.463 7.97752L21.0177 8.20499ZM21.0202 8.21L21.467 7.98541L21.4665 7.98447L21.0202 8.21ZM21.021 8.21156L21.4681 7.98764L21.4677 7.98697L21.021 8.21156ZM21.0215 8.21249L21.4687 7.98889C21.4094 7.87028 21.3054 7.78009 21.1796 7.73815C21.0538 7.69622 20.9165 7.70597 20.7979 7.76528L21.0215 8.21249ZM21.0215 8.65971L20.7979 9.10692C20.9165 9.16622 21.0538 9.17598 21.1796 9.13405C21.3054 9.09211 21.4094 9.00192 21.4687 8.88331L21.0215 8.65971ZM1.05279 8.21249L1.27639 7.76528C1.15779 7.70597 1.02048 7.69622 0.894673 7.73815C0.768869 7.78008 0.664877 7.87028 0.605573 7.98888L1.05279 8.21249ZM1.05279 8.65971L0.605573 8.88331C0.664877 9.00192 0.768869 9.09211 0.894673 9.13405C1.02048 9.17598 1.15779 9.16622 1.27639 9.10692L1.05279 8.65971ZM1.66087 8.73413C1.76755 8.92379 1.92673 9.19473 2.13671 9.51986L2.97675 8.97734C2.77907 8.67125 2.63036 8.41793 2.53245 8.24387L1.66087 8.73413ZM1.63064 8.68006L1.66021 8.73296L2.53311 8.24505L2.50353 8.19214L1.63064 8.68006ZM1.66021 8.13924L1.63064 8.19214L2.50353 8.68006L2.53311 8.62715L1.66021 8.13924ZM2.13671 7.35233C1.92673 7.67746 1.76755 7.9484 1.66087 8.13806L2.53245 8.62832C2.63036 8.45426 2.77907 8.20095 2.97675 7.89486L2.13671 7.35233ZM3.99266 4.96805C3.17984 5.83506 2.55667 6.70208 2.13671 7.35233L2.97675 7.89486C3.37336 7.28076 3.9605 6.46446 4.7222 5.65199L3.99266 4.96805ZM11.0371 1.5C8.0027 1.5 5.61842 3.23391 3.99266 4.96805L4.7222 5.65199C6.26372 4.0077 8.402 2.5 11.0371 2.5V1.5ZM18.0816 4.96805C16.4559 3.23391 14.0716 1.5 11.0371 1.5V2.5C13.6723 2.5 15.8106 4.0077 17.3521 5.65199L18.0816 4.96805ZM19.9376 7.35233C19.5176 6.70208 18.8944 5.83506 18.0816 4.96805L17.3521 5.65199C18.1138 6.46446 18.7009 7.28076 19.0975 7.89486L19.9376 7.35233ZM20.4134 8.13806C20.3067 7.9484 20.1475 7.67746 19.9376 7.35233L19.0975 7.89486C19.2952 8.20095 19.4439 8.45426 19.5418 8.62832L20.4134 8.13806ZM20.4436 8.19214L20.4141 8.13924L19.5412 8.62715L19.5707 8.68005L20.4436 8.19214ZM20.4141 8.73294L20.4436 8.68003L19.5707 8.19216L19.5412 8.24507L20.4141 8.73294ZM19.9376 9.51986C20.1475 9.19473 20.3067 8.92379 20.4134 8.73413L19.5418 8.24387C19.4439 8.41793 19.2952 8.67125 19.0975 8.97734L19.9376 9.51986ZM18.0816 11.9041C18.8944 11.0371 19.5176 10.1701 19.9376 9.51987L19.0975 8.97734C18.7009 9.59144 18.1138 10.4077 17.3521 11.2202L18.0816 11.9041ZM11.0371 15.3722C14.0716 15.3722 16.4559 13.6383 18.0816 11.9041L17.3521 11.2202C15.8106 12.8645 13.6723 14.3722 11.0371 14.3722V15.3722ZM3.99266 11.9041C5.61842 13.6383 8.0027 15.3722 11.0371 15.3722V14.3722C8.402 14.3722 6.26372 12.8645 4.7222 11.2202L3.99266 11.9041ZM2.13671 9.51987C2.55667 10.1701 3.17984 11.0371 3.99266 11.9041L4.7222 11.2202C3.9605 10.4077 3.37336 9.59144 2.97675 8.97734L2.13671 9.51987ZM20.7979 8.88331C21.0214 8.77153 21.1335 8.71544 21.1897 8.68726C21.2175 8.67333 21.2326 8.66572 21.2409 8.66149C21.2437 8.66005 21.2502 8.65677 21.2566 8.65336C21.2585 8.6523 21.2623 8.65027 21.267 8.64764C21.2701 8.64586 21.2812 8.63962 21.2947 8.63076C21.3015 8.62634 21.3148 8.6174 21.3308 8.60484C21.3432 8.59506 21.378 8.56708 21.4133 8.52256C21.4495 8.47683 21.5173 8.37429 21.5211 8.22486C21.523 8.15243 21.5088 8.09225 21.4941 8.04932C21.4871 8.02906 21.4801 8.01313 21.4757 8.00345C21.4739 7.99969 21.4713 7.99408 21.4703 7.99221C21.4694 7.99036 21.4685 7.9885 21.4685 7.9885L20.5741 8.43571C20.5798 8.44705 20.5179 8.34101 20.5215 8.19937C20.5253 8.04995 20.5931 7.94742 20.6293 7.90171C20.6646 7.8572 20.6994 7.82924 20.7117 7.81948C20.7277 7.80694 20.741 7.79802 20.7477 7.79364C20.7611 7.78485 20.772 7.7787 20.775 7.77705C20.7794 7.77456 20.7828 7.7727 20.7843 7.77188C20.789 7.76939 20.792 7.7679 20.7879 7.77001C20.7823 7.77285 20.7695 7.7793 20.7414 7.7934C20.6858 7.82125 20.5743 7.87706 20.3507 7.98888L20.7979 8.88331ZM21.4685 8.8837C21.4685 8.8837 21.4694 8.88184 21.4703 8.87998C21.4713 8.87812 21.4739 8.87251 21.4757 8.86875C21.4801 8.85907 21.4871 8.84314 21.4941 8.82288C21.5088 8.77994 21.523 8.71977 21.5211 8.64734C21.5173 8.49791 21.4495 8.39536 21.4133 8.34964C21.378 8.30512 21.3432 8.27714 21.3308 8.26736C21.3148 8.2548 21.3015 8.24585 21.2947 8.24144C21.2812 8.23258 21.2701 8.22633 21.267 8.22455C21.2623 8.22193 21.2585 8.21989 21.2566 8.21884C21.2502 8.21543 21.2437 8.21215 21.2409 8.21071C21.2326 8.20648 21.2175 8.19886 21.1897 8.18494C21.1335 8.15675 21.0214 8.10067 20.7979 7.98888L20.3507 8.88331C20.5743 8.99514 20.6858 9.05094 20.7414 9.0788C20.7695 9.0929 20.7823 9.09934 20.7879 9.10219C20.792 9.10429 20.789 9.10281 20.7843 9.10032C20.7828 9.09949 20.7794 9.09763 20.775 9.09514C20.772 9.0935 20.7611 9.08735 20.7477 9.07856C20.741 9.07418 20.7277 9.06526 20.7117 9.05272C20.6994 9.04296 20.6646 9.015 20.6293 8.97049C20.5931 8.92478 20.5253 8.82225 20.5215 8.67283C20.5179 8.53119 20.5798 8.42515 20.5741 8.43648L21.4685 8.8837ZM21.4681 8.88456L21.4684 8.88401L20.5742 8.43617L20.574 8.43672L21.4681 8.88456ZM21.467 8.88679L21.4677 8.88522L20.5743 8.43605L20.5735 8.43761L21.467 8.88679ZM21.464 8.89273L21.4665 8.88772L20.574 8.43667L20.5715 8.44168L21.464 8.89273ZM21.4541 8.91208L21.463 8.89468L20.5724 8.43974L20.5636 8.45714L21.4541 8.91208ZM21.4177 8.9817C21.4331 8.95272 21.445 8.92976 21.4535 8.91324L20.5642 8.45598C20.5574 8.46912 20.5473 8.48861 20.5338 8.514L21.4177 8.9817ZM21.285 9.2244C21.3427 9.1217 21.3871 9.03966 21.4177 8.98172L20.5339 8.51399C20.507 8.5648 20.4667 8.63931 20.4134 8.73413L21.285 9.2244ZM20.7776 10.0624C20.9999 9.71822 21.1695 9.42965 21.285 9.22439L20.4134 8.73414C20.3067 8.92379 20.1475 9.19473 19.9376 9.51987L20.7776 10.0624ZM18.8112 12.5881C19.6751 11.6665 20.3343 10.7488 20.7776 10.0624L19.9376 9.51986C19.5176 10.1701 18.8944 11.0371 18.0816 11.9041L18.8112 12.5881ZM11.0371 16.3722C14.4713 16.3722 17.1016 14.4116 18.8112 12.5881L18.0816 11.9041C16.4559 13.6383 14.0716 15.3722 11.0371 15.3722V16.3722ZM3.26312 12.5881C4.97269 14.4116 7.60299 16.3722 11.0371 16.3722V15.3722C8.00269 15.3722 5.61841 13.6383 3.99266 11.9041L3.26312 12.5881ZM1.29667 10.0624C1.73999 10.7488 2.39917 11.6665 3.26312 12.5881L3.99266 11.9041C3.17984 11.0371 2.55667 10.1701 2.13671 9.51986L1.29667 10.0624ZM0.789296 9.2244C0.904753 9.42965 1.0744 9.71822 1.29667 10.0624L2.13671 9.51987C1.92673 9.19473 1.76755 8.92379 1.66087 8.73413L0.789296 9.2244ZM0.656552 8.98171C0.687215 9.03966 0.73153 9.1217 0.789296 9.22439L1.66087 8.73413C1.60753 8.6393 1.56731 8.5648 1.54043 8.51399L0.656552 8.98171ZM0.620782 8.91322C0.629285 8.92976 0.641218 8.95273 0.656554 8.98172L1.54043 8.51399C1.52699 8.48859 1.51688 8.46912 1.51014 8.456L0.620782 8.91322ZM0.611304 8.89467L0.620194 8.91207L1.51072 8.45715L1.50183 8.43974L0.611304 8.89467ZM0.607778 8.8877L0.610309 8.89271L1.50283 8.4417L1.5003 8.43669L0.607778 8.8877ZM0.606534 8.88523L0.60732 8.88679L1.50076 8.4376L1.49997 8.43604L0.606534 8.88523ZM0.605981 8.88413L0.606254 8.88467L1.50025 8.4366L1.49998 8.43605L0.605981 8.88413ZM1.27639 7.98888C1.05283 8.10067 0.940769 8.15675 0.884574 8.18494C0.85681 8.19887 0.841692 8.20648 0.833361 8.21071C0.830535 8.21215 0.824068 8.21543 0.817695 8.21884C0.81573 8.2199 0.811954 8.22193 0.807309 8.22456C0.804163 8.22634 0.793105 8.23259 0.779547 8.24145C0.772789 8.24586 0.759411 8.25481 0.743471 8.26737C0.731057 8.27716 0.696242 8.30515 0.660978 8.34969C0.624752 8.39545 0.556893 8.49804 0.553134 8.64751C0.551313 8.71996 0.565482 8.78013 0.580282 8.82306C0.587265 8.84331 0.594223 8.85923 0.598673 8.86891C0.600419 8.87267 0.603097 8.87828 0.604005 8.88014C0.60492 8.882 0.605843 8.88385 0.605843 8.88385L1.50012 8.43633C1.49444 8.42498 1.55638 8.531 1.55282 8.67265C1.54906 8.82212 1.4812 8.9247 1.44499 8.97044C1.40973 9.01496 1.37494 9.04294 1.36255 9.0527C1.34664 9.06525 1.3333 9.07417 1.32659 9.07855C1.31314 9.08734 1.30224 9.0935 1.29933 9.09514C1.29492 9.09763 1.29147 9.09949 1.28993 9.10031C1.28528 9.10281 1.28229 9.10429 1.28643 9.10219C1.29202 9.09934 1.30482 9.0929 1.33292 9.0788C1.38846 9.05094 1.49996 8.99514 1.72361 8.88331L1.27639 7.98888ZM0.605843 7.98834C0.605843 7.98834 0.60492 7.9902 0.604005 7.99206C0.603097 7.99392 0.600419 7.99953 0.598673 8.00329C0.594223 8.01297 0.587265 8.02889 0.580282 8.04914C0.565482 8.09207 0.551313 8.15224 0.553134 8.22469C0.556893 8.37416 0.624752 8.47675 0.660978 8.52251C0.696242 8.56704 0.731057 8.59504 0.743471 8.60482C0.759411 8.61739 0.772789 8.62633 0.779547 8.63075C0.793105 8.63961 0.804163 8.64586 0.807309 8.64764C0.811954 8.65026 0.81573 8.6523 0.817695 8.65335C0.824068 8.65677 0.830535 8.66005 0.833361 8.66149C0.841692 8.66572 0.85681 8.67333 0.884574 8.68726C0.940769 8.71544 1.05283 8.77153 1.27639 8.88331L1.72361 7.98888C1.49996 7.87706 1.38846 7.82125 1.33292 7.7934C1.30482 7.7793 1.29202 7.77285 1.28643 7.77001C1.28229 7.76791 1.28528 7.76939 1.28993 7.77188C1.29147 7.77271 1.29492 7.77457 1.29933 7.77706C1.30224 7.7787 1.31314 7.78485 1.32659 7.79365C1.3333 7.79803 1.34664 7.80695 1.36255 7.81949C1.37494 7.82926 1.40973 7.85723 1.44499 7.90176C1.4812 7.9475 1.54906 8.05008 1.55282 8.19955C1.55638 8.34119 1.49444 8.44722 1.50012 8.43587L0.605843 7.98834ZM0.606254 7.98752L0.605981 7.98807L1.49998 8.43614L1.50025 8.4356L0.606254 7.98752ZM0.60732 7.9854L0.606534 7.98697L1.49997 8.43616L1.50076 8.43459L0.60732 7.9854ZM0.610309 7.97949L0.607778 7.98449L1.5003 8.4355L1.50283 8.43049L0.610309 7.97949ZM0.620194 7.96013L0.611304 7.97753L1.50183 8.43245L1.51072 8.41505L0.620194 7.96013ZM0.656554 7.89048C0.641218 7.91946 0.629285 7.94244 0.620782 7.95898L1.51014 8.4162C1.51688 8.40308 1.52699 8.3836 1.54043 8.35821L0.656554 7.89048ZM0.789296 7.6478C0.73153 7.7505 0.687215 7.83254 0.656552 7.89049L1.54043 8.3582C1.56731 8.3074 1.60753 8.23289 1.66087 8.13806L0.789296 7.6478ZM1.29667 6.80981C1.0744 7.15398 0.904753 7.44254 0.789296 7.6478L1.66087 8.13806C1.76755 7.9484 1.92673 7.67746 2.13671 7.35233L1.29667 6.80981ZM3.26312 4.28411C2.39917 5.20566 1.73999 6.12339 1.29667 6.80981L2.13671 7.35233C2.55667 6.70208 3.17984 5.83506 3.99266 4.96805L3.26312 4.28411ZM11.0371 0.5C7.60299 0.5 4.97269 2.46057 3.26312 4.28411L3.99266 4.96805C5.61841 3.23392 8.00269 1.5 11.0371 1.5V0.5ZM18.8112 4.28411C17.1016 2.46057 14.4713 0.5 11.0371 0.5V1.5C14.0716 1.5 16.4559 3.23392 18.0816 4.96805L18.8112 4.28411ZM20.7776 6.80981C20.3343 6.12339 19.6751 5.20566 18.8112 4.28411L18.0816 4.96805C18.8944 5.83506 19.5176 6.70208 19.9376 7.35233L20.7776 6.80981ZM21.285 7.6478C21.1695 7.44254 20.9999 7.15398 20.7776 6.80981L19.9376 7.35233C20.1475 7.67746 20.3067 7.9484 20.4134 8.13806L21.285 7.6478ZM21.4177 7.89048C21.3871 7.83254 21.3427 7.7505 21.285 7.6478L20.4134 8.13807C20.4667 8.23289 20.507 8.3074 20.5339 8.35821L21.4177 7.89048ZM21.4535 7.95896C21.445 7.94244 21.4331 7.91948 21.4177 7.89049L20.5338 8.35819C20.5473 8.38359 20.5574 8.40307 20.5642 8.41622L21.4535 7.95896ZM21.463 7.97752L21.4541 7.96012L20.5636 8.41506L20.5724 8.43246L21.463 7.97752ZM21.4665 7.98447L21.464 7.97947L20.5715 8.43052L20.574 8.43552L21.4665 7.98447ZM21.4677 7.98697L21.467 7.98541L20.5735 8.43459L20.5743 8.43615L21.4677 7.98697ZM21.4684 7.98819L21.4681 7.98764L20.574 8.43548L20.5742 8.43603L21.4684 7.98819ZM20.7979 7.76528L20.3507 7.98888L20.7979 8.88331L21.2451 8.65971L20.7979 7.76528ZM21.4687 8.88331C21.6095 8.60178 21.6095 8.27041 21.4687 7.98889L20.5743 8.4361V8.4361L21.4687 8.88331ZM20.3507 8.88331L20.7979 9.10692L21.2451 8.21249L20.7979 7.98888L20.3507 8.88331ZM1.72361 7.98888L1.27639 7.76528L0.829179 8.65971L1.27639 8.88331L1.72361 7.98888ZM1.27639 9.10692L1.72361 8.88331L1.27639 7.98888L0.829179 8.21249L1.27639 9.10692ZM0.605573 7.98888C0.464809 8.27041 0.464809 8.60179 0.605573 8.88331L1.5 8.4361L0.605573 7.98888ZM11.0371 5.83506C9.60054 5.83506 8.43602 6.99959 8.43602 8.4361H9.43602C9.43602 7.55187 10.1528 6.83506 11.0371 6.83506V5.83506ZM13.6381 8.4361C13.6381 6.99959 12.4736 5.83506 11.0371 5.83506V6.83506C11.9213 6.83506 12.6381 7.55187 12.6381 8.4361H13.6381ZM11.0371 11.0371C12.4736 11.0371 13.6381 9.87261 13.6381 8.4361H12.6381C12.6381 9.32033 11.9213 10.0371 11.0371 10.0371V11.0371ZM8.43602 8.4361C8.43602 9.87261 9.60054 11.0371 11.0371 11.0371V10.0371C10.1528 10.0371 9.43602 9.32033 9.43602 8.4361H8.43602ZM8.43602 8.4361C8.43602 6.99959 9.60054 5.83506 11.0371 5.83506V4.83506C9.04826 4.83506 7.43602 6.4473 7.43602 8.4361H8.43602ZM11.0371 11.0371C9.60054 11.0371 8.43602 9.87261 8.43602 8.4361H7.43602C7.43602 10.4249 9.04826 12.0371 11.0371 12.0371V11.0371ZM13.6381 8.4361C13.6381 9.87261 12.4736 11.0371 11.0371 11.0371V12.0371C13.0259 12.0371 14.6381 10.4249 14.6381 8.4361H13.6381ZM11.0371 5.83506C12.4736 5.83506 13.6381 6.99959 13.6381 8.4361H14.6381C14.6381 6.4473 13.0259 4.83506 11.0371 4.83506V5.83506Z" fill="currentColor"/>
</g>
</svg>
