<svg width="100%" height="100%" viewBox="0 0 16 16" fill="none" xmlns="http://www.w3.org/2000/svg">
<g clip-path="url(#clip0_1535_5455)">
<path fill-rule="evenodd" clip-rule="evenodd" d="M6.28747 1.20622C6.52326 1.14456 7.06067 1.05616 7.37549 1.02727C8.04312 0.965996 8.77917 1.00887 9.42941 1.14692C9.8444 1.23505 9.95802 1.26471 10.2515 1.36155C10.8556 1.56093 11.4088 1.81308 11.9804 2.14953C12.3532 2.36905 12.4647 2.4431 12.9348 2.78372C13.0319 2.85408 13.3797 3.13153 13.5409 3.26731C13.7245 3.42189 14.6017 4.2729 14.7169 4.40812C14.7652 4.46491 14.8995 4.62122 15.0153 4.75546C15.4352 5.24223 15.892 5.86442 15.9623 6.04503C16.0336 6.22847 16.0129 6.31564 15.8206 6.64258C15.6365 6.95548 15.392 7.31058 15.1198 7.66285C14.3409 7.2401 13.4485 7 12.5 7C12.2014 7 11.9083 7.0238 11.6226 7.06961C11.6466 6.97453 11.6666 6.87218 11.6939 6.71953C11.7281 6.52802 11.722 5.88046 11.6838 5.6484C11.5926 5.09485 11.377 4.56815 11.062 4.12969C10.6778 3.59472 10.1915 3.1918 9.59387 2.91317C9.4581 2.84987 9.33178 2.79807 9.31318 2.79807C9.29459 2.79807 9.27406 2.78965 9.26755 2.77936C9.26105 2.76907 9.22832 2.75473 9.19482 2.74744C9.16132 2.74018 9.05973 2.71424 8.96906 2.6898C8.87839 2.66536 8.72508 2.63063 8.62837 2.61259C8.42028 2.57382 7.76639 2.55616 7.56233 2.58383C7.38626 2.60769 7.09043 2.66463 7.00183 2.69169C6.78005 2.75941 6.7262 2.77728 6.61718 2.81929C6.15234 2.99837 5.7403 3.26617 5.36285 3.63456C5.04939 3.94051 4.86964 4.18437 4.67338 4.56998C4.4634 4.98254 4.39561 5.18428 4.30532 5.66534C4.26883 5.85978 4.26907 6.53925 4.30574 6.74997C4.47131 7.70201 4.9078 8.43704 5.68122 9.06625C6.04714 9.36393 6.7511 9.68569 7.23262 9.77534C7.436 9.8132 7.54496 9.83014 7.68632 9.83738C7.42417 10.3103 7.22969 10.8259 7.11595 11.3712C7.07971 11.368 7.04866 11.3645 7.02381 11.3608L6.65015 11.3049C6.3726 11.2631 5.88229 11.146 5.51817 11.0346C5.04983 10.8912 4.40368 10.6139 4.00639 10.3857C3.9184 10.3351 3.84206 10.2938 3.83677 10.2938C3.81459 10.2938 3.22708 9.91159 3.0344 9.77182C2.52356 9.40126 1.79632 8.7419 1.35968 8.25341C0.906056 7.74595 0.384136 7.01949 0.0590925 6.44316C-0.0102551 6.32018 -0.0198825 6.13334 0.0372002 6.01766C0.118065 5.8537 0.613082 5.17743 0.890297 4.85222C1.49154 4.14682 2.13745 3.51411 2.78163 2.99953C3.17039 2.68896 3.8436 2.23252 4.18836 2.04575C4.55016 1.84976 5.05608 1.612 5.33133 1.50863C5.71869 1.36314 5.86772 1.31602 6.28747 1.20622ZM7.43044 4.74416C7.60325 4.69386 7.64842 4.68239 7.73817 4.66601C7.87858 4.64038 8.25314 4.65795 8.40727 4.69741C8.94596 4.83534 9.38655 5.26712 9.53973 5.80727C9.59389 5.99829 9.60117 6.38534 9.55387 6.56098C9.39662 7.14494 9.00416 7.54269 8.4227 7.70734C8.20404 7.76926 7.85473 7.77804 7.63394 7.72718C7.17873 7.62231 6.74418 7.28057 6.55504 6.8787C6.44261 6.63985 6.41072 6.49309 6.4101 6.21182C6.40951 5.94 6.42182 5.87159 6.51427 5.63313C6.64641 5.2923 6.90452 5.01034 7.2546 4.82436C7.32109 4.78905 7.40022 4.75295 7.43044 4.74416Z" fill="currentColor"/>
<path fill-rule="evenodd" clip-rule="evenodd" d="M9 13.3885H11.8264V16.2149H13.3886V13.3885H16.2149V11.8263H13.3886V9H11.8264V11.8263H9V13.3885Z" fill="currentColor"/>
</g>
<defs>
<clipPath id="clip0_1535_5455">
<rect width="16" height="16" fill="white"/>
</clipPath>
</defs>
</svg>
