<svg width="100%" height="100%" viewBox="0 0 21 21" fill="currentColor" xmlns="http://www.w3.org/2000/svg">
<!--<g opacity="0.44" clip-path="url(#clip0_790_3266)">-->
<path fill-rule="evenodd" clip-rule="evenodd" d="M19.2496 19.3296C19.61 19.3296 19.9397 19.1266 20.1019 18.8047C20.2642 18.4828 20.2313 18.097 20.0169 17.8073L14.0791 9.78278L14.0791 3.57957L15.312 3.57957C15.8392 3.57957 16.2666 3.15221 16.2666 2.62503C16.2666 2.09784 15.8392 1.67048 15.312 1.67048L5.24953 1.67048C4.72235 1.67048 4.29498 2.09784 4.29498 2.62503C4.29498 3.15221 4.72235 3.57957 5.24953 3.57957L6.92001 3.57957L6.92001 9.78278L0.982231 17.8073C0.76783 18.097 0.734924 18.4828 0.89716 18.8047C1.0594 19.1266 1.3891 19.3296 1.74955 19.3296L19.2496 19.3296ZM12.3572 10.6653L17.3558 17.4205L3.64333 17.4205L8.64187 10.6653C8.76347 10.501 8.8291 10.302 8.8291 10.0975L8.8291 3.57959L12.17 3.57959L12.17 10.0975C12.17 10.302 12.2356 10.501 12.3572 10.6653Z" fill="currentColor"/>
<!--</g>-->
<defs>
<clipPath id="clip0_790_3266">
<rect width="21" height="21" transform="translate(21 21) rotate(-180)"/>
</clipPath>
</defs>
</svg>
