<svg width="100%" height="100%" viewBox="0 0 16 16" fill="none" xmlns="http://www.w3.org/2000/svg">
    <path fill-rule="evenodd" clip-rule="evenodd" d="M7.28127 0.0438498C6.19321 0.177175 5.1821 0.600315 4.29305 1.29436C3.97936 1.53922 3.43701 2.09437 3.20556 2.40744C2.07379 3.93839 1.73097 5.77368 2.21065 7.73374C2.71777 9.80592 4.14564 12.1736 6.29002 14.498C6.87534 15.1324 7.67774 15.9072 7.80419 15.96C7.93611 16.0151 8.07003 16.0133 8.21068 15.9546C8.34144 15.9 9.51739 14.7336 10.038 14.1421C12.0054 11.9068 13.2848 9.73868 13.7745 7.80973C14.2779 5.82711 13.9334 3.93139 12.7924 2.40385C12.5742 2.11185 12.0615 1.57886 11.7714 1.34256C10.5133 0.317784 8.8862 -0.15284 7.28127 0.0438498ZM8.34632 2.68504C8.73273 2.72927 9.06221 2.82149 9.39264 2.97785C10.1375 3.33034 10.672 3.86311 11.0205 4.60039C11.6219 5.87247 11.3409 7.39656 10.3238 8.37979C9.31623 9.35371 7.8504 9.60492 6.60468 9.01716C6.22632 8.83863 5.97139 8.66326 5.67811 8.37979C4.66096 7.39656 4.37997 5.87247 4.98134 4.60039C5.53089 3.43791 6.66341 2.69801 7.95401 2.65831C8.02284 2.65618 8.19938 2.66822 8.34632 2.68504Z" fill="currentColor"/>
</svg>
