<svg width="100%" height="100%" viewBox="0 0 16 16" fill="none" xmlns="http://www.w3.org/2000/svg">
<path fill-rule="evenodd" clip-rule="evenodd" d="M7.42871 0.0256075C7.0872 0.0478978 6.9173 0.0685987 6.62418 0.123646C6.54421 0.138668 6.45261 0.154329 6.42062 0.158438C6.36388 0.165726 6.28951 0.182919 6.05228 0.243548C5.75346 0.319917 5.35445 0.444898 5.16668 0.520937C5.10997 0.543886 5.02868 0.576119 4.98603 0.592576C4.83606 0.650356 4.25897 0.927686 4.10814 1.01442C3.896 1.13644 3.7299 1.23915 3.56227 1.35198C3.49234 1.39906 3.39587 1.46384 3.34789 1.49595C3.27576 1.54422 2.91591 1.82401 2.88262 1.85769C2.87729 1.8631 2.81622 1.91484 2.74692 1.97265C2.58568 2.10721 2.06177 2.63219 1.9623 2.75888C1.92044 2.81218 1.87692 2.86452 1.86556 2.87518C1.85422 2.88584 1.79728 2.95562 1.73902 3.03024C1.68079 3.10487 1.62742 3.17028 1.62042 3.17561C1.61344 3.18094 1.56877 3.242 1.52114 3.31129C1.47353 3.38059 1.39385 3.49644 1.34407 3.56876C1.08949 3.93854 0.747841 4.58271 0.586256 4.9976C0.567568 5.04557 0.544246 5.10033 0.534398 5.11927C0.51567 5.15534 0.411159 5.44994 0.381595 5.55001C0.372134 5.58199 0.345963 5.66922 0.323436 5.74384C0.30089 5.81847 0.275338 5.91005 0.266653 5.94736C0.257949 5.98467 0.240191 6.05881 0.227183 6.11212C0.164042 6.37088 0.150258 6.4347 0.122575 6.59669C0.0147479 7.22774 -0.0213106 7.81947 0.0119175 8.41267C0.0338047 8.80333 0.0518534 8.96411 0.122478 9.39751C0.150336 9.56847 0.163829 9.6322 0.227183 9.89177C0.240191 9.94508 0.257949 10.0192 0.266653 10.0565C0.275338 10.0938 0.30089 10.1854 0.323436 10.26C0.345963 10.3347 0.372018 10.4219 0.381304 10.4539C0.407902 10.5454 0.497564 10.7969 0.526449 10.8609C0.540892 10.8929 0.567897 10.9583 0.586469 11.0063C0.687588 11.2675 0.938602 11.7762 1.09297 12.0327C1.25092 12.2952 1.27811 12.3372 1.49563 12.6538C1.55687 12.743 1.76597 13.0125 1.8415 13.0996C1.86461 13.1263 1.92655 13.2004 1.97916 13.2644C2.10097 13.4125 2.58196 13.8926 2.74692 14.0308C2.81622 14.0889 2.87729 14.1412 2.88262 14.1471C2.88795 14.153 2.94634 14.199 3.01239 14.2493C3.07842 14.2996 3.14424 14.3525 3.15864 14.3669C3.18997 14.3982 3.58 14.6687 3.72705 14.7611C4.09219 14.9906 4.65782 15.2829 4.98603 15.4119C5.39105 15.5711 5.67603 15.6642 6.05228 15.7603C6.30874 15.8259 6.36636 15.8388 6.45939 15.8517C6.5127 15.8592 6.60867 15.8751 6.67264 15.8871C7.17923 15.9825 7.83221 16.0209 8.40287 15.9889C8.62412 15.9766 8.86184 15.9574 8.93115 15.9464C9.00045 15.9353 9.12258 15.919 9.20255 15.91C9.39971 15.8879 9.52607 15.863 9.89077 15.774C9.94408 15.761 10.0182 15.7432 10.0555 15.7345C10.0929 15.7258 10.1845 15.7003 10.2591 15.6778C10.3337 15.6552 10.421 15.6291 10.453 15.6196C10.6174 15.571 10.9508 15.4443 11.18 15.3432C11.2837 15.2974 11.8362 15.0253 11.8779 14.9995C11.8939 14.9896 11.9942 14.9299 12.1008 14.8668C12.2074 14.8038 12.3557 14.7101 12.4304 14.6586C12.505 14.6071 12.6053 14.5382 12.6533 14.5054C12.7403 14.446 13.0073 14.2393 13.0992 14.1602C13.1259 14.1373 13.2044 14.071 13.2737 14.0129C13.343 13.9549 13.5134 13.7932 13.6523 13.6537C13.8719 13.4333 13.9646 13.3323 14.1608 13.0996C14.2515 12.9921 14.4496 12.7353 14.5121 12.6441C14.6459 12.4492 14.7375 12.3139 14.7566 12.2832C14.7829 12.241 14.9643 11.9373 14.9924 11.8884C15.0288 11.8254 15.3006 11.2758 15.3425 11.1807C15.4666 10.8993 15.6278 10.4443 15.7067 10.1534C15.7866 9.85851 15.8361 9.65462 15.8455 9.58165C15.8496 9.54967 15.8653 9.45808 15.8804 9.37813C15.9789 8.85636 16.0213 8.17015 15.9897 7.60944C15.9624 7.12621 15.8889 6.56457 15.8215 6.32362C15.8063 6.26939 15.7939 6.20769 15.7939 6.18655C15.7939 6.1654 15.7818 6.10948 15.767 6.06226C15.7523 6.01507 15.7249 5.91974 15.7063 5.85045C15.6443 5.61925 15.5353 5.30028 15.4117 4.98791C15.2724 4.63613 14.9869 4.08351 14.7613 3.72915C14.6751 3.5938 14.3957 3.18788 14.3803 3.17561C14.3736 3.17028 14.3205 3.10487 14.2624 3.03024C14.2042 2.95562 14.152 2.8902 14.1464 2.88487C14.1407 2.87954 14.0885 2.81848 14.0304 2.74919C13.7848 2.45662 13.3582 2.04739 13.0044 1.76503C12.9339 1.70878 12.8601 1.64927 12.8405 1.63278C12.8208 1.6163 12.7488 1.56418 12.6805 1.51698C12.6123 1.46977 12.5012 1.39297 12.4336 1.3463C12.2688 1.23235 11.9534 1.04272 11.7464 0.933113C11.5276 0.817223 11.3594 0.733373 11.3459 0.733373C11.34 0.733373 11.2806 0.708485 11.2139 0.678054C10.9637 0.56387 10.6349 0.436815 10.453 0.383997C10.421 0.374712 10.3337 0.348662 10.2591 0.326139C10.1845 0.303597 10.0929 0.27805 10.0555 0.269366C10.0182 0.260663 9.94408 0.242909 9.89077 0.229903C9.5189 0.139191 9.39938 0.115854 9.18633 0.0923621C9.09744 0.0825738 9.01676 0.0696454 9.00702 0.0636367C8.98093 0.0475101 8.13414 -0.00298216 7.94244 0.000138482C7.85181 0.00161158 7.62063 0.0130862 7.42871 0.0256075ZM7.3108 1.38477C7.33788 1.39516 7.34147 1.46884 7.34147 2.01404C7.34147 2.60469 7.33984 2.63241 7.30398 2.6516C7.24762 2.68174 6.05746 2.67877 6.02708 2.6484C6.01023 2.63156 6.00381 2.49277 6.00381 2.14582C6.00381 1.63181 6.0087 1.6056 6.10437 1.6056C6.12618 1.6056 6.18444 1.59292 6.23385 1.57744C6.41387 1.52101 6.67539 1.46321 7.0119 1.40549C7.202 1.37289 7.26792 1.36832 7.3108 1.38477ZM8.94813 1.40243C9.33523 1.46351 9.72364 1.551 9.94893 1.62791C9.98091 1.63884 10.0333 1.65497 10.0652 1.66375C10.1516 1.68747 10.2436 1.72093 10.3925 1.7828C10.4658 1.81327 10.5333 1.8382 10.5423 1.8382C10.5572 1.8382 10.7475 1.92398 10.9861 2.03819C11.0341 2.06116 11.1344 2.11539 11.209 2.15871C11.2837 2.20203 11.3578 2.24369 11.3738 2.25126C11.3898 2.25884 11.4291 2.2823 11.4611 2.30338C11.493 2.32447 11.5323 2.34764 11.5483 2.35485C11.5734 2.36617 11.699 2.45626 11.7491 2.49884C11.7657 2.51301 11.6032 2.59413 11.5581 2.59413C11.5449 2.59413 11.4893 2.61273 11.4346 2.63547L11.335 2.67683L11.3348 2.97952C11.3346 3.146 11.3279 3.29251 11.3199 3.30509C11.31 3.32073 11.2027 3.3299 10.98 3.33416L10.6546 3.34037L10.326 3.67205L9.99739 4.00371V4.65573C9.99739 5.24037 10.0006 5.30773 10.0284 5.30773C10.0454 5.30773 10.339 5.16817 10.6807 4.9976C11.0224 4.82703 11.3233 4.68748 11.3493 4.68748C11.401 4.68748 13.2314 5.29311 13.2897 5.32951C13.3231 5.35035 13.3026 5.39832 13.004 5.99811C12.7961 6.41588 12.6721 6.64429 12.6533 6.64435C12.6373 6.64439 12.3368 6.50066 11.9855 6.32498L11.3468 6.00551H10.6685H9.99018L9.35446 6.63921C9.00481 6.98776 8.70547 7.30089 8.68924 7.33508C8.66468 7.38683 8.65997 7.49898 8.66109 8.00487C8.66185 8.33907 8.66904 8.62929 8.67707 8.6498C8.68511 8.6703 8.98737 8.98214 9.34876 9.34273L10.0058 9.99838H10.6426C11.0302 9.99838 11.2936 10.006 11.3157 10.0178C11.3361 10.0287 11.4936 10.3214 11.676 10.6872L12 11.3372L11.2943 12.7441L10.5887 14.1509L10.4917 14.1893C10.3921 14.2288 10.3038 14.2621 10.1767 14.3085C10.0615 14.3505 9.84048 14.4131 9.5612 14.483C8.92167 14.6429 8.10895 14.7062 7.49447 14.644L7.26943 14.6212L6.63486 14.0009C6.28585 13.6598 5.9934 13.3676 5.98497 13.3516C5.97656 13.3356 5.97731 12.7355 5.98666 12.0179C6.0012 10.9019 5.99965 10.7058 5.97598 10.6611C5.95417 10.62 4.04258 8.6931 4.00658 8.67595C4.00148 8.67352 3.55242 8.66699 3.00863 8.66141L2.01993 8.65127L2.01483 7.99041L2.00973 7.32953L3.65297 6.3444C4.55676 5.80255 5.30263 5.34983 5.31046 5.33833C5.3183 5.32684 5.32483 5.03239 5.325 4.68401C5.32526 4.13431 5.32933 4.04658 5.35575 4.02014C5.38221 3.9937 5.46955 3.98969 6.01849 3.98969H6.65074L6.98226 4.3192C7.16461 4.50043 7.32656 4.64881 7.34217 4.64892C7.37856 4.64921 8.62595 4.02871 8.64491 4.0009C8.65274 3.9894 8.65927 3.39852 8.65945 2.6878C8.65968 1.67241 8.66493 1.39353 8.68397 1.38584C8.72371 1.36981 8.75289 1.37163 8.94813 1.40243Z" fill="currentColor"/>
</svg>
