<svg width="20" height="20" viewBox="0 0 20 20" fill="none" xmlns="http://www.w3.org/2000/svg">
<mask id="path-1-outside-1_1349_5424" maskUnits="userSpaceOnUse" x="-0.649902" y="0.5" width="21" height="19" fill="black">
<rect fill="white" x="-0.649902" y="0.5" width="21" height="19"/>
<path fill-rule="evenodd" clip-rule="evenodd" d="M14.8712 9.11905C15.8799 9.47169 16.8045 10.0542 17.5813 10.8411C18.7979 12.0737 19.5209 13.6732 19.6494 15.3933C19.6723 15.7002 19.4207 15.95 19.113 15.95C18.8052 15.95 18.5584 15.6997 18.5309 15.3933C18.2525 12.2918 15.6711 9.85391 12.5383 9.85391C11.7563 9.85391 11.2242 9.69895 10.8676 9.50605C10.6857 10.5668 10.0826 11.4829 9.23993 12.0709C10.1894 12.4028 11.0596 12.9511 11.7906 13.6917C12.9357 14.8518 13.6162 16.3572 13.7371 17.9761C13.7587 18.2649 13.5218 18.5 13.2322 18.5C12.9426 18.5 12.7103 18.2645 12.6844 17.9761C12.4223 15.057 9.99284 12.7625 7.04429 12.7625C4.09575 12.7625 1.66626 15.057 1.40418 17.9761C1.37828 18.2645 1.14599 18.5 0.856367 18.5C0.566749 18.5 0.329884 18.2649 0.351464 17.9761C0.472429 16.3572 1.15286 14.8518 2.29797 13.6917C3.02906 12.9511 3.89925 12.4028 4.84868 12.0709C3.83179 11.3614 3.16373 10.174 3.16373 8.8313C3.16373 6.66361 4.90456 4.90005 7.04429 4.90005C7.53828 4.90005 8.011 4.99404 8.44596 5.1653C8.69574 3.10259 10.4358 1.5 12.5383 1.5C14.8118 1.5 16.6614 3.37379 16.6614 5.67695C16.6614 7.10355 15.9516 8.36519 14.8712 9.11905ZM10.8776 8.21758C10.7286 7.25884 10.2363 6.41406 9.53267 5.81692C9.53059 5.77052 9.52954 5.72386 9.52954 5.67695C9.52954 3.99624 10.8793 2.62891 12.5383 2.62891C14.1973 2.62891 15.547 3.99624 15.547 5.67695C15.547 7.35767 14.1973 8.725 12.5383 8.725C11.9249 8.725 11.3539 8.53811 10.8776 8.21758ZM8.72349 6.52265C8.25335 6.17077 7.67237 5.96255 7.04429 5.96255C5.48287 5.96255 4.21253 7.24945 4.21253 8.8313C4.21253 10.4131 5.48287 11.7 7.04429 11.7C8.60572 11.7 9.87606 10.4131 9.87606 8.8313C9.87606 8.76041 9.87351 8.69011 9.86849 8.62049C9.82571 8.49266 9.79488 8.35527 9.7638 8.21676C9.70891 7.97213 9.65324 7.72401 9.52954 7.51897C9.40067 7.30538 9.23191 7.1167 9.06485 6.92991C8.94509 6.79601 8.82619 6.66309 8.72349 6.52265Z"/>
</mask>
<path fill-rule="evenodd" clip-rule="evenodd" d="M14.8712 9.11905C15.8799 9.47169 16.8045 10.0542 17.5813 10.8411C18.7979 12.0737 19.5209 13.6732 19.6494 15.3933C19.6723 15.7002 19.4207 15.95 19.113 15.95C18.8052 15.95 18.5584 15.6997 18.5309 15.3933C18.2525 12.2918 15.6711 9.85391 12.5383 9.85391C11.7563 9.85391 11.2242 9.69895 10.8676 9.50605C10.6857 10.5668 10.0826 11.4829 9.23993 12.0709C10.1894 12.4028 11.0596 12.9511 11.7906 13.6917C12.9357 14.8518 13.6162 16.3572 13.7371 17.9761C13.7587 18.2649 13.5218 18.5 13.2322 18.5C12.9426 18.5 12.7103 18.2645 12.6844 17.9761C12.4223 15.057 9.99284 12.7625 7.04429 12.7625C4.09575 12.7625 1.66626 15.057 1.40418 17.9761C1.37828 18.2645 1.14599 18.5 0.856367 18.5C0.566749 18.5 0.329884 18.2649 0.351464 17.9761C0.472429 16.3572 1.15286 14.8518 2.29797 13.6917C3.02906 12.9511 3.89925 12.4028 4.84868 12.0709C3.83179 11.3614 3.16373 10.174 3.16373 8.8313C3.16373 6.66361 4.90456 4.90005 7.04429 4.90005C7.53828 4.90005 8.011 4.99404 8.44596 5.1653C8.69574 3.10259 10.4358 1.5 12.5383 1.5C14.8118 1.5 16.6614 3.37379 16.6614 5.67695C16.6614 7.10355 15.9516 8.36519 14.8712 9.11905ZM10.8776 8.21758C10.7286 7.25884 10.2363 6.41406 9.53267 5.81692C9.53059 5.77052 9.52954 5.72386 9.52954 5.67695C9.52954 3.99624 10.8793 2.62891 12.5383 2.62891C14.1973 2.62891 15.547 3.99624 15.547 5.67695C15.547 7.35767 14.1973 8.725 12.5383 8.725C11.9249 8.725 11.3539 8.53811 10.8776 8.21758ZM8.72349 6.52265C8.25335 6.17077 7.67237 5.96255 7.04429 5.96255C5.48287 5.96255 4.21253 7.24945 4.21253 8.8313C4.21253 10.4131 5.48287 11.7 7.04429 11.7C8.60572 11.7 9.87606 10.4131 9.87606 8.8313C9.87606 8.76041 9.87351 8.69011 9.86849 8.62049C9.82571 8.49266 9.79488 8.35527 9.7638 8.21676C9.70891 7.97213 9.65324 7.72401 9.52954 7.51897C9.40067 7.30538 9.23191 7.1167 9.06485 6.92991C8.94509 6.79601 8.82619 6.66309 8.72349 6.52265Z" fill="currentColor"/>
<path d="M17.5813 10.8411L17.7948 10.6304L17.7948 10.6304L17.5813 10.8411ZM14.8712 9.11905L14.6995 8.87302L14.2184 9.20867L14.7722 9.40224L14.8712 9.11905ZM19.6494 15.3933L19.3503 15.4157V15.4157L19.6494 15.3933ZM18.5309 15.3933L18.2321 15.4201L18.5309 15.3933ZM10.8676 9.50605L11.0104 9.24218L10.6426 9.04325L10.572 9.45534L10.8676 9.50605ZM9.23993 12.0709L9.06827 11.8249L8.58721 12.1605L9.14093 12.3541L9.23993 12.0709ZM11.7906 13.6917L12.0042 13.481L12.0041 13.481L11.7906 13.6917ZM13.7371 17.9761L14.0363 17.9537L13.7371 17.9761ZM12.6844 17.9761L12.9832 17.9492L12.6844 17.9761ZM1.40418 17.9761L1.70298 18.0029L1.40418 17.9761ZM0.351464 17.9761L0.650631 17.9985L0.351464 17.9761ZM2.29797 13.6917L2.08447 13.481L2.08446 13.481L2.29797 13.6917ZM4.84868 12.0709L4.94768 12.3541L5.50141 12.1605L5.02034 11.8249L4.84868 12.0709ZM8.44596 5.1653L8.33604 5.44444L8.69713 5.58662L8.74378 5.20137L8.44596 5.1653ZM10.8776 8.21759L10.5812 8.26365L10.6013 8.39324L10.7101 8.46646L10.8776 8.21759ZM9.53267 5.81692L9.23297 5.83035L9.23883 5.96102L9.33856 6.04565L9.53267 5.81692ZM8.72349 6.52265L8.96565 6.34556L8.93917 6.30935L8.90326 6.28247L8.72349 6.52265ZM9.86849 8.62049L10.1677 8.59894L10.165 8.56118L10.153 8.52528L9.86849 8.62049ZM9.7638 8.21676L9.47108 8.28244V8.28245L9.7638 8.21676ZM9.52954 7.51897L9.27267 7.67395L9.52954 7.51897ZM9.06485 6.92991L9.28846 6.72991L9.06485 6.92991ZM17.7948 10.6304C16.9861 9.81121 16.0225 9.20373 14.9702 8.83585L14.7722 9.40224C15.7373 9.73965 16.6229 10.2973 17.3678 11.0519L17.7948 10.6304ZM19.9486 15.371C19.8148 13.5802 19.0617 11.9139 17.7948 10.6304L17.3678 11.0519C18.5342 12.2336 19.227 13.7662 19.3503 15.4157L19.9486 15.371ZM19.113 16.25C19.5799 16.25 19.9856 15.8667 19.9486 15.3709L19.3503 15.4157C19.3591 15.5336 19.2615 15.65 19.113 15.65V16.25ZM18.2321 15.4201C18.272 15.864 18.6332 16.25 19.113 16.25V15.65C18.9773 15.65 18.8449 15.5355 18.8297 15.3664L18.2321 15.4201ZM12.5383 10.1539C15.5111 10.1539 17.9671 12.4685 18.2321 15.4201L18.8297 15.3664C18.5378 12.115 15.8311 9.55391 12.5383 9.55391V10.1539ZM10.7249 9.76992C11.1335 9.99093 11.7167 10.1539 12.5383 10.1539V9.55391C11.796 9.55391 11.315 9.40696 11.0104 9.24218L10.7249 9.76992ZM9.4116 12.3169C10.3186 11.6841 10.9675 10.6984 11.1633 9.55676L10.572 9.45534C10.4039 10.4352 9.84664 11.2818 9.06827 11.8249L9.4116 12.3169ZM12.0041 13.481C11.2412 12.7081 10.3319 12.1349 9.33893 11.7877L9.14093 12.3541C10.0468 12.6708 10.8779 13.1941 11.5771 13.9025L12.0041 13.481ZM14.0363 17.9537C13.91 16.2642 13.1995 14.6919 12.0042 13.481L11.5771 13.9025C12.672 15.0117 13.3223 16.4502 13.438 17.9985L14.0363 17.9537ZM13.2322 18.8C13.681 18.8 14.072 18.4315 14.0363 17.9537L13.438 17.9985C13.4454 18.0983 13.3627 18.2001 13.2322 18.2001V18.8ZM12.3856 18.0029C12.4238 18.4288 12.7706 18.8 13.2322 18.8V18.2001C13.1146 18.2001 12.9968 18.1003 12.9832 17.9492L12.3856 18.0029ZM7.04429 13.0625C9.83284 13.0625 12.137 15.2338 12.3856 18.0029L12.9832 17.9492C12.7077 14.8803 10.1528 12.4625 7.04429 12.4625V13.0625ZM1.70298 18.0029C1.95159 15.2338 4.25575 13.0625 7.04429 13.0625V12.4625C3.93575 12.4625 1.38092 14.8803 1.10538 17.9492L1.70298 18.0029ZM0.856367 18.8C1.318 18.8 1.66474 18.4288 1.70298 18.0029L1.10538 17.9492C1.09182 18.1003 0.973969 18.2001 0.856367 18.2001V18.8ZM0.0522984 17.9537C0.0166019 18.4315 0.407578 18.8 0.856367 18.8V18.2001C0.72592 18.2001 0.643167 18.0983 0.650631 17.9985L0.0522984 17.9537ZM2.08446 13.481C0.889121 14.6919 0.178541 16.2642 0.0522984 17.9537L0.650631 17.9985C0.766318 16.4502 1.4166 15.0117 2.51148 13.9025L2.08446 13.481ZM4.74968 11.7877C3.75667 12.1349 2.84742 12.7081 2.08447 13.481L2.51147 13.9025C3.21071 13.1941 4.04183 12.6708 4.94768 12.3541L4.74968 11.7877ZM2.86373 8.8313C2.86373 10.2755 3.58259 11.5533 4.67702 12.3169L5.02034 11.8249C4.08099 11.1695 3.46373 10.0725 3.46373 8.8313H2.86373ZM7.04429 4.60005C4.73521 4.60005 2.86373 6.50161 2.86373 8.8313H3.46373C3.46373 6.82561 5.0739 5.20005 7.04429 5.20005V4.60005ZM8.55587 4.88616C8.0866 4.70139 7.57664 4.60005 7.04429 4.60005V5.20005C7.49993 5.20005 7.93541 5.28669 8.33604 5.44444L8.55587 4.88616ZM12.5383 1.2C10.279 1.2 8.41555 2.92093 8.14813 5.12924L8.74378 5.20137C8.97594 3.28425 10.5925 1.8 12.5383 1.8V1.2ZM16.9614 5.67695C16.9614 3.21178 14.9811 1.2 12.5383 1.2V1.8C14.6424 1.8 16.3614 3.53579 16.3614 5.67695H16.9614ZM15.0428 9.36508C16.2008 8.55713 16.9614 7.20507 16.9614 5.67695H16.3614C16.3614 7.00203 15.7024 8.17326 14.6995 8.87302L15.0428 9.36508ZM11.1741 8.17152C11.0137 7.13968 10.4839 6.2307 9.72678 5.58818L9.33856 6.04565C9.98876 6.59742 10.4436 7.37799 10.5812 8.26365L11.1741 8.17152ZM9.83237 5.80348C9.83049 5.76156 9.82954 5.71938 9.82954 5.67695H9.22954C9.22954 5.72834 9.23069 5.77948 9.23297 5.83035L9.83237 5.80348ZM9.82954 5.67695C9.82954 4.15824 11.0486 2.92891 12.5383 2.92891V2.32891C10.7099 2.32891 9.22954 3.83423 9.22954 5.67695H9.82954ZM12.5383 2.92891C14.028 2.92891 15.247 4.15824 15.247 5.67695H15.847C15.847 3.83423 14.3666 2.32891 12.5383 2.32891V2.92891ZM15.247 5.67695C15.247 7.19567 14.028 8.425 12.5383 8.425V9.025C14.3666 9.025 15.847 7.51968 15.847 5.67695H15.247ZM12.5383 8.425C11.9869 8.425 11.4738 8.25718 11.0451 7.96871L10.7101 8.46646C11.234 8.81904 11.863 9.025 12.5383 9.025V8.425ZM7.04429 6.26255C7.60488 6.26255 8.12328 6.44814 8.54373 6.76283L8.90326 6.28247C8.38342 5.89339 7.73986 5.66255 7.04429 5.66255V6.26255ZM4.51253 8.8313C4.51253 7.41145 5.65221 6.26255 7.04429 6.26255V5.66255C5.31352 5.66255 3.91253 7.08744 3.91253 8.8313H4.51253ZM7.04429 11.4C5.65221 11.4 4.51253 10.2511 4.51253 8.8313H3.91253C3.91253 10.5752 5.31352 12 7.04429 12V11.4ZM9.57606 8.8313C9.57606 10.2511 8.43638 11.4 7.04429 11.4V12C8.77507 12 10.1761 10.5752 10.1761 8.8313H9.57606ZM9.56927 8.64205C9.57377 8.7045 9.57606 8.76761 9.57606 8.8313H10.1761C10.1761 8.75321 10.1732 8.67572 10.1677 8.59894L9.56927 8.64205ZM9.47108 8.28245C9.50148 8.41792 9.53548 8.57073 9.584 8.71571L10.153 8.52528C10.1159 8.4146 10.0883 8.29262 10.0565 8.15108L9.47108 8.28245ZM9.27267 7.67395C9.36664 7.8297 9.41384 8.02733 9.47108 8.28244L10.0565 8.15108C10.004 7.91692 9.93985 7.61832 9.78641 7.364L9.27267 7.67395ZM8.84124 7.12991C9.01167 7.32045 9.16079 7.48851 9.27267 7.67395L9.78641 7.364C9.64056 7.12224 9.45216 6.91294 9.28846 6.72991L8.84124 7.12991ZM8.48134 6.69974C8.59426 6.85415 8.72333 6.99808 8.84124 7.12991L9.28846 6.72991C9.16684 6.59394 9.05813 6.47202 8.96565 6.34556L8.48134 6.69974Z" fill="currentColor" mask="url(#path-1-outside-1_1349_5424)"/>
</svg>
