<svg width="100%" height="100%" viewBox="0 0 16 16" fill="none" xmlns="http://www.w3.org/2000/svg">
<path fill-rule="evenodd" clip-rule="evenodd" d="M4.26165 1.90918C4.19649 2.40924 4.12393 2.96279 4.1004 3.13929L4.05765 3.46023L3.12751 3.46742L2.19738 3.47461L2.01289 4.86914C1.91142 5.63613 1.82779 6.27907 1.82703 6.29785C1.82599 6.32454 2.0292 6.33203 2.7558 6.33203H3.68593L3.67061 6.4209C3.65378 6.51841 3.24633 9.61864 3.24633 9.6491C3.24633 9.65949 2.82858 9.66797 2.31797 9.66797H1.38961L1.37647 9.72949C1.36923 9.76334 1.28861 10.3693 1.1973 11.0762C1.106 11.783 1.02426 12.4013 1.01565 12.4502L1 12.5391H1.93434H2.86866L2.85248 12.6416C2.8436 12.698 2.77495 13.2179 2.69996 13.7969C2.62496 14.3759 2.5577 14.8835 2.55049 14.9248L2.53738 15H3.97782L5.41826 15L5.53672 14.0908C5.60188 13.5908 5.67447 13.037 5.69799 12.8604L5.7408 12.5391H7.40554H9.07029L9.05411 12.6416C9.04523 12.698 8.97658 13.2179 8.90158 13.7969C8.82659 14.3759 8.75933 14.8834 8.75212 14.9248L8.739 15H10.1794L11.6199 15L11.7384 14.0908C11.8035 13.5908 11.8761 13.0372 11.8996 12.8607L11.9423 12.5398L12.8725 12.5326L13.8026 12.5254L13.9871 11.1309C14.0886 10.3639 14.1722 9.72096 14.173 9.70215C14.174 9.67546 13.9708 9.66797 13.2442 9.66797H12.3141L12.3294 9.5791C12.3462 9.48159 12.7537 6.38136 12.7537 6.3509C12.7537 6.34051 13.1714 6.33203 13.682 6.33203H14.6104L14.6235 6.27051C14.6308 6.23666 14.7114 5.63066 14.8027 4.92383C14.894 4.21699 14.9757 3.59867 14.9843 3.5498L15 3.46094H14.0657H13.1313L13.1475 3.3584C13.1564 3.30202 13.225 2.78213 13.3 2.20312C13.375 1.62412 13.4423 1.11654 13.4495 1.0752L13.4626 1H12.0222L10.5817 1.00003L10.4633 1.90918C10.3981 2.40924 10.3255 2.96293 10.302 3.13965L10.2592 3.46094H8.59445H6.92971L6.94589 3.3584C6.95477 3.30202 7.02342 2.78213 7.09841 2.20312C7.17341 1.62412 7.24067 1.11657 7.24788 1.0752L7.26099 1H5.82055L4.38011 1.00003L4.26165 1.90918ZM9.87224 6.4209C9.85541 6.51841 9.44796 9.61864 9.44796 9.6491C9.44796 9.65949 8.69748 9.66797 7.78021 9.66797H6.11244L6.12776 9.5791C6.14459 9.48159 6.55204 6.38136 6.55204 6.3509C6.55204 6.34051 7.30252 6.33203 8.21979 6.33203H9.88756L9.87224 6.4209Z" fill="currentColor"/>
</svg>
