<svg width="22" height="22" viewBox="0 0 22 22" fill="none" xmlns="http://www.w3.org/2000/svg">
<path fill-rule="evenodd" clip-rule="evenodd" d="M10.0133 0.0260322C7.88744 0.234167 5.92264 1.01734 4.19995 2.34323C3.36103 2.98889 2.27158 4.20232 1.642 5.19216C1.3701 5.61966 0.840807 6.70294 0.6512 7.21992C0.439201 7.79802 0.213249 8.68143 0.10206 9.3669C-0.0340199 10.2059 -0.0340199 11.7988 0.10206 12.6378C0.294466 13.8239 0.598836 14.7827 1.11981 15.8442C1.68902 17.0039 2.28088 17.8259 3.22866 18.7732C4.17648 19.7204 4.99898 20.3119 6.15932 20.8808C7.22143 21.4015 8.18079 21.7057 9.36752 21.898C10.207 22.034 11.8008 22.034 12.6403 21.898C13.8271 21.7057 14.7864 21.4015 15.8485 20.8808C17.0089 20.3119 17.8314 19.7204 18.7792 18.7732C19.727 17.8259 20.3188 17.0039 20.888 15.8442C21.2661 15.0739 21.4562 14.5691 21.6599 13.7949C21.9312 12.764 22 12.1988 22 11.0024C22 9.80589 21.9312 9.24075 21.6599 8.20981C21.4562 7.43568 21.2661 6.93083 20.888 6.16053C20.3188 5.00086 19.727 4.17882 18.7792 3.23154C17.8314 2.28431 17.0089 1.69279 15.8485 1.1239C14.7874 0.603695 13.8091 0.293344 12.6618 0.11297C12.0289 0.0134649 10.6154 -0.0329306 10.0133 0.0260322ZM7.75265 6.55562C8.92044 6.83098 9.49339 8.11465 8.93594 9.20671C8.8145 9.44463 8.44472 9.8142 8.20667 9.93557C7.5596 10.2655 6.80475 10.2152 6.25965 9.80585C5.35589 9.12718 5.24397 7.88646 6.01316 7.07364C6.46395 6.59728 7.11149 6.40443 7.75265 6.55562ZM15.0137 6.53669C15.9806 6.71706 16.6513 7.6797 16.4776 8.6377C16.2122 10.1012 14.4388 10.6636 13.3911 9.61652C13.0277 9.25332 12.8569 8.83895 12.8561 8.31857C12.8544 7.18265 13.8903 6.32717 15.0137 6.53669ZM16.9447 12.0353C17.0502 12.0945 17.1956 12.2268 17.2677 12.3294C17.3863 12.4981 17.4003 12.5534 17.4142 12.9079C17.4534 13.9088 17.0636 15.1914 16.4135 16.2007C15.6531 17.3812 14.4755 18.3502 13.2085 18.8377C12.4489 19.1301 11.8428 19.2409 11.0039 19.2409C10.165 19.2409 9.55894 19.1301 8.7993 18.8377C7.53234 18.3502 6.35474 17.3812 5.59433 16.2007C4.94421 15.1914 4.55448 13.9088 4.59367 12.9079C4.60754 12.5543 4.62175 12.4979 4.73884 12.3315C4.87737 12.1346 5.07038 12.0002 5.29117 11.947C5.36601 11.9289 7.9755 11.9172 11.09 11.9209L16.7528 11.9277L16.9447 12.0353Z" fill="black"/>
</svg>
