<svg width="100%" height="100%" viewBox="0 0 16 16" fill="none" xmlns="http://www.w3.org/2000/svg">
<path fill-rule="evenodd" clip-rule="evenodd" d="M6.68518 0.0333671C6.08006 0.170103 5.55755 0.657354 5.36457 1.26489C5.30702 1.44613 5.29779 1.55144 5.2856 2.1664L5.27182 2.86268H3.7266C2.29153 2.86268 2.16997 2.86661 2.02151 2.91771C1.75586 3.00915 1.61148 3.0964 1.43955 3.26946C1.23629 3.474 1.12839 3.66395 1.056 3.94478C1.00463 4.14405 1 4.27932 1 5.57921V6.99641L1.63738 6.9969C2.38203 6.99752 2.56049 7.02613 2.92719 7.20368C3.124 7.29899 3.22791 7.37518 3.41813 7.5636C3.62048 7.76405 3.68097 7.84757 3.79306 8.08114C3.86659 8.23432 3.94249 8.44215 3.96177 8.54301C4.01015 8.79628 3.98223 9.27784 3.90527 9.51768C3.75625 9.98216 3.39173 10.41 2.96182 10.6251C2.57567 10.8183 2.45441 10.8403 1.68134 10.8583L1 10.8742V12.3006C1 13.4693 1.00788 13.7573 1.04364 13.8947C1.18228 14.4272 1.57259 14.8176 2.10489 14.9563C2.24215 14.9921 2.53004 15 3.69829 15H5.12413L5.13998 14.3184C5.15794 13.545 5.18001 13.4237 5.3731 13.0374C5.58805 12.6073 6.01576 12.2426 6.48004 12.0935C6.71978 12.0165 7.20115 11.9886 7.45431 12.037C7.55512 12.0563 7.76287 12.1322 7.91599 12.2058C8.43638 12.4557 8.83827 12.9645 8.95658 13.5232C8.98635 13.6637 8.99942 13.9177 8.99977 14.3624L9.00027 15H10.4309C11.7344 15 11.88 14.9951 12.0702 14.9452C12.5609 14.8163 12.9388 14.4483 13.089 13.9533C13.124 13.8379 13.1317 13.5355 13.132 12.2695L13.1323 10.7264L13.8283 10.7126C14.443 10.7004 14.5482 10.6912 14.7294 10.6336C15.3508 10.4361 15.831 9.91065 15.9635 9.28315C16.1489 8.40568 15.61 7.49105 14.7441 7.21368C14.6161 7.17269 14.4351 7.15859 13.8649 7.14519L13.1469 7.12833L13.1321 5.53055C13.1191 4.11834 13.1116 3.91831 13.0676 3.80842C12.9018 3.39411 12.6011 3.09326 12.1869 2.92738C12.0771 2.88338 11.8771 2.87587 10.4655 2.86283L8.8684 2.84802L8.85155 2.12975C8.83816 1.55933 8.82406 1.37829 8.78309 1.25024C8.60764 0.702092 8.18128 0.277609 7.60169 0.074118C7.37654 -0.00495046 6.94057 -0.0243291 6.68518 0.0333671Z" fill="currentColor"/>
</svg>
