<svg width="100%" height="100%" viewBox="0 0 16 16" fill="none" xmlns="http://www.w3.org/2000/svg">
    <path fill-rule="evenodd" clip-rule="evenodd" d="M3.84106 1.00961C3.79807 1.01708 3.65736 1.03853 3.52837 1.05731C2.97576 1.1377 2.27077 1.44237 1.7724 1.81613C0.173312 3.01548 -0.435524 5.33249 0.326155 7.31999C0.803599 8.56579 1.80252 9.78481 3.77852 11.5331C4.57604 12.2388 7.70008 14.8943 7.7952 14.9474C7.90971 15.0114 8.08056 15.0178 8.18744 14.9621C8.28722 14.9101 11.6134 12.0796 12.3456 11.4237C13.6669 10.2399 14.4672 9.38 15.0344 8.53453C15.7256 7.50407 16.0453 6.4393 15.9948 5.33539C15.8958 3.16826 14.5268 1.47871 12.5338 1.06369C12.176 0.989182 11.307 0.989805 10.9754 1.06481C10.1258 1.25699 9.46971 1.64345 8.82504 2.33147C8.6111 2.55979 8.31645 2.96155 8.15248 3.24853C8.07887 3.37737 8.01017 3.48277 7.99982 3.48277C7.98947 3.48277 7.92027 3.37647 7.84604 3.24657C7.63354 2.87465 7.28595 2.43456 6.94928 2.11106C6.36646 1.5511 5.76929 1.22738 5.02421 1.06746C4.80461 1.02032 4.00456 0.981211 3.84106 1.00961Z" fill="currentColor"/>
</svg>
