<svg xmlns="http://www.w3.org/2000/svg" width="100%" height="100%" viewBox="0 0 16 16" fill="none">
    <path fill-rule="evenodd" clip-rule="evenodd" d="M9.8775 0.519384C9.01308 0.660705 8.24778 1.06794 7.50602 1.78121C7.04364 2.22586 6.89823 2.41605 6.63588 2.9193C6.17778 3.79816 6.08194 4.18619 6.06823 5.21774C6.05635 6.11435 6.11467 6.44761 6.40709 7.15417C6.48638 7.34569 6.549 7.54019 6.54626 7.5864C6.54357 7.63261 5.09008 9.04268 3.31633 10.7199L0.0913501 13.7695L0.717196 14.5122C1.06143 14.9208 1.37892 15.2568 1.42275 15.2589C1.46658 15.2611 1.76295 15.0199 2.08138 14.7228L2.66043 14.1827L3.35229 14.991L4.04414 15.7993L4.28614 15.6117C4.41921 15.5085 4.75991 15.1971 5.04317 14.9196L5.55826 14.4151L4.86439 13.5871L4.17058 12.7591L6.03774 10.9874C7.06466 10.0129 7.92865 9.2169 7.95761 9.21835C7.98663 9.2198 8.21647 9.33024 8.46842 9.46378C9.22361 9.86396 9.70049 9.98414 10.56 9.99074C11.7739 10.0001 12.6447 9.6631 13.5804 8.82187C15.1016 7.45438 15.5823 5.30224 14.801 3.35732C14.2784 2.05668 13.2829 1.12112 11.9613 0.688771C11.4579 0.524068 10.3829 0.436698 9.8775 0.519384ZM11.2956 2.3626C12.9177 2.77704 13.8201 4.59811 13.2399 6.28574C12.5964 8.15749 10.2479 8.81421 8.80013 7.52725C8.13909 6.9397 7.79205 6.16908 7.78322 5.26914C7.76404 3.32575 9.48657 1.90033 11.2956 2.3626Z" fill="currentColor"/>
</svg>