<svg width="100%" height="100%" viewBox="0 0 16 16" fill="none" xmlns="http://www.w3.org/2000/svg">
<path fill-rule="evenodd" clip-rule="evenodd" d="M2 1C0.895431 1 0 1.89543 0 3V13C0 14.1046 0.895431 15 2 15H14C15.1046 15 16 14.1046 16 13V3C16 1.89543 15.1046 1 14 1H2ZM11.8859 5.11209C11.8056 4.95532 11.6969 4.86613 11.5303 4.82022C11.2753 4.74991 11.0211 4.86673 10.8954 5.11209C10.8566 5.18774 10.8517 5.22712 10.8447 5.51664C10.8395 5.73111 10.8297 5.84341 10.8151 5.85556C10.8017 5.86666 10.4342 5.87612 9.87188 5.87982C8.96161 5.88582 8.94973 5.88638 8.87746 5.92704C8.64921 6.05542 8.53922 6.30753 8.6114 6.53689C8.66041 6.6926 8.73713 6.78805 8.87746 6.86782L8.9506 6.90939L10.9584 6.91453C12.7897 6.91922 12.9671 6.92231 12.9777 6.94986C12.9988 7.0048 12.8968 7.39609 12.765 7.76613C12.6844 7.99263 12.486 8.34652 12.3056 8.58563C12.1918 8.73652 11.8919 9.04773 11.7725 9.13886C11.4677 9.37146 11.1236 9.58206 11.0484 9.58206C10.9364 9.58206 10.509 9.19432 10.2748 8.88021C10.197 8.77592 10.1334 8.68624 10.1334 8.68093C10.1334 8.67564 10.1094 8.63526 10.0801 8.59121C10.0087 8.4838 9.7981 8.0402 9.7981 7.99712C9.7981 7.94979 9.7021 7.77848 9.64084 7.71648C9.51938 7.59354 9.44025 7.56353 9.23931 7.56416C9.02762 7.56484 8.94522 7.59966 8.82493 7.73931C8.65353 7.93826 8.64087 8.08292 8.76466 8.42731C8.90583 8.82009 9.12254 9.23967 9.32261 9.50756C9.36469 9.5639 9.41259 9.63143 9.42906 9.65762C9.44551 9.68382 9.52297 9.77326 9.60117 9.85638C9.67938 9.93952 9.73682 10.0115 9.72883 10.0163C9.69538 10.0364 9.40414 10.0828 9.24862 10.0927C9.15643 10.0986 9.03746 10.1152 8.98424 10.1295C8.81348 10.1754 8.67559 10.3053 8.61486 10.4774C8.53401 10.7065 8.648 10.9887 8.87131 11.1119C8.94349 11.1517 8.97133 11.1554 9.18135 11.1531C9.39862 11.1506 9.59809 11.1253 9.90055 11.0617C9.97226 11.0466 10.0469 11.0344 10.0665 11.0346C10.0861 11.0347 10.1448 11.0228 10.1969 11.0081C10.249 10.9934 10.3462 10.9678 10.4128 10.9511C10.5838 10.9084 10.728 10.8671 10.8039 10.839C10.9691 10.7779 10.9898 10.7781 11.1764 10.8442C11.2738 10.8786 11.3785 10.9136 11.4093 10.922C11.44 10.9304 11.5322 10.9559 11.6142 10.9787C11.9222 11.0644 12.1194 11.1016 12.5906 11.1632C12.8934 11.2028 13.1124 11.0903 13.2242 10.8376C13.2728 10.7275 13.2758 10.5436 13.2305 10.4441C13.1835 10.3408 13.0988 10.2368 13.0224 10.1886C12.944 10.1391 12.7468 10.0893 12.5699 10.0742C12.4603 10.0648 12.4468 10.0596 12.4581 10.0306C12.4652 10.0124 12.5548 9.93002 12.6572 9.84744C13.4234 9.22986 13.9329 8.35943 14.1263 7.33776C14.1847 7.02954 14.1939 6.93463 14.1937 6.6465C14.1934 6.19278 14.1514 6.09366 13.8866 5.92138C13.8334 5.88677 13.7864 5.88474 12.9094 5.87938C12.3464 5.87593 11.9796 5.86668 11.9662 5.85556C11.9516 5.84341 11.9418 5.73111 11.9366 5.51664C11.9296 5.22712 11.9247 5.18774 11.8859 5.11209ZM5.5191 5.51252C5.3715 5.12483 5.12601 4.89545 4.77894 4.82091C4.325 4.72343 3.86089 4.97732 3.68493 5.4194C3.6514 5.5036 3.56762 5.71287 3.48175 5.92693L3.36999 6.2063C3.31367 6.34751 3.24401 6.52179 3.14659 6.76505C3.11479 6.84443 3.07601 6.94291 3.06042 6.98389C3.04482 7.02486 3.02131 7.08353 3.00818 7.11426C2.99505 7.14499 2.97018 7.20785 2.95293 7.25395C2.93568 7.30005 2.91082 7.3629 2.89769 7.39364C2.88455 7.42437 2.85941 7.48723 2.84181 7.53332C2.82421 7.57942 2.79906 7.64228 2.78593 7.67301C2.7728 7.70374 2.74929 7.76241 2.73368 7.80338C2.70263 7.88496 2.60954 8.11879 2.42411 8.58097C2.28436 8.92929 2.24891 9.01843 2.22224 9.0885C2.20663 9.12947 2.18313 9.18814 2.16999 9.21887C2.15686 9.2496 2.13172 9.31246 2.11411 9.35856C2.09651 9.40465 2.07137 9.46751 2.05824 9.49824C2.0451 9.52898 2.02024 9.59183 2.00299 9.63793C1.98574 9.68403 1.96088 9.74689 1.94774 9.77762C1.93461 9.80835 1.90947 9.87121 1.89187 9.9173C1.85957 10.0019 1.83638 10.0583 1.78437 10.1787C1.76873 10.2149 1.74123 10.3051 1.72328 10.3789C1.69228 10.5065 1.69225 10.52 1.72274 10.6454C1.77964 10.8796 1.90312 11.0366 2.10543 11.132C2.31027 11.2287 2.52335 11.2218 2.72942 11.1119C2.85263 11.0461 3.00034 10.876 3.03755 10.757C3.04582 10.7305 3.07039 10.6628 3.09213 10.6064C3.17173 10.4002 3.18863 10.3539 3.20405 10.2991C3.21271 10.2684 3.23791 10.1971 3.26006 10.1408C3.28219 10.0845 3.30771 10.0145 3.31676 9.98534C3.31874 9.97895 3.32034 9.97295 3.32185 9.96731C3.32518 9.95484 3.32804 9.94414 3.33347 9.93497C3.36619 9.8797 3.49234 9.87974 4.37851 9.88001L4.59089 9.88005H5.80522L5.84491 9.97783C5.86676 10.0316 5.9015 10.1259 5.92211 10.1874C5.94273 10.2488 5.97703 10.3452 5.99833 10.4015C6.01964 10.4579 6.05405 10.5543 6.0748 10.6157C6.13049 10.7807 6.17676 10.8699 6.2526 10.9585C6.43309 11.1694 6.72189 11.2527 6.97299 11.1663C7.27418 11.0627 7.45119 10.8216 7.45119 10.515C7.45119 10.3632 7.44739 10.3504 7.28018 9.93593C7.24918 9.8591 7.21135 9.76272 7.1961 9.72174C7.18084 9.68077 7.15762 9.6221 7.14448 9.59137C7.13135 9.56064 7.10621 9.49778 7.08861 9.45168C7.071 9.40559 7.04586 9.34273 7.03273 9.312C7.0196 9.28126 6.99609 9.2226 6.98048 9.18162C6.96489 9.14065 6.9252 9.04007 6.89228 8.95812C6.85939 8.87617 6.80822 8.74837 6.77861 8.67409L6.66685 8.39472L6.55509 8.11535L6.44345 7.83598C6.41165 7.7566 6.37287 7.65811 6.35728 7.61713C6.34167 7.57616 6.31817 7.51749 6.30503 7.48676C6.2919 7.45603 6.26676 7.39317 6.24916 7.34707C6.23155 7.30098 6.20641 7.23812 6.19328 7.20739C6.18015 7.17666 6.15528 7.1138 6.13803 7.0677C6.12078 7.0216 6.09592 6.95874 6.08279 6.92801C6.06965 6.89728 6.04615 6.83861 6.03054 6.79764C6.00143 6.72115 5.93616 6.55691 5.8307 6.29477C5.76888 6.14111 5.70014 5.96947 5.60323 5.72671C5.57255 5.64988 5.53469 5.5535 5.5191 5.51252ZM4.52294 6.58346C4.53368 6.55785 4.54708 6.52222 4.5527 6.5043C4.55835 6.48638 4.56645 6.47171 4.57071 6.47171C4.58733 6.47171 4.64488 6.57489 4.65841 6.62892C4.66625 6.66026 4.69087 6.73199 4.71313 6.78833C4.73539 6.84467 4.76053 6.91591 4.76901 6.94664C4.77748 6.97737 4.80263 7.04861 4.82489 7.10495C4.84715 7.16129 4.87229 7.23253 4.88077 7.26326C4.88924 7.29399 4.91439 7.36524 4.93665 7.42158C4.9589 7.47792 4.98405 7.54916 4.99253 7.57989C5.001 7.61062 5.02615 7.68186 5.0484 7.7382C5.07066 7.79454 5.09581 7.86578 5.10428 7.89651C5.11276 7.92724 5.13759 7.99848 5.15947 8.05482C5.18134 8.11116 5.21934 8.21593 5.24391 8.28763C5.26849 8.35934 5.31677 8.49824 5.35121 8.59628C5.38565 8.69434 5.41054 8.78445 5.40651 8.7965C5.40106 8.81289 5.19177 8.81844 4.57924 8.81844H3.75928L3.76807 8.7486C3.77289 8.71019 3.79545 8.63266 3.81819 8.57632C3.84093 8.51998 3.86647 8.44874 3.87495 8.418C3.88342 8.38727 3.90825 8.31603 3.93014 8.25969C3.952 8.20335 3.99011 8.09859 4.01481 8.02688C4.06497 7.88127 4.13892 7.67202 4.23861 7.39364C4.2753 7.2912 4.32541 7.14872 4.34999 7.07701C4.37456 7.00531 4.41256 6.90054 4.43442 6.8442C4.45631 6.78786 4.48079 6.71662 4.48881 6.68589C4.49684 6.65516 4.51221 6.60907 4.52294 6.58346Z" fill="currentColor"/>
</svg>
