<svg width="100%" height="100%" viewBox="0 0 16 16" fill="none" xmlns="http://www.w3.org/2000/svg">
<path fill-rule="evenodd" clip-rule="evenodd" d="M5.17569 0.0189969C5.17079 0.0312329 5.16896 0.372404 5.17163 0.777167L5.17645 1.51308H7.55068H9.92491V0.759416V0.00575013L7.55474 0.00124591C5.66774 -0.00233622 5.18277 0.00128137 5.17569 0.0189969ZM12.9902 1.46431C12.9512 1.51065 12.8232 1.65628 12.7057 1.78795C12.5883 1.91962 12.4269 2.10216 12.3472 2.1936C12.2674 2.28503 12.1871 2.37428 12.1687 2.39191C12.0995 2.45834 12.0738 2.51092 12.0934 2.54606C12.1037 2.56445 12.172 2.62682 12.2452 2.68468C12.3184 2.74255 12.3973 2.80623 12.4206 2.8262C12.4438 2.84618 12.5019 2.89406 12.5497 2.9326C12.8338 3.1616 13.0619 3.34757 13.1637 3.43305C13.2276 3.48676 13.3024 3.54732 13.33 3.56763C13.3747 3.60063 13.6017 3.7852 13.8881 4.02151C14.1429 4.23174 14.3752 4.41248 14.3904 4.41248C14.4136 4.41248 14.6093 4.2078 14.7282 4.059C14.7583 4.02147 14.9788 3.77154 15.1517 3.57901C15.3409 3.36845 15.4045 3.28918 15.3996 3.26999C15.3947 3.25043 15.0719 2.97517 14.94 2.87801C14.914 2.85881 14.8433 2.80201 14.783 2.75181C14.7227 2.7016 14.5736 2.5793 14.4517 2.48001C14.3297 2.3807 14.205 2.27879 14.1745 2.25352C14.144 2.22823 14.0151 2.12348 13.8881 2.02073C13.7611 1.91797 13.5491 1.74519 13.417 1.63679C13.1791 1.44158 13.0968 1.38008 13.0733 1.38008C13.0666 1.38008 13.0292 1.41798 12.9902 1.46431ZM6.99638 2.30509C6.66909 2.3305 6.17135 2.40397 5.98779 2.45396C5.93609 2.46802 5.87597 2.47955 5.8542 2.47955C5.83244 2.47955 5.78329 2.49059 5.74497 2.50409C5.70667 2.51758 5.62127 2.54234 5.55522 2.55913C5.48916 2.57591 5.40602 2.59965 5.37045 2.61187C5.21804 2.66429 5.17336 2.67846 5.12089 2.69107C5.09033 2.69839 5.04876 2.71285 5.02851 2.72315C5.00826 2.73347 4.95427 2.75542 4.90854 2.77195C4.78713 2.81584 4.52157 2.92901 4.40967 2.98454C4.36256 3.00793 4.07578 3.1541 3.97547 3.20588C3.94499 3.22161 3.87016 3.26609 3.80919 3.30471C3.74821 3.34334 3.69001 3.37896 3.67985 3.38387C3.6334 3.40634 3.25042 3.66167 3.22718 3.68566C3.2221 3.69091 3.18052 3.72265 3.13479 3.75622C2.83233 3.97822 2.21738 4.55544 2.03182 4.79153C1.98485 4.85127 1.92384 4.92408 1.89622 4.95334C1.84689 5.0056 1.82021 5.04123 1.61734 5.32574C1.52342 5.45745 1.36726 5.69871 1.33611 5.76021C1.32868 5.77484 1.29459 5.83469 1.26033 5.89321C1.12429 6.1256 0.973744 6.43844 0.867763 6.70894C0.852483 6.74795 0.828353 6.80608 0.814126 6.83811C0.799917 6.87014 0.788277 6.90777 0.788277 6.92174C0.788277 6.93571 0.776619 6.97334 0.762373 7.00537C0.748128 7.0374 0.722002 7.11149 0.70432 7.17001C0.686656 7.22853 0.661381 7.31232 0.64817 7.35621C0.618146 7.45594 0.576814 7.62646 0.54071 7.79954C0.336009 8.78076 0.354393 9.74999 0.596547 10.7433C0.637102 10.9096 0.723147 11.1966 0.756036 11.2753C0.766235 11.2996 0.781108 11.3435 0.789072 11.3728C0.797035 11.4021 0.821572 11.4699 0.843577 11.5235C0.865583 11.5772 0.891561 11.6467 0.901279 11.6781C0.911017 11.7094 0.92698 11.7398 0.936773 11.7456C0.946565 11.7514 0.954566 11.7672 0.954566 11.7806C0.954566 11.8033 1.08992 12.0965 1.14696 12.1974C1.16074 12.2218 1.20954 12.3103 1.25538 12.3942C1.4255 12.7053 1.81101 13.2685 1.93389 13.3855C1.93901 13.3904 1.99287 13.4542 2.05359 13.5274C2.40556 13.9515 3.01815 14.4857 3.53204 14.8167C3.85368 15.0238 3.92588 15.0657 4.19719 15.2023C4.56297 15.3866 4.62502 15.4137 5.02864 15.5659C5.18633 15.6254 5.2699 15.6539 5.34274 15.6731C5.37322 15.6812 5.42311 15.6959 5.4536 15.7059C5.75914 15.806 6.21712 15.8982 6.75619 15.9682C7.08258 16.0106 8.01878 16.0106 8.34517 15.9682C8.80671 15.9083 9.01012 15.8711 9.35214 15.7843C9.4436 15.761 9.54753 15.7353 9.58309 15.727C9.65556 15.7103 9.7472 15.6805 9.83777 15.6442C9.87114 15.6309 9.91035 15.6199 9.92491 15.6199C9.93947 15.6199 9.97868 15.6086 10.012 15.5948C10.0454 15.581 10.1476 15.5401 10.239 15.5041C10.5734 15.3722 10.7342 15.2968 11.1444 15.0791C11.1952 15.0522 11.2499 15.0192 11.2659 15.0058C11.282 14.9925 11.2998 14.9815 11.3055 14.9815C11.3211 14.9815 11.7195 14.7224 11.8465 14.6297C12.3604 14.2543 12.7866 13.8474 13.2428 13.2967C13.3374 13.1825 13.5702 12.851 13.6723 12.6851C13.7203 12.607 13.7677 12.5312 13.7776 12.5166C13.8191 12.4551 14.1468 11.8106 14.1468 11.7904C14.1468 11.7783 14.1584 11.7472 14.1725 11.7213C14.1867 11.6954 14.2124 11.6384 14.2298 11.5945C14.2472 11.5506 14.273 11.4885 14.2872 11.4564C14.3014 11.4244 14.3131 11.3868 14.3131 11.3728C14.3131 11.3588 14.3246 11.3212 14.3386 11.2892C14.3784 11.1985 14.4093 11.0955 14.5065 10.73C14.7414 9.84651 14.7617 8.74013 14.5605 7.79954C14.502 7.52618 14.3949 7.13773 14.3453 7.01927C14.3351 6.99489 14.3202 6.951 14.3123 6.92174C14.3043 6.89248 14.2798 6.82465 14.2578 6.77101C14.2358 6.71736 14.2098 6.64783 14.2001 6.61648C14.1903 6.58514 14.1744 6.55473 14.1646 6.54893C14.1548 6.54313 14.1468 6.52737 14.1468 6.51389C14.1468 6.49174 14.0069 6.18762 13.9607 6.10925C13.9502 6.09152 13.9068 6.0133 13.8641 5.93543C13.7758 5.77425 13.7808 5.78285 13.6572 5.58537C13.5086 5.34823 13.3189 5.08297 13.2125 4.96365C13.1814 4.92873 13.1175 4.85226 13.0706 4.79374C12.8544 4.52418 12.3316 4.02882 12.0128 3.79137C11.9416 3.73838 11.8793 3.69015 11.8742 3.68415C11.8646 3.6728 11.7404 3.58816 11.5508 3.46371C11.1422 3.19542 10.594 2.91625 10.1928 2.77215C10.1471 2.75572 10.0847 2.73152 10.0542 2.71836C10.0238 2.7052 9.95309 2.6808 9.8972 2.66417C9.8413 2.64752 9.76647 2.62398 9.73091 2.61185C9.67023 2.5912 9.61151 2.57465 9.36138 2.50781C8.68972 2.32832 7.74263 2.24713 6.99638 2.30509ZM8.33353 4.61198C8.34809 4.66413 8.34809 9.81775 8.33353 9.8699L8.32239 9.9098H7.55068H6.77897L6.76783 9.8699C6.75327 9.81775 6.75327 4.66413 6.76783 4.61198L6.77897 4.57208H7.55068H8.32239L8.33353 4.61198Z" fill="currentColor"/>
</svg>
