<svg width="100%" height="100%" viewBox="0 0 20 20" fill="currentColor" xmlns="http://www.w3.org/2000/svg">
<path  fill-rule="evenodd" clip-rule="evenodd" d="M11.8865 1.27319C11.66 1.31938 11.3502 1.46514 11.1255 1.63125C11.039 1.69516 10.2076 2.78118 9.27791 4.04459C8.34822 5.30799 7.41546 6.552 7.20518 6.809C6.9949 7.06605 6.44872 7.6461 5.99149 8.09802C5.53426 8.54993 5.13622 8.96456 5.10693 9.01938C5.06857 9.09128 5.05371 10.1634 5.05371 12.8584V16.5977L5.18896 16.7758C5.34697 16.9837 6.35465 17.9447 6.62859 18.1486C6.86087 18.3215 7.29657 18.5367 7.63933 18.6478C7.87867 18.7254 8.14757 18.7327 11.2592 18.7463C13.6028 18.7566 14.7158 18.7455 14.9354 18.7096C15.6165 18.5983 16.3821 18.0669 16.6778 17.5002C16.7435 17.3742 17.4787 15.7824 18.3115 13.9627C19.2605 11.8892 19.8601 10.5217 19.9182 10.2989C19.997 9.99653 20.0086 9.82256 19.9953 9.13483C19.9799 8.33429 19.9783 8.3232 19.8297 8.01854C19.6354 7.62031 19.2965 7.29123 18.8864 7.10256L18.5695 6.95681L15.69 6.94375C14.1063 6.93654 12.8106 6.92189 12.8106 6.91121C12.8106 6.90053 13.0864 6.21973 13.4236 5.39833C14.1323 3.67205 14.1844 3.46851 14.0644 2.89667C13.8637 1.94121 13.2243 1.32806 12.3532 1.25589C12.204 1.24352 11.994 1.25128 11.8865 1.27319ZM1.09969 8.36255C0.635639 8.55267 0.365748 8.79379 0.129187 9.2295L0 9.46746V13.1422V16.8168L0.12961 17.073C0.284371 17.3789 0.687257 17.7638 0.998942 17.9035C1.18398 17.9865 1.30696 18.0037 1.71591 18.0037C2.16835 18.0037 2.23219 17.9926 2.48116 17.8701C2.81621 17.7054 3.13941 17.377 3.30583 17.0322L3.43182 16.7712V13.1412V9.5112L3.27904 9.20983C2.98075 8.62147 2.45714 8.29691 1.76292 8.27002C1.42538 8.25696 1.32238 8.2713 1.09969 8.36255Z" fill="currentColor"/>
</svg>
