<svg width="100%" height="100%" viewBox="0 0 16 16" fill="none" xmlns="http://www.w3.org/2000/svg">
<path fill-rule="evenodd" clip-rule="evenodd" d="M11.6936 0.04247C11.1441 0.128243 10.5688 0.362268 10.1214 0.682034C9.86216 0.867308 6.90834 3.75115 6.80608 3.91878C6.72515 4.05146 6.73465 4.14415 6.84004 4.24953C6.9232 4.33267 6.95075 4.34093 7.14496 4.34102C7.60314 4.34121 8.17269 4.44356 8.63472 4.60875C9.01922 4.74625 8.90501 4.82358 10.156 3.57854C10.7674 2.97002 11.3272 2.43531 11.3999 2.39025C12.0072 2.01435 12.8167 2.08971 13.3426 2.57111C13.9051 3.086 14.013 3.98902 13.5882 4.62542C13.4463 4.83796 9.90923 8.36852 9.72234 8.48416C9.15101 8.83767 8.40768 8.79783 7.8831 8.38557C7.32437 7.94651 6.97039 7.87061 6.51058 8.09132C6.28144 8.20132 6.11991 8.36746 6.01168 8.60449C5.93659 8.76884 5.92955 8.81465 5.94194 9.0579C5.95911 9.39471 6.05208 9.59377 6.30668 9.83881C6.79241 10.3063 7.43699 10.6411 8.12672 10.7842C8.41033 10.843 8.51644 10.8495 8.93776 10.8339C9.80327 10.8019 10.3199 10.6437 10.9705 10.2115C11.3044 9.98968 15.1499 6.1442 15.3595 5.8225C16.1147 4.66332 16.2072 3.27931 15.6097 2.07689C15.0665 0.98357 14.0211 0.221271 12.8158 0.0395932C12.4591 -0.0141911 12.0498 -0.0131279 11.6936 0.04247ZM6.45457 5.20226C5.95576 5.29622 5.47703 5.49341 5.00212 5.80054C4.76331 5.95499 0.985914 9.71591 0.73798 10.0461C0.517129 10.3402 0.241049 10.8917 0.150137 11.2203C-0.0981094 12.1179 -0.0386277 12.9736 0.329489 13.8001C0.679718 14.5865 1.41361 15.3209 2.19838 15.6704C3.19493 16.1142 4.29134 16.1097 5.29787 15.6577C5.82623 15.4205 6.00677 15.2636 7.68345 13.5851C9.24183 12.0249 9.25915 12.0062 9.23932 11.9031C9.20227 11.7103 9.11777 11.6705 8.69942 11.6487C8.22238 11.6239 7.85996 11.559 7.43914 11.423C7.25391 11.3631 7.06928 11.3141 7.0289 11.3141C6.97421 11.3141 6.6682 11.5998 5.82785 12.4354C5.15176 13.1078 4.64032 13.5913 4.55056 13.6429C4.2995 13.7876 4.04312 13.8542 3.73077 13.8561C3.27824 13.8588 2.91757 13.712 2.60202 13.3965C2.285 13.0795 2.14265 12.7307 2.14137 12.2679C2.14046 11.9304 2.21967 11.6603 2.39996 11.3864C2.5594 11.1441 6.11885 7.60038 6.31081 7.49284C6.38821 7.44947 6.54773 7.38233 6.66532 7.34368C6.84699 7.28399 6.92692 7.27552 7.19696 7.28743C7.65953 7.30785 7.79988 7.36908 8.34441 7.788C8.57643 7.96652 8.72216 8.01442 9.03158 8.01396C9.47 8.01327 9.84893 7.75601 9.99951 7.35688C10.0958 7.10166 10.0795 6.7676 9.95867 6.52066C9.72875 6.05077 8.84513 5.4694 8.04003 5.25839C7.64899 5.15585 6.85086 5.12762 6.45457 5.20226Z" fill="currentColor"/>
</svg>
