<svg width="100%" height="100%" viewBox="0 0 16 16" fill="none" xmlns="http://www.w3.org/2000/svg">
<path fill-rule="evenodd" clip-rule="evenodd" d="M6.97137 0.0520836C4.56724 0.366822 2.42495 1.76922 1.14758 3.86452C0.103816 5.57663 -0.249864 7.69804 0.17694 9.68615C0.499598 11.1891 1.24219 12.5443 2.35051 13.653C3.26628 14.5692 4.30659 15.2114 5.52191 15.6109C6.35441 15.8847 7.12442 16 8.1188 16H8.79292V15.211V14.422L8.35162 14.4216C7.42297 14.421 6.62442 14.3015 5.92205 14.0582C3.70221 13.289 2.10248 11.4155 1.69092 9.103C1.57915 8.47495 1.57915 7.5195 1.69092 6.89145C2.37286 3.05962 6.2636 0.709476 9.96389 1.89426C12.2299 2.61985 13.8959 4.53762 14.3221 6.91129C14.4009 7.35046 14.4058 7.48219 14.4068 9.19952C14.4077 10.8976 14.4029 11.0358 14.336 11.228C14.237 11.5127 13.9206 11.8287 13.6375 11.9258C13.0023 12.1435 12.3232 11.8407 12.0983 11.2394C12.0272 11.0493 12.0229 10.9474 12.0226 9.47049C12.0224 8.60855 12.0058 7.75958 11.9857 7.58394C11.8837 6.69473 11.5136 5.89482 10.9058 5.25028C10.5622 4.88599 10.2326 4.64594 9.75064 4.4089C8.61309 3.84949 7.39532 3.84949 6.25778 4.4089C5.39395 4.83369 4.78973 5.44813 4.3778 6.32066C3.86018 7.41712 3.87426 8.63932 4.41723 9.74431C4.84186 10.6085 5.45607 11.2129 6.32827 11.625C7.57778 12.2153 9.03712 12.1028 10.1888 11.3273L10.4391 11.1587L10.5017 11.4401C10.6778 12.2319 11.2515 12.9471 12.0074 13.3171C12.4635 13.5404 12.7895 13.6064 13.3374 13.5865C14.0772 13.5595 14.6172 13.323 15.1612 12.7876C15.5064 12.4479 15.7223 12.1092 15.8797 11.6605L15.9852 11.3599L15.9973 9.46252C16.0055 8.18343 15.995 7.43136 15.9652 7.15464C15.7665 5.30946 14.9757 3.65991 13.6579 2.34129C12.3503 1.03297 10.7029 0.235847 8.88681 0.0328468C8.43007 -0.0182131 7.43164 -0.00818143 6.97137 0.0520836ZM8.51124 5.64895C9.40409 5.83584 10.1648 6.59681 10.3516 7.49001C10.7087 9.19734 9.20387 10.7027 7.49718 10.3455C6.81521 10.2027 6.17508 9.70749 5.86861 9.08553C5.51358 8.36509 5.51358 7.62936 5.86861 6.90892C6.34108 5.95009 7.44205 5.42518 8.51124 5.64895Z" fill="currentColor"/>
</svg>
