<svg width="100%" height="100%" viewBox="0 0 27 22" fill="none" xmlns="http://www.w3.org/2000/svg">
<path fill-rule="evenodd" clip-rule="evenodd" d="M8.66915 4.71471C9.18592 4.30693 9.67838 4.08574 10.2124 4.02154C10.3605 4.00375 10.5366 3.99527 10.6038 4.00269C10.671 4.01016 10.8613 4.02756 11.0265 4.04139C11.3791 4.07094 11.7673 4.21169 12.044 4.41023C12.1526 4.48817 12.3957 4.74156 12.5842 4.97331C12.962 5.43787 13.1541 5.56319 13.488 5.56319C13.822 5.56319 14.014 5.43782 14.3919 4.97335C15.0019 4.2235 15.4276 4.02023 16.4002 4.01435C17.8252 4.00577 18.9342 4.94496 19.9649 7.03345C20.6392 8.3998 21.3063 11.4766 21.6757 13.3596C21.7199 13.585 21.767 13.8073 21.7805 13.8537C21.8033 13.9321 21.9322 13.938 23.5951 13.938C25.2852 13.938 25.3964 13.9434 25.5871 14.0344C25.72 14.0979 25.8279 14.199 25.9026 14.3301C26.0052 14.51 26.0134 14.5697 25.9875 14.9447C25.855 16.8657 24.4957 18.4394 22.5664 18.9058C22.1718 19.0011 22.0234 19.0026 13.6179 18.999C5.3461 18.9955 4.73482 18.9987 4.17891 18.8248C4.12277 18.8073 4.0672 18.7879 4.00435 18.7665C2.25589 18.1721 1.00844 16.5341 1.00008 14.8216C0.997733 14.3418 1.04559 14.2261 1.33445 14.0133C1.46385 13.918 1.53987 13.9134 3.19384 13.9002L4.91836 13.8864L5.12279 13.0658C6.03323 8.41084 7.29226 5.80106 8.66915 4.71471ZM11.5242 5.99323C11.3388 5.76177 11.1493 5.55625 11.1032 5.53653C10.9543 5.47291 10.5352 5.43936 10.3269 5.47445C9.9997 5.52949 9.72223 5.69805 9.35657 6.06385C8.66671 6.75394 8.05032 7.86602 7.42176 9.5545C7.05214 10.5474 6.40299 13.8128 6.46938 13.8782C6.48326 13.8919 9.59943 13.9141 13.3943 13.9276L20.2939 13.9521L20.2604 13.7884C19.8136 11.61 19.1229 8.49967 18.4636 7.29856C17.9995 6.45316 17.3856 5.75512 16.9322 5.5574C16.6596 5.43849 16.1051 5.4262 15.893 5.53436C15.8177 5.57278 15.6252 5.77252 15.4654 5.97819C15.1372 6.40077 14.742 6.71133 14.3301 6.87039C13.9627 7.01225 13.1633 7.02791 12.7488 6.90134C12.308 6.76676 11.9037 6.467 11.5242 5.99323ZM24.4122 15.4925L24.4449 15.3841H18.7057C15.5491 15.3841 10.6174 15.3696 7.7463 15.352L2.52607 15.3199L2.56068 15.4363C2.79025 16.2088 3.41319 16.915 4.17975 17.2717C4.24751 17.3033 4.3029 17.3312 4.35967 17.356C4.82418 17.5587 5.3813 17.5493 13.5607 17.5554C21.6418 17.5614 22.2273 17.5805 22.697 17.3567C22.772 17.321 22.844 17.2791 22.943 17.23C23.4357 16.9855 23.9752 16.4442 24.2062 15.9625C24.3015 15.7636 24.3942 15.5522 24.4122 15.4925Z" fill="currentColor" stroke="currentColor" stroke-width="0.8"/>
</svg>
