<svg width="100%" height="100%" viewBox="0 0 22 22" fill="none" xmlns="http://www.w3.org/2000/svg">
<path fill-rule="evenodd" clip-rule="evenodd" d="M11.2746 2.02475C7.54232 2.32811 4.4381 4.78729 3.28791 8.35194C3.20818 8.59901 3.1383 8.80585 3.13263 8.81155C3.12697 8.81725 2.97607 8.60112 2.79728 8.33124C2.61849 8.06131 2.41521 7.79045 2.34552 7.72928C1.95837 7.38936 1.33185 7.50354 1.09208 7.95768C0.985131 8.16026 0.968217 8.52647 1.05783 8.69967C1.21033 8.99463 3.03677 11.708 3.14287 11.7973C3.31162 11.9393 3.51115 11.9968 3.76236 11.976C3.9658 11.9591 4.04306 11.9131 5.42537 10.9852C6.22267 10.45 6.92525 9.97034 6.9867 9.91928C7.26314 9.68956 7.34142 9.24897 7.16631 8.90866C6.9956 8.57694 6.53892 8.38874 6.1867 8.50499C6.11185 8.52967 5.75505 8.75116 5.3938 8.99721C5.03255 9.24323 4.73162 9.43916 4.72509 9.4326C4.70279 9.4103 4.86716 8.86487 4.9883 8.55924C5.51447 7.23186 6.35795 6.12784 7.49033 5.28417C10.4303 3.09389 14.557 3.39549 17.1519 5.99034C18.5542 7.39268 19.32 9.24776 19.32 11.2426C19.32 12.4936 19.0639 13.537 18.4764 14.6801C18.1464 15.3221 17.7952 15.8101 17.2759 16.3482C16.5721 17.0774 16.0167 17.4856 15.1613 17.902C12.6201 19.1392 9.71131 18.8502 7.43427 17.1341C6.99654 16.8042 6.34838 16.1474 5.99013 15.6708C5.65177 15.2206 5.48634 15.1092 5.15877 15.1106C4.54201 15.1133 4.13662 15.7486 4.40939 16.2849C4.64658 16.7512 5.54193 17.7471 6.21439 18.2925C7.2249 19.1121 8.46744 19.7369 9.70908 20.0498C11.1727 20.4186 12.6832 20.4187 14.1476 20.0499C16.3237 19.502 18.2221 18.1627 19.4745 16.2918C20.1917 15.2203 20.7019 13.8975 20.9099 12.5693C21.0083 11.9417 21.0086 10.469 20.9105 9.83631C20.4676 6.98014 18.8024 4.55561 16.3256 3.161C14.8199 2.31319 12.9371 1.88963 11.2746 2.02475ZM11.4788 6.20803C11.2765 6.30819 11.0912 6.52338 11.0381 6.71999C11.0132 6.81194 11.0028 7.70147 11.0097 9.14186C11.0196 11.1837 11.0274 11.4304 11.086 11.5355C11.1953 11.7316 13.7678 14.3232 13.9457 14.4164C14.3231 14.6142 14.8345 14.4768 15.0402 14.1224C15.1765 13.8876 15.1996 13.7099 15.1265 13.4584C15.0683 13.258 14.9962 13.176 13.8744 12.0349L12.6842 10.824L12.6728 8.77432L12.6613 6.7246L12.5436 6.53413C12.3187 6.17049 11.8467 6.02596 11.4788 6.20803Z" fill="currentColor"/>
</svg>
