<svg width="100%" height="100%" viewBox="0 0 22 22" fill="none" xmlns="http://www.w3.org/2000/svg">
<path fill-rule="evenodd" clip-rule="evenodd" d="M10.5399 1.3989C8.55816 1.60323 6.91007 2.99846 6.33528 4.95843C6.17386 5.50882 6.14626 5.7327 6.13172 6.60952C6.11745 7.46769 6.13871 7.81326 6.23429 8.27785C6.43595 9.25791 6.89908 10.1164 7.60726 10.8229C7.91945 11.1343 8.15925 11.3294 8.45723 11.5145C9.30526 12.0411 10.1581 12.2715 11.1476 12.2415C11.6438 12.2264 11.9251 12.1833 12.355 12.0563C13.4768 11.7252 14.3913 11.0328 15.0685 10.0021C15.4098 9.48282 15.6786 8.80987 15.798 8.17618C15.9051 7.60751 15.9234 6.33264 15.8338 5.68625C15.717 4.8442 15.3753 4.01613 14.8591 3.32401C14.6641 3.06253 14.2102 2.59879 13.957 2.40243C12.9685 1.63564 11.7408 1.27509 10.5399 1.3989ZM10.0686 14.8167C7.32521 15.0852 4.06802 16.4242 2.6482 17.8672C2.16784 18.3555 1.98708 18.8425 2.09075 19.3692C2.14031 19.621 2.1963 19.7608 2.32705 19.959C2.52875 20.2647 2.84268 20.4866 3.21314 20.5852C3.35086 20.6219 4.10282 20.6257 11.0024 20.6249C17.3859 20.6242 18.6616 20.6183 18.7756 20.589C19.2808 20.4594 19.5908 20.1957 19.817 19.7033C20.0163 19.2694 19.9641 18.6686 19.6916 18.2609C19.4767 17.9393 19.0047 17.5068 18.4531 17.1262C17.076 16.1758 15.0795 15.3742 13.1197 14.9848C12.1649 14.7951 10.9648 14.729 10.0686 14.8167Z" fill="currentColor"/>
</svg>
