<svg width="100%" height="100%" viewBox="0 0 22 22" fill="none" xmlns="http://www.w3.org/2000/svg">
    <path fill-rule="evenodd" clip-rule="evenodd" d="M11.825 20.25C16.8645 20.25 20.95 16.1646 20.95 11.125C20.95 6.0854 16.8645 2 11.825 2C6.78535 2 2.69995 6.0854 2.69995 11.125C2.69995 16.1646 6.78535 20.25 11.825 20.25ZM11.4787 6.20803C11.2764 6.30819 11.0912 6.52338 11.038 6.71998C11.0132 6.81194 11.0027 7.70147 11.0097 9.14186C11.0195 11.1837 11.0274 11.4304 11.086 11.5355C11.1952 11.7316 13.7678 14.3232 13.9457 14.4164C14.323 14.6142 14.8344 14.4768 15.0401 14.1224C15.1765 13.8876 15.1996 13.7099 15.1264 13.4584C15.0682 13.258 14.9961 13.176 13.8744 12.0349L12.6841 10.824L12.6727 8.77432L12.6613 6.72459L12.5435 6.53412C12.3186 6.17049 11.8466 6.02596 11.4787 6.20803Z" fill="currentColor"/>
</svg>
