<svg width="100%" height="100%" viewBox="0 0 25 20" fill="none" xmlns="http://www.w3.org/2000/svg">
<path fill-rule="evenodd" clip-rule="evenodd" d="M9.21235 3.02154C8.67838 3.08574 8.18592 3.30693 7.66915 3.71471C6.34907 4.75623 5.13733 7.19806 4.23725 11.5H20.5025C20.118 9.64289 19.5441 7.20714 18.9649 6.03345C17.9342 3.94496 16.8252 3.00577 15.4002 3.01435C14.4276 3.02023 14.0019 3.2235 13.3919 3.97335C13.014 4.43782 12.822 4.56319 12.488 4.56319C12.1541 4.56319 11.962 4.43787 11.5842 3.97331C11.3957 3.74156 11.1526 3.48817 11.044 3.41023C10.7673 3.21169 10.3791 3.07094 10.0265 3.04139C9.86125 3.02756 9.67104 3.01016 9.60382 3.00269C9.53661 2.99527 9.36048 3.00375 9.21235 3.02154ZM20.8401 12.9H3V12.8937L2.19384 12.9002C0.539868 12.9134 0.463852 12.918 0.334453 13.0133C0.0455919 13.2261 -0.00226651 13.3418 7.99665e-05 13.8216C0.0084393 15.5341 1.25589 17.1721 3.00435 17.7665C3.01664 17.7707 3.02866 17.7748 3.04045 17.7789C3.08896 17.7954 3.13375 17.8107 3.17891 17.8248C3.72392 17.9953 4.32216 17.9955 12.1404 17.9988L12.6179 17.999C21.0234 18.0026 21.1718 18.0011 21.5664 17.9058C23.4957 17.4394 24.855 15.8657 24.9875 13.9447C25.0134 13.5697 25.0052 13.51 24.9026 13.3301C24.8279 13.199 24.72 13.0979 24.5871 13.0344C24.3964 12.9434 24.2852 12.938 22.5951 12.938C21.3487 12.938 20.9641 12.9347 20.8401 12.9Z" fill="currentColor"/>
</svg>
