<svg width="100%" height="100%" viewBox="0 0 20 20" fill="currentColor" xmlns="http://www.w3.org/2000/svg">
<path fill-rule="evenodd" clip-rule="evenodd" d="M9.48455 1.01551C7.31323 1.14874 5.3039 2.03385 3.7564 3.53867C2.88325 4.38781 2.2646 5.26279 1.7972 6.30968C0.965737 8.1721 0.784256 10.2303 1.27857 12.192C1.45702 12.9001 1.79728 13.7673 2.11947 14.335L2.25996 14.5826L1.64748 16.2719C1.3106 17.201 1.02392 18.0148 1.01042 18.0805C0.938353 18.4308 1.25058 18.8837 1.62635 18.9738C1.75502 19.0047 1.86743 19.0082 1.96936 18.9846C2.05278 18.9653 2.86312 18.6787 3.77013 18.3478C5.15701 17.8417 5.431 17.7532 5.49297 17.7909C5.85283 18.01 6.57653 18.3345 7.12592 18.523C9.96368 19.497 13.1729 18.9502 15.5633 17.0855C15.9159 16.8105 16.5955 16.1431 16.937 15.7367C18.7556 13.5717 19.4312 10.5709 18.7255 7.7921C18.401 6.51456 17.756 5.24411 16.937 4.2691C16.5957 3.86287 15.9161 3.19553 15.5633 2.92019C13.854 1.58616 11.6155 0.88476 9.48455 1.01551Z" fill="currentColor"/>
</svg>
