<svg width="100%" height="100%" viewBox="0 0 16 16" fill="none" xmlns="http://www.w3.org/2000/svg">
<path fill-rule="evenodd" clip-rule="evenodd" d="M11 1.5H5C4.72386 1.5 4.5 1.72386 4.5 2V11H11.5V2C11.5 1.72386 11.2761 1.5 11 1.5ZM5 0C3.89543 0 3 0.895431 3 2V14C3 15.1046 3.89543 16 5 16H11C12.1046 16 13 15.1046 13 14V2C13 0.895431 12.1046 0 11 0H5ZM8 15C8.82843 15 9.5 14.3284 9.5 13.5C9.5 12.6716 8.82843 12 8 12C7.17157 12 6.5 12.6716 6.5 13.5C6.5 14.3284 7.17157 15 8 15Z" fill="currentColor"/>
</svg>
