<svg xmlns="http://www.w3.org/2000/svg" width="100%" height="100%" viewBox="0 0 12 12" fill="#000">
    <path d="M11.2499 6.46083C11.1582 7.45379 10.7855 8.40007 10.1756 9.18896C9.56565 9.97785 8.74365 10.5767 7.80577 10.9155C6.86789 11.2542 5.85293 11.3189 4.87965 11.1019C3.90637 10.8849 3.01502 10.3952 2.30991 9.69004C1.60479 8.98492 1.11507 8.09357 0.898055 7.12029C0.681036 6.14701 0.745693 5.13205 1.08446 4.19417C1.42323 3.2563 2.02209 2.4343 2.81098 1.82436C3.59987 1.21442 4.54616 0.841762 5.53911 0.75C4.95777 1.53649 4.67802 2.50551 4.75075 3.48083C4.82348 4.45614 5.24386 5.37295 5.93543 6.06452C6.62699 6.75608 7.54381 7.17646 8.51912 7.24919C9.49443 7.32192 10.4635 7.04218 11.2499 6.46083Z" fill="#000"/>
</svg>