<svg xmlns="http://www.w3.org/2000/svg" width="24" height="24" viewBox="0 0 24 24" fill="none">
    <path opacity="0.44" d="M10.5 7L15.5 5.5" stroke="currentColor" />
    <path opacity="0.44" d="M10.4956 10.0005L14.9927 12.0004" stroke="currentColor" />
    <path opacity="0.44" d="M8.49626 11.5006L11 15.5005" stroke="currentColor" />
    <path opacity="0.44" d="M5.5 12L4.5 15.5" stroke="currentColor" />
    <path
        d="M6.4679 11.121C5.8079 11.121 5.25424 11.0147 4.8069 10.802C4.35957 10.5893 4.01857 10.3107 3.7839 9.966C3.55657 9.62133 3.43557 9.25467 3.4209 8.866C3.4209 8.8 3.4429 8.745 3.4869 8.701C3.5309 8.657 3.5859 8.635 3.6519 8.635H4.8949C4.9829 8.635 5.05257 8.657 5.1039 8.701C5.16257 8.73767 5.20657 8.789 5.2359 8.855C5.30924 9.053 5.40457 9.21433 5.5219 9.339C5.64657 9.46367 5.78957 9.55533 5.9509 9.614C6.11224 9.67267 6.28457 9.702 6.4679 9.702C6.70257 9.702 6.9189 9.65433 7.1169 9.559C7.3149 9.45633 7.47257 9.30967 7.5899 9.119C7.70724 8.92833 7.7659 8.69367 7.7659 8.415C7.7659 8.173 7.7109 7.96033 7.6009 7.777C7.4909 7.59367 7.3369 7.45067 7.1389 7.348C6.9409 7.24533 6.71724 7.194 6.4679 7.194C6.27724 7.194 6.11957 7.216 5.9949 7.26C5.87757 7.304 5.77857 7.359 5.6979 7.425C5.61724 7.48367 5.5439 7.53867 5.4779 7.59C5.4119 7.634 5.33857 7.656 5.2579 7.656H4.0369C3.9709 7.656 3.91224 7.634 3.8609 7.59C3.8169 7.53867 3.7949 7.48 3.7949 7.414L4.1799 3.619C4.19457 3.51633 4.23124 3.43933 4.2899 3.388C4.3559 3.32933 4.4329 3.3 4.5209 3.3H8.7889C8.86957 3.3 8.93557 3.32567 8.9869 3.377C9.03824 3.42833 9.0639 3.49433 9.0639 3.575V4.455C9.0639 4.52833 9.03824 4.59067 8.9869 4.642C8.93557 4.69333 8.86957 4.719 8.7889 4.719H5.6099L5.4449 6.336C5.59157 6.24067 5.77124 6.15633 5.9839 6.083C6.2039 6.00233 6.50824 5.962 6.8969 5.962C7.2489 5.962 7.58257 6.02067 7.8979 6.138C8.22057 6.248 8.50657 6.413 8.7559 6.633C9.00524 6.853 9.19957 7.117 9.3389 7.425C9.48557 7.72567 9.5589 8.07033 9.5589 8.459C9.5589 8.987 9.43424 9.45267 9.1849 9.856C8.93557 10.252 8.5799 10.5637 8.1179 10.791C7.6559 11.011 7.1059 11.121 6.4679 11.121Z"
        fill="currentColor" />
    <path
        d="M3.2642 21C3.21753 21 3.17553 20.9837 3.1382 20.951C3.10553 20.9183 3.0892 20.8763 3.0892 20.825V17.346L2.0812 18.123C2.0392 18.1557 1.99486 18.1673 1.9482 18.158C1.9062 18.1487 1.86886 18.123 1.8362 18.081L1.4862 17.626C1.4582 17.584 1.44653 17.5397 1.4512 17.493C1.46053 17.4463 1.4862 17.409 1.5282 17.381L3.1242 16.149C3.1522 16.1303 3.17786 16.1187 3.2012 16.114C3.2292 16.1047 3.25953 16.1 3.2922 16.1H4.0342C4.08086 16.1 4.12053 16.1163 4.1532 16.149C4.18586 16.1817 4.2022 16.2237 4.2022 16.275V20.825C4.2022 20.8763 4.18586 20.9183 4.1532 20.951C4.12053 20.9837 4.08086 21 4.0342 21H3.2642Z"
        fill="currentColor" />
    <path
        d="M10.0088 22C9.95018 22 9.90218 21.9813 9.86484 21.944C9.82751 21.9067 9.80884 21.8587 9.80884 21.8V21.32C9.80884 21.2773 9.81951 21.2213 9.84084 21.152C9.86751 21.0773 9.92351 21.0053 10.0088 20.936L11.0648 19.888C11.4542 19.5893 11.7688 19.336 12.0088 19.128C12.2542 18.92 12.4355 18.7307 12.5528 18.56C12.6702 18.3893 12.7288 18.224 12.7288 18.064C12.7288 17.856 12.6702 17.6853 12.5528 17.552C12.4408 17.4133 12.2568 17.344 12.0008 17.344C11.8302 17.344 11.6862 17.3813 11.5688 17.456C11.4568 17.5253 11.3688 17.6187 11.3048 17.736C11.2408 17.8533 11.1982 17.9813 11.1768 18.12C11.1608 18.1893 11.1262 18.2373 11.0728 18.264C11.0248 18.2907 10.9742 18.304 10.9208 18.304H10.0728C10.0195 18.304 9.97684 18.288 9.94484 18.256C9.91284 18.2187 9.89684 18.1787 9.89684 18.136C9.90218 17.8907 9.95284 17.6587 10.0488 17.44C10.1502 17.2213 10.2915 17.0267 10.4728 16.856C10.6542 16.6853 10.8728 16.552 11.1288 16.456C11.3848 16.3547 11.6755 16.304 12.0008 16.304C12.4488 16.304 12.8248 16.3787 13.1288 16.528C13.4328 16.672 13.6622 16.872 13.8168 17.128C13.9715 17.384 14.0488 17.68 14.0488 18.016C14.0488 18.272 13.9955 18.5093 13.8888 18.728C13.7875 18.9467 13.6382 19.1573 13.4408 19.36C13.2435 19.5573 13.0088 19.7627 12.7368 19.976L11.7928 20.92H13.9688C14.0275 20.92 14.0755 20.9387 14.1128 20.976C14.1502 21.0133 14.1688 21.0613 14.1688 21.12V21.8C14.1688 21.8587 14.1502 21.9067 14.1128 21.944C14.0755 21.9813 14.0275 22 13.9688 22H10.0088Z"
        fill="currentColor" />
    <path
        d="M17.9698 16.08C17.5751 16.08 17.2364 16.032 16.9538 15.936C16.6711 15.84 16.4391 15.7173 16.2578 15.568C16.0764 15.4187 15.9404 15.256 15.8498 15.08C15.7591 14.8987 15.7111 14.7253 15.7058 14.56C15.7058 14.512 15.7218 14.472 15.7538 14.44C15.7858 14.408 15.8258 14.392 15.8738 14.392H16.7538C16.8124 14.392 16.8604 14.4053 16.8978 14.432C16.9351 14.4533 16.9698 14.4933 17.0018 14.552C17.0444 14.6747 17.1138 14.7733 17.2098 14.848C17.3058 14.9227 17.4178 14.976 17.5458 15.008C17.6791 15.0347 17.8204 15.048 17.9698 15.048C18.2684 15.048 18.5031 14.9787 18.6738 14.84C18.8444 14.7013 18.9298 14.5067 18.9298 14.256C18.9298 14 18.8498 13.816 18.6898 13.704C18.5298 13.592 18.3031 13.536 18.0098 13.536H17.1538C17.1004 13.536 17.0551 13.5173 17.0178 13.48C16.9804 13.4427 16.9618 13.3973 16.9618 13.344V12.952C16.9618 12.888 16.9724 12.8347 16.9938 12.792C17.0204 12.7493 17.0471 12.7173 17.0738 12.696L18.4498 11.432H16.1938C16.1351 11.432 16.0871 11.4133 16.0498 11.376C16.0124 11.3387 15.9938 11.2933 15.9938 11.24V10.6C15.9938 10.5413 16.0124 10.4933 16.0498 10.456C16.0871 10.4187 16.1351 10.4 16.1938 10.4H19.7458C19.8044 10.4 19.8524 10.4187 19.8898 10.456C19.9271 10.4933 19.9458 10.5413 19.9458 10.6V11.176C19.9458 11.2347 19.9351 11.2853 19.9138 11.328C19.8924 11.3653 19.8658 11.3947 19.8338 11.416L18.5298 12.704L18.6098 12.712C18.9244 12.744 19.2044 12.8213 19.4498 12.944C19.6951 13.0667 19.8871 13.2427 20.0258 13.472C20.1698 13.696 20.2418 13.9813 20.2418 14.328C20.2418 14.6907 20.1431 15.0027 19.9458 15.264C19.7484 15.5253 19.4791 15.728 19.1378 15.872C18.7964 16.0107 18.4071 16.08 17.9698 16.08Z"
        fill="currentColor" />
    <path
        d="M20.0265 7C19.9665 7 19.9155 6.979 19.8735 6.937C19.8315 6.895 19.8105 6.841 19.8105 6.775V5.695H16.9755C16.9155 5.695 16.8645 5.674 16.8225 5.632C16.7805 5.59 16.7595 5.536 16.7595 5.47V4.741C16.7595 4.699 16.7685 4.654 16.7865 4.606C16.8045 4.558 16.8285 4.513 16.8585 4.471L19.4955 0.853C19.5735 0.751 19.6845 0.7 19.8285 0.7H20.9715C21.0315 0.7 21.0825 0.721 21.1245 0.763C21.1665 0.805 21.1875 0.859 21.1875 0.925V4.498H21.9885C22.0605 4.498 22.1145 4.519 22.1505 4.561C22.1925 4.603 22.2135 4.654 22.2135 4.714V5.47C22.2135 5.536 22.1925 5.59 22.1505 5.632C22.1085 5.674 22.0575 5.695 21.9975 5.695H21.1875V6.775C21.1875 6.841 21.1665 6.895 21.1245 6.937C21.0825 6.979 21.0315 7 20.9715 7H20.0265ZM18.1545 4.543H19.8375V2.176L18.1545 4.543Z"
        fill="currentColor" />
</svg>