<svg width="100%" height="100%" viewBox="0 0 16 16" fill="none" xmlns="http://www.w3.org/2000/svg">
<path fill-rule="evenodd" clip-rule="evenodd" d="M6.84043 0.869319L6.82609 1.73858L6.39957 1.92293C5.72809 2.21313 5.40377 2.44784 4.84348 3.04894C4.26685 3.66756 3.97504 4.15453 3.75388 4.86747C3.53323 5.57885 3.51383 4.8808 3.51346 7.61671L3.51304 10.219L2.75652 11.0288L2 11.8386V12.217V12.5954H8H14V12.217V11.8386L13.2435 11.0288L12.487 10.219L12.4865 7.61671C12.4862 4.8808 12.2872 5 12.2461 4.86747C12.025 4.15453 11.7331 3.66756 11.1565 3.04894C10.5962 2.44784 10.2719 2.21313 9.60043 1.92293L9.17391 1.73858L9.15957 0.869319L9.14517 0H8H6.85483L6.84043 0.869319Z" fill="currentColor"/>
<path d="M8 15.7C7.03097 15.7 6.21106 14.9738 6.04441 13.968L6 13.7H8H10L9.95559 13.968C9.78894 14.9738 8.96903 15.7 8 15.7Z" fill="currentColor"/>
</svg>
