<svg width="100%" height="100%" viewBox="0 0 20 20" fill="none" xmlns="http://www.w3.org/2000/svg">
<path d="M0.563397 3.4284L0.467205 3.40106C0.666978 2.69807 1.25912 2.15062 2.00823 1.966L0.563397 3.4284ZM0.563397 3.4284L0.467205 3.40106C0.457008 3.43695 0.450532 3.49813 0.445198 3.57586C0.439598 3.65747 0.434728 3.76794 0.430463 3.90953C0.421928 4.1929 0.41572 4.60442 0.411227 5.16635C0.40224 6.2904 0.400098 8.01908 0.400098 10.5341C0.400098 10.83 0.400071 11.1116 0.400045 11.3794C0.399792 13.9883 0.399665 15.2961 0.426145 15.9943C0.440694 16.3779 0.463425 16.5868 0.501777 16.7289C0.534347 16.8496 0.57916 16.9229 0.627586 17.0021C0.638009 17.0191 0.6486 17.0364 0.659272 17.0546C0.748932 17.2068 0.891448 17.3685 1.04896 17.5093C1.20662 17.6503 1.38529 17.7759 1.55099 17.8526C1.57811 17.8651 1.60343 17.8774 1.62804 17.8894C1.71986 17.934 1.80167 17.9738 1.92945 18.0031C2.08863 18.0397 2.32124 18.0616 2.75833 18.0756C3.53766 18.1004 4.99204 18.1003 7.89554 18.0999C8.25702 18.0999 8.64095 18.0998 9.04883 18.0998C9.45173 18.0998 9.83133 18.0999 10.1891 18.0999C13.1089 18.1003 14.5715 18.1004 15.3529 18.0752C15.7902 18.0611 16.0223 18.0389 16.1795 18.0019C16.3067 17.9718 16.3863 17.931 16.4746 17.8856C16.4978 17.8737 16.5215 17.8615 16.5469 17.8491L16.5051 17.7636L16.5469 17.8491C16.7035 17.7726 16.8868 17.634 17.0464 17.485C17.2053 17.3365 17.3512 17.168 17.4258 17.0267C17.4355 17.0084 17.4511 16.9697 17.4699 16.9214C17.4897 16.8702 17.5158 16.8009 17.5472 16.7158C17.61 16.5457 17.6948 16.3113 17.7954 16.0297C17.9966 15.4664 18.2614 14.7136 18.5414 13.9071L18.4469 13.8743M0.563397 3.4284L18.4469 13.8743M18.4469 13.8743L18.5414 13.9071C19.0952 12.3114 19.3782 11.4928 19.5066 11.0134C19.5709 10.773 19.5984 10.6109 19.5999 10.475C19.6015 10.3374 19.5761 10.232 19.5449 10.1103C19.4486 9.73538 19.2962 9.47549 19.0073 9.18943L18.9369 9.26049L19.0072 9.18942C18.6148 8.80098 18.0323 8.56762 17.4614 8.56762H17.3157L17.3151 6.89128V6.89123C17.3144 6.11642 17.2676 5.81042 17.0714 5.45543L16.9838 5.50381L17.0714 5.45542C16.9886 5.30575 16.8482 5.13986 16.6942 4.99468C16.5401 4.84939 16.3649 4.71782 16.2079 4.64117C16.0862 4.58168 15.9863 4.5331 15.8655 4.49662C15.7442 4.45997 15.6057 4.43653 15.4036 4.42108C15.0025 4.39045 14.3318 4.39021 13.0119 4.39021C12.0111 4.39021 11.4052 4.38785 11.0347 4.37969C10.8493 4.3756 10.7248 4.37009 10.6399 4.36291C10.5526 4.35552 10.5163 4.34691 10.5012 4.34098L10.5012 4.34097C10.5015 4.34111 10.5017 4.34118 10.5017 4.34117C10.5017 4.34115 10.4987 4.33976 10.4913 4.33562C10.4831 4.3311 10.4723 4.32473 10.4586 4.31636C10.4313 4.29967 10.3949 4.2764 10.3501 4.24703C10.2606 4.18839 10.14 4.10687 9.99655 4.00825C9.70983 3.81109 9.33367 3.54662 8.9374 3.26252L8.88728 3.33242L8.9374 3.26251C7.48514 2.22137 7.17965 2.03393 6.72152 1.94636L6.70275 2.04459L6.72152 1.94636C6.6674 1.93602 6.55692 1.92856 6.4139 1.92257C6.26757 1.91645 6.07884 1.91164 5.86243 1.90806C5.42948 1.9009 4.8837 1.89863 4.34041 1.90078C3.79713 1.90293 3.25577 1.90951 2.83167 1.92007C2.6197 1.92535 2.43646 1.93164 2.29669 1.9389C2.16201 1.9459 2.05616 1.95419 2.00824 1.966L18.4469 13.8743ZM9.11732 5.22102L9.11732 5.22101C8.44293 4.73087 7.81532 4.28293 7.34143 3.95189C7.10443 3.78632 6.90625 3.65026 6.76005 3.55286C6.68688 3.50412 6.62729 3.46543 6.58261 3.43769C6.56024 3.4238 6.54221 3.41303 6.52844 3.40526C6.52156 3.40138 6.51618 3.3985 6.51216 3.39647C6.50944 3.39509 6.50788 3.39438 6.50727 3.39411C6.50721 3.39412 6.50675 3.39403 6.50585 3.39386C6.50135 3.39298 6.48575 3.38993 6.45271 3.38638C6.41536 3.38237 6.36493 3.37852 6.30258 3.3749C6.1781 3.36768 6.01013 3.36162 5.8126 3.35675C5.41775 3.34702 4.90777 3.34215 4.39768 3.34214C3.88759 3.34214 3.37813 3.34701 2.98432 3.35672C2.7873 3.36159 2.61999 3.36765 2.4963 3.37486C2.43434 3.37848 2.38437 3.38232 2.34752 3.38633C2.32905 3.38834 2.31491 3.39028 2.30474 3.39205C2.29795 3.39324 2.29465 3.39406 2.29382 3.39426C2.22676 3.4215 2.15241 3.47707 2.09063 3.5459C2.02882 3.61476 1.98953 3.68574 1.97809 3.73882L9.11732 5.22102ZM9.11732 5.22102C9.52171 5.51488 9.97943 5.73617 10.3212 5.79425C10.3632 5.80138 10.4632 5.80672 10.6011 5.81134C10.7428 5.81608 10.9332 5.82023 11.1627 5.82366C11.6217 5.83052 12.2385 5.83451 12.9379 5.83451C12.9989 5.83451 13.0584 5.8345 13.1164 5.8345C14.3145 5.83444 14.9048 5.8344 15.2217 5.86352C15.3877 5.87878 15.464 5.90116 15.51 5.92678C15.5516 5.9499 15.5749 5.97802 15.6245 6.03765C15.6287 6.04277 15.6331 6.04811 15.6378 6.0537L15.71 5.99356L15.6378 6.05371L15.7376 6.17347L15.7501 6.86945L15.7501 6.87052L15.7625 8.56762H10.2907C10.0397 8.56762 9.79948 8.5676 9.56965 8.56759C7.02243 8.56741 5.74572 8.56732 5.05594 8.59133C4.68063 8.60439 4.47184 8.62471 4.32428 8.65817C4.19785 8.68683 4.1166 8.72551 4.02396 8.76962C4.00624 8.77805 3.9881 8.78669 3.96915 8.79549L3.96915 8.79549C3.79693 8.87549 3.60984 9.01447 3.44707 9.1704C3.28441 9.32622 3.13875 9.50595 3.05434 9.67221M9.11732 5.22102L1.97721 12.7039L2.3524 11.6038C2.50881 11.1452 2.66549 10.6996 2.79198 10.3512C2.91705 10.0067 3.01555 9.7486 3.05434 9.67221M3.05434 9.67221L3.1435 9.71749L3.05433 9.67223C3.05434 9.67222 3.05434 9.67222 3.05434 9.67221ZM15.9288 16.6391L15.8783 16.5618C15.9087 16.5419 15.9455 16.5108 15.9794 16.4761C16.0139 16.4408 16.04 16.4074 16.0528 16.3847L16.0528 16.3846C16.0516 16.3868 16.0533 16.3837 16.0594 16.3689C16.0646 16.3562 16.0715 16.3388 16.0801 16.3164C16.0973 16.2718 16.1205 16.2095 16.1492 16.1314C16.2064 15.9751 16.285 15.7568 16.3791 15.4922C16.5672 14.963 16.8174 14.2497 17.0842 13.4799C17.4282 12.4874 17.6705 11.775 17.8268 11.295C17.905 11.0548 17.9613 10.8737 17.9981 10.7451C18.0164 10.6807 18.0296 10.6305 18.0381 10.5932C18.0424 10.5745 18.0452 10.5599 18.047 10.5488C18.0479 10.5433 18.0485 10.5391 18.0488 10.536C18.0491 10.5332 18.0491 10.5319 18.0491 10.5319V10.532C18.0491 10.3442 17.9075 10.1483 17.6939 10.0699C17.6698 10.0611 17.6189 10.05 17.4527 10.0412C17.2897 10.0326 17.0258 10.0265 16.5841 10.0222C15.7015 10.0137 14.1155 10.0127 11.2223 10.0134C8.63823 10.0141 7.04992 10.0168 6.09446 10.0247C5.61658 10.0286 5.29788 10.0338 5.09234 10.0406C4.98943 10.0441 4.9161 10.0478 4.86585 10.0519C4.84068 10.054 4.8225 10.0561 4.80992 10.058C4.80163 10.0592 4.79767 10.0601 4.79665 10.0604C4.6456 10.1216 4.51146 10.2756 4.41852 10.5371L4.41851 10.5371C4.37094 10.6709 3.89131 12.0575 3.35237 13.6191C2.81385 15.1796 2.35498 16.5073 2.33305 16.5683M15.9288 16.6391L2.21179 16.6272C2.24006 16.7642 2.97427 16.7555 9.14387 16.7462L15.7945 16.7361M15.9288 16.6391L15.8783 16.5618L15.7646 16.6361M15.9288 16.6391L15.7945 16.7361M2.33305 16.5683L2.23895 16.5344L2.33306 16.5683C2.33306 16.5683 2.33306 16.5683 2.33305 16.5683ZM2.33305 16.5683C2.33095 16.5741 2.32855 16.5803 2.32618 16.5861M2.32618 16.5861C2.31098 16.5825 2.30052 16.579 2.29359 16.5759C2.29078 16.5747 2.28966 16.574 2.28971 16.574C2.28981 16.574 2.29517 16.5773 2.30078 16.5857C2.31103 16.6009 2.31145 16.6165 2.31058 16.6234C2.31045 16.6245 2.31032 16.6251 2.31034 16.6251C2.31039 16.6251 2.31123 16.6219 2.31474 16.6134C2.31554 16.6115 2.31664 16.6089 2.31794 16.6058C2.32026 16.6004 2.3232 16.5935 2.32618 16.5861ZM2.32618 16.5861C2.35429 16.5929 2.39863 16.6004 2.46683 16.6073C2.56849 16.6175 2.71331 16.6256 2.91803 16.6319C3.66596 16.6548 5.18426 16.6524 8.22683 16.6476C8.51825 16.6471 8.82366 16.6467 9.14371 16.6462L15.7646 16.6361M15.7646 16.6361L15.7398 16.6524L15.7945 16.7361M15.7646 16.6361L15.7943 16.6361L15.7945 16.7361" fill="currentColor" stroke="currentColor" stroke-width="0.2"/>
</svg>
