<svg width="100%" height="100%" viewBox="0 0 14 14" fill="none" xmlns="http://www.w3.org/2000/svg">
<path fill-rule="evenodd" clip-rule="evenodd" d="M6.68987 0.0541338C6.39109 0.135893 0.108278 3.88126 0.0480253 4.01349C0.0202025 4.07455 0 4.40447 0 4.79771C0 5.41735 0.00801899 5.48671 0.0918418 5.59328C0.182222 5.70823 0.19219 5.71005 0.734247 5.71005H1.28481V8.56515V11.4202L1.04158 11.4708C0.560975 11.5706 0.149348 11.9751 0.0481139 12.4472C-0.0146645 12.74 -0.0139557 13.6518 0.0491772 13.7904C0.0762468 13.8498 0.146956 13.9205 0.206323 13.9476C0.359791 14.0175 13.6402 14.0175 13.7937 13.9476C13.853 13.9205 13.9238 13.8498 13.9508 13.7904C14.014 13.6518 14.0147 12.74 13.9519 12.4472C13.8507 11.9751 13.439 11.5706 12.9584 11.4708L12.7152 11.4202V8.56515V5.71005H13.2658C13.8078 5.71005 13.8178 5.70823 13.9082 5.59328C13.992 5.48671 14 5.41735 14 4.79771C14 4.40079 13.9799 4.07473 13.9515 4.01256C13.8855 3.86748 7.60497 0.132525 7.28953 0.0506774C7.02601 -0.0176547 6.95056 -0.0172558 6.68987 0.0541338ZM7.48132 2.01374C7.86711 2.17495 8.15487 2.52773 8.24166 2.94597C8.37829 3.60425 7.91891 4.28474 7.24323 4.42503C6.38245 4.6038 5.58068 3.80185 5.75941 2.94087C5.92058 2.16423 6.76001 1.71227 7.48132 2.01374ZM5.71519 8.56829V11.4265H4.76266H3.81013V8.59785C3.81013 7.04203 3.82342 5.75582 3.83968 5.7396C3.85589 5.72334 4.28453 5.71005 4.79221 5.71005H5.71519V8.56829ZM10.1791 8.57937L10.1905 11.4265H9.23765H8.28481V8.56741V5.70828L9.22627 5.72024L10.1677 5.7322L10.1791 8.57937Z" fill="currentColor"/>
</svg>
