<svg width="100%" height="100%" viewBox="0 0 14 16" fill="none" xmlns="http://www.w3.org/2000/svg">
<path fill-rule="evenodd" clip-rule="evenodd" d="M2.13858 0.592137C1.89687 0.636981 1.60449 0.758981 1.43609 0.88527C1.30763 0.981604 1.13306 1.15538 1.03815 1.28138C0.894218 1.47249 0.766946 1.7898 0.73014 2.04929C0.715981 2.14907 0.711923 3.68125 0.71568 7.51424L0.720907 13.9834L0.760354 14.1182C0.808927 14.2842 0.903628 14.508 0.97141 14.6169C1.08576 14.8007 1.33921 15.0542 1.52296 15.1685C1.6319 15.2364 1.85563 15.3311 2.02153 15.3796L2.1563 15.419L4.4818 15.4238L7.95014 15.4286L7.95565 13.483L7.96114 11.5374L8.0008 11.3886C8.16456 10.7743 8.63254 10.3062 9.24671 10.1424L9.39544 10.1028L11.3406 10.0973L13.2858 10.0918L13.281 5.4798L13.2762 2.01069L13.2369 1.87589C13.1883 1.70995 13.0936 1.48618 13.0258 1.3772C12.9115 1.19342 12.658 0.939916 12.4743 0.825537C12.3654 0.75774 12.1417 0.663019 11.9757 0.614435L11.8409 0.57498L6.48035 0.572055C3.29381 0.56968 2.23876 0.573544 2.13858 0.592137ZM9.8595 3.653C10.0532 3.72547 10.1979 3.90708 10.2289 4.11664C10.2615 4.33691 10.132 4.58263 9.92832 4.68664L9.82324 4.74031H6.42719H4.17399L4.0689 4.68664C3.86527 4.58263 3.7357 4.33691 3.76832 4.11664C3.79885 3.91047 3.93359 3.73737 4.12467 3.65879L4.22965 3.61562L6.42208 3.61521L9.75739 3.61478L9.8595 3.653ZM8.35775 6.32772C8.742 6.50208 8.82965 6.97835 8.52968 7.2621C8.35099 7.43113 8.61738 7.41675 5.66519 7.41675C3.85584 7.41675 4.12224 7.43113 3.94355 7.2621C3.64358 6.97835 3.73123 6.50208 4.11547 6.32772C4.19327 6.29243 4.22543 6.29201 5.66519 6.29201C8.2478 6.29201 8.27996 6.29243 8.35775 6.32772ZM9.75613 11.2447C9.4178 11.2882 9.14301 11.5755 9.10104 11.9295C9.09163 12.0089 9.08658 12.7207 9.08933 13.5802L9.09418 15.0913L11.0257 13.1592L12.9573 11.2272L11.4067 11.2295C10.5539 11.2308 9.81115 11.2376 9.75613 11.2447Z" fill="currentColor"/>
</svg>
