<svg width="100%" height="100%" viewBox="0 0 16 16" fill="none" xmlns="http://www.w3.org/2000/svg">
    <path fill-rule="evenodd" clip-rule="evenodd" d="M9.72832 0.0335376C6.89221 0.349987 4.70592 2.78992 4.70592 5.6386C4.70592 6.24515 4.81343 6.98472 4.96351 7.41062L5.04314 7.63669L2.5216 10.1608L0 12.6849L0.0152171 14.3424L0.0303764 16H1.68569H3.34101L3.35692 14.9967L3.37278 13.9935H4.35883H5.34481V13.0048V12.016H6.34793H7.35106L7.86601 11.498L8.38095 10.9799L8.60956 11.0607C9.48618 11.3704 10.9405 11.3973 11.8664 11.1208C12.8747 10.8198 13.5453 10.432 14.2734 9.729C16.3016 7.77058 16.5781 4.58852 14.9161 2.33237C13.7127 0.698773 11.712 -0.18782 9.72832 0.0335376ZM12.3607 2.82714C12.9513 3.08153 13.3294 3.67419 13.3251 4.3389C13.3137 6.13587 10.8762 6.63012 10.1487 4.98296C10.0025 4.65209 9.99387 4.05583 10.1305 3.73136C10.5088 2.83342 11.4704 2.44358 12.3607 2.82714Z" fill="currentColor"/>
</svg>
