<svg width="100%" height="100%" viewBox="0 0 16 16" fill="none" xmlns="http://www.w3.org/2000/svg">
    <path d="M13.7569 10.1447C12.9173 10.1447 12.0929 10.0134 11.3116 9.75524C10.9288 9.62467 10.4582 9.74446 10.2245 9.98442L8.68249 11.1485C6.89417 10.1939 5.7926 9.09267 4.85103 7.31778L5.98085 5.81592C6.27439 5.52278 6.37967 5.09456 6.25353 4.69278C5.99424 3.90742 5.86253 3.08338 5.86253 2.24338C5.86257 1.63656 5.36889 1.14288 4.7621 1.14288H2.24353C1.63674 1.14288 1.14307 1.63656 1.14307 2.24335C1.14307 9.19871 6.80157 14.8572 13.7569 14.8572C14.3637 14.8572 14.8574 14.3635 14.8574 13.7567V11.2452C14.8574 10.6384 14.3637 10.1447 13.7569 10.1447Z" fill="currentColor"/>
</svg>
