 <svg width="100%" height="100%" viewBox="0 0 16 16" fill="none" xmlns="http://www.w3.org/2000/svg">
<path fill-rule="evenodd" clip-rule="evenodd" d="M7.84678 0.0311479C7.78993 0.0566256 7.67188 0.149055 7.58445 0.23647C7.00521 0.815875 6.42897 2.37435 6.11063 4.22252L6.0886 4.35042H7.99971C9.05081 4.35042 9.91079 4.34285 9.91079 4.33361C9.91079 4.32433 9.87151 4.11331 9.8235 3.86464C9.356 1.44317 8.48112 -0.253472 7.84678 0.0311479ZM5.37562 0.458641C3.65543 1.07983 2.33744 2.1003 1.34785 3.57729C1.10974 3.93268 0.908654 4.27832 0.908654 4.33224C0.908654 4.34223 1.74425 4.35042 2.76551 4.35042H4.62234L4.64041 4.23957C4.87689 2.78854 5.20182 1.66274 5.6938 0.590157C5.76571 0.433334 5.79848 0.326546 5.77434 0.327603C5.75197 0.328558 5.57254 0.387529 5.37562 0.458641ZM10.3087 0.590157C10.8007 1.66274 11.1256 2.78854 11.3621 4.23957L11.3801 4.35042H13.237C14.2582 4.35042 15.0938 4.34039 15.0938 4.32811C15.0938 4.28524 14.8422 3.85349 14.6489 3.56477C13.8089 2.30982 12.5885 1.28392 11.2397 0.698752C10.936 0.567032 10.2741 0.32583 10.2163 0.32583C10.2005 0.32583 10.242 0.44476 10.3087 0.590157ZM0.233084 6.11544C0.120899 6.57701 0.05935 6.97681 0.0182266 7.51051C-0.0382414 8.2438 0.0373561 9.0789 0.233084 9.88423L0.305613 10.1827H2.38507H4.4645L4.4438 9.98655C4.37604 9.34436 4.34532 7.76938 4.38409 6.92548C4.40649 6.43775 4.43333 5.9888 4.44376 5.92786L4.46269 5.81701H2.38415H0.305613L0.233084 6.11544ZM5.90573 5.92786C5.87074 6.13679 5.81935 7.36879 5.81932 7.99984C5.81925 8.63473 5.86979 9.81697 5.90712 10.0548L5.92721 10.1827H8.00125H10.0753L10.0954 10.0548C10.205 9.35677 10.2064 6.37626 10.0973 5.89375L10.08 5.81701H8.00213H5.92431L5.90573 5.92786ZM11.5591 6.021C11.6262 6.6632 11.6561 8.20898 11.6179 9.06424C11.5959 9.55746 11.5693 10.0108 11.5588 10.0718L11.5398 10.1827H13.6181H15.6964L15.7694 9.87949C16.0769 8.60179 16.0769 7.39789 15.7694 6.12018L15.6964 5.81701H13.6171H11.5378L11.5591 6.021ZM0.908654 11.6716C0.908654 11.7144 1.16034 12.1462 1.35358 12.4349C1.66286 12.8969 1.94731 13.2398 2.37201 13.6626C3.23069 14.5173 4.30737 15.1815 5.47297 15.5756C5.63276 15.6296 5.77509 15.6738 5.78928 15.6738C5.80343 15.6738 5.76046 15.5549 5.6938 15.4095C5.20182 14.3369 4.87689 13.2111 4.64041 11.7601L4.62234 11.6493H2.76551C1.74425 11.6493 0.908654 11.6593 0.908654 11.6716ZM6.11035 11.7772C6.42887 13.6518 7.01084 15.2099 7.6101 15.7924C7.90004 16.0743 8.11377 16.0697 8.40822 15.7751C8.95782 15.2254 9.49219 13.851 9.8235 12.135C9.87151 11.8864 9.91079 11.6753 9.91079 11.6661C9.91079 11.6568 9.05081 11.6493 7.99971 11.6493H6.0886L6.11035 11.7772ZM11.3621 11.7601C11.1256 13.2111 10.8007 14.3369 10.3087 15.4095C10.242 15.5549 10.2005 15.6738 10.2163 15.6738C10.2322 15.6738 10.4039 15.6186 10.598 15.5512C12.2725 14.969 13.6747 13.8902 14.6489 12.4349C14.8422 12.1462 15.0938 11.7144 15.0938 11.6716C15.0938 11.6593 14.2582 11.6493 13.237 11.6493H11.3801L11.3621 11.7601Z" fill="currentColor"/>
</svg>
