<svg width="100%" height="100%" viewBox="0 0 16 16" fill="none" xmlns="http://www.w3.org/2000/svg">
<path  fill-rule="evenodd" clip-rule="evenodd" d="M7.74162 0.0389988C7.4813 0.136085 7.27872 0.362358 7.21954 0.622047C7.19878 0.713126 7.18716 1.89787 7.18666 3.97685L7.18591 7.19083L3.89041 7.19949C0.949417 7.20719 0.583139 7.21351 0.485323 7.25813C0.323288 7.33209 0.181824 7.46222 0.0854795 7.62598C0.0129002 7.74938 0 7.80673 0 8.00597C0 8.20521 0.0129002 8.26256 0.0854795 8.38596C0.181824 8.54972 0.323288 8.67984 0.485323 8.75381C0.583139 8.79842 0.949417 8.80474 3.89041 8.81244L7.18591 8.82111V12.0257C7.18591 14.2242 7.19665 15.2804 7.2201 15.3897C7.2629 15.5892 7.40787 15.7823 7.60723 15.9055C7.74228 15.9889 7.78815 16 7.99756 16C8.19961 16 8.25641 15.9873 8.38027 15.9146C8.54416 15.8183 8.67438 15.677 8.7484 15.515C8.79305 15.4173 8.79937 15.0514 8.80708 12.1133L8.81575 8.82111L12.1104 8.81244C15.0507 8.80474 15.4169 8.79842 15.5147 8.75381C15.6767 8.67984 15.8182 8.54972 15.9145 8.38596C15.9871 8.26256 16 8.20521 16 8.00597C16 7.80673 15.9871 7.74938 15.9145 7.62598C15.8182 7.46222 15.6767 7.33209 15.5147 7.25813C15.4169 7.21351 15.0507 7.20719 12.1104 7.19949L8.81575 7.19083L8.80708 3.89863C8.79759 0.287142 8.81018 0.519924 8.61201 0.285077C8.40993 0.0456005 8.01976 -0.0647203 7.74162 0.0389988Z" fill="currentColor"/>
</svg>
