<svg width="100%" height="100%" viewBox="0 0 16 16" fill="none" xmlns="http://www.w3.org/2000/svg">
<path fill-rule="evenodd" clip-rule="evenodd" d="M12.1805 0.0204826C11.6034 0.0976306 11.108 0.284461 10.6175 0.609971C10.3365 0.796468 8.38149 2.71265 8.02152 3.15445C7.46178 3.84138 7.15907 4.84123 7.26144 5.66477C7.30275 5.99698 7.38894 6.3912 7.42027 6.3912C7.43275 6.3912 7.74624 6.08711 8.11692 5.71549C8.7504 5.08035 8.79304 5.02976 8.82731 4.87293C8.84736 4.78117 8.91833 4.59347 8.98507 4.45583C9.09805 4.22278 9.18691 4.12471 10.2764 3.03069C11.4345 1.86776 11.4493 1.85445 11.73 1.72378C12.1912 1.50912 12.5849 1.46768 13.0452 1.5854C13.4066 1.67783 13.6093 1.79616 13.9027 2.08599C14.2965 2.47494 14.4646 2.8773 14.4657 3.43328C14.4665 3.87752 14.3358 4.25004 14.0484 4.62267C13.9705 4.72361 13.4358 5.27202 12.8601 5.84135C11.8975 6.79339 11.793 6.88656 11.5588 7.00184C11.4188 7.07075 11.2205 7.14473 11.1182 7.16618C10.9356 7.20449 10.9194 7.21797 10.2441 7.89392L9.55595 8.58264L9.88389 8.66316C10.1591 8.73073 10.2895 8.74315 10.6957 8.74038C11.1062 8.73761 11.23 8.72369 11.5132 8.64858C11.8853 8.54988 12.2882 8.36859 12.6045 8.15753C12.86 7.98702 15.1009 5.76804 15.3318 5.45688C15.6428 5.03787 15.8908 4.43137 15.9662 3.90525C16.1941 2.31674 15.2483 0.738807 13.7488 0.205578C13.2718 0.0359655 12.6306 -0.0397142 12.1805 0.0204826ZM9.94488 5.02786C9.86243 5.07021 8.90939 5.99779 7.45217 7.45395C5.63374 9.27107 5.07744 9.84591 5.02542 9.96163C4.93159 10.1704 4.93389 10.4598 5.03096 10.6541C5.14544 10.8833 5.45036 11.0637 5.72053 11.0621C6.00452 11.0603 6.02988 11.0376 8.52066 8.55048C9.82946 7.24357 10.9276 6.12175 10.9608 6.05752C11.1624 5.6684 11.0078 5.21246 10.6056 5.01008C10.451 4.93233 10.1132 4.94141 9.94488 5.02786ZM5.08992 7.24674C5.04404 7.25348 4.89686 7.27517 4.76285 7.29495C4.28043 7.3662 3.7001 7.61185 3.26472 7.92916C2.93996 8.16584 0.788024 10.3438 0.608407 10.6176C-0.0312797 11.5927 -0.169254 12.6699 0.207364 13.749C0.669069 15.0718 1.99439 16 3.42155 16C4.13167 16 4.89419 15.7498 5.45696 15.3321C5.72043 15.1365 7.96793 12.8817 8.1326 12.6478C8.42803 12.2281 8.63451 11.7113 8.71192 11.1979C8.7895 10.6831 8.77372 10.3801 8.63915 9.80066L8.58236 9.55624L7.88721 10.2508C7.50005 10.6377 7.19207 10.9719 7.19207 11.0052C7.19207 11.1179 7.05269 11.48 6.93227 11.6801C6.8015 11.8975 5.00136 13.7436 4.63946 14.0315C4.26037 14.333 3.88913 14.4667 3.43343 14.4659C2.87746 14.4648 2.47512 14.2967 2.08618 13.9029C1.79635 13.6095 1.67803 13.4068 1.58561 13.0454C1.46712 12.5821 1.5177 12.1324 1.73773 11.693C1.85068 11.4673 1.96006 11.3477 3.03339 10.2759C4.12907 9.18174 4.22203 9.09735 4.45594 8.9845C4.59358 8.9181 4.78127 8.84739 4.87303 8.82734C5.02986 8.79307 5.08044 8.75042 5.71556 8.11692C6.08717 7.74623 6.39125 7.43427 6.39125 7.42369C6.39125 7.39646 5.95564 7.30063 5.64642 7.25985C5.38909 7.22591 5.25365 7.22271 5.08992 7.24674Z" fill="currentColor"/>
</svg>
