<svg width="100%" height="100%" viewBox="0 0 16 16" fill="none" xmlns="http://www.w3.org/2000/svg">
<path fill-rule="evenodd" clip-rule="evenodd" d="M7.95536 1.51731C7.73192 1.54716 7.34199 1.63705 7.1106 1.71209C6.0829 2.04529 5.1347 2.84783 4.60067 3.83647C4 4.5 4.44193 5.10933 4.38819 5.09301C3.79138 4.91175 3.25757 4.95279 2.72843 5.22061C2.12636 5.52535 1.7145 6.03622 1.55203 6.67977C1.46896 7.00874 1.46386 7.50238 1.54023 7.82357L1.59569 8.05691L1.52154 8.10718C1.02965 8.44076 0.596659 8.9283 0.355125 9.42059C-0.306755 10.7697 -0.0256273 12.4318 1.04993 13.5288C1.47535 13.9627 1.94928 14.2531 2.48749 14.4097C2.72217 14.478 2.78299 14.48 4.83354 14.4899L6.93868 14.5L6.93057 12.7161L6.92249 10.9322L6.27773 10.9161C5.58531 10.8988 5.56916 10.8948 5.48068 10.7184C5.42243 10.6023 5.42571 10.5042 5.49188 10.3811C5.60105 10.178 7.72716 7.17277 7.80841 7.10669C7.92888 7.00867 8.14218 7.03535 8.25195 7.16219C8.34622 7.27108 10.4074 10.208 10.5028 10.3694C10.539 10.4305 10.5686 10.5168 10.5686 10.5612C10.5686 10.6742 10.4588 10.8472 10.3633 10.8846C10.3192 10.9019 10.0093 10.9161 9.67477 10.9161H9.06647V12.7067V14.4974H10.8464C12.8062 14.4974 12.9189 14.4889 13.4365 14.3007C13.9959 14.0974 14.4323 13.8124 14.8579 13.3724C15.4207 12.7907 15.7724 12.1187 15.9416 11.3022C16.0186 10.9304 16.0196 10.1643 15.9435 9.79783C15.6338 8.30605 14.6394 7.14902 13.3168 6.74156C13.174 6.69755 13.02 6.65344 12.9747 6.64354C12.9007 6.6274 12.89 6.60653 12.8701 6.43972C12.756 5.48218 12.314 3.57626 11.6052 2.84757C10.8889 2.11114 10.0929 1.6927 9.12222 1.54242C8.84566 1.4996 8.19301 1.48553 7.95536 1.51731Z" fill="currentColor"/>
</svg>
