<svg width="100%" height="100%" viewBox="0 0 16 16" fill="none" xmlns="http://www.w3.org/2000/svg">
<g clip-path="url(#clip0_567_2977)">
<path fill-rule="evenodd" clip-rule="evenodd" d="M12.2737 0.511153C12.9266 0.564781 13.4025 0.722361 13.8994 1.0495C14.5482 1.47667 14.9687 2.04018 15.2265 2.8283C15.3997 3.35764 15.4327 3.56522 15.4344 4.13541C15.436 4.69202 15.3872 4.97265 15.2125 5.4114L15.1303 5.61792L15.2361 5.71777C15.3874 5.86046 15.4302 6.02236 15.4083 6.36911C15.3945 6.58653 15.362 6.72697 15.2875 6.89018C15.1789 7.1284 14.9493 7.36687 14.8285 7.36687C14.7744 7.36687 14.7462 7.40558 14.7161 7.52118C14.6083 7.93615 14.3675 8.37429 14.0087 8.80821C13.8899 8.95192 13.7432 9.10417 13.6827 9.14654L13.5728 9.22355V9.87583C13.5728 10.4951 13.5774 10.537 13.6627 10.7027C13.7682 10.9075 14.0775 11.1975 14.3545 11.3511C14.4623 11.4109 14.8742 11.5867 15.2699 11.7417C16.0731 12.0563 16.237 12.1321 16.5635 12.3398C17.173 12.7275 17.6035 13.3078 17.8171 14.0295C17.9001 14.3099 18 15.0083 18 15.308V15.5H15.1408H12.2816L12.2813 15.2549C12.2809 14.9464 12.2244 14.4428 12.1479 14.0658C11.906 12.8736 11.2821 11.9452 10.2995 11.3155L9.95451 11.0944L10.0814 10.9644C10.3426 10.6967 10.3631 10.6193 10.3631 9.90005V9.25517L10.1185 9.00995C9.85228 8.74319 9.52998 8.28693 9.38016 7.9648L9.28535 7.76104L9.41355 7.48226C9.58846 7.10196 9.65181 6.89297 9.69925 6.54013C9.74249 6.21858 9.70925 5.83988 9.6141 5.57047C9.56872 5.44204 9.5709 5.398 9.63395 5.17107C9.73898 4.79303 9.76496 3.86378 9.68379 3.38788C9.60875 2.94793 9.47476 2.4505 9.3498 2.14824C9.29837 2.02381 9.25631 1.90675 9.25631 1.88808C9.25631 1.82832 9.60004 1.60618 9.80971 1.53044C9.92131 1.49014 10.0983 1.44574 10.2031 1.43176C10.3683 1.40968 10.3995 1.39215 10.4386 1.29941C10.5042 1.1434 10.6921 0.921985 10.8612 0.801295C11.1874 0.568448 11.6969 0.463807 12.2737 0.511153ZM5.64701 0.541689C6.87563 0.745743 7.84496 1.59449 8.25842 2.8283C8.54398 3.68046 8.54578 4.57129 8.26348 5.32484L8.15442 5.61593L8.24326 5.69809C8.56342 5.99408 8.47845 6.84029 8.09152 7.20973C8.00427 7.29306 7.89624 7.36658 7.85149 7.37312C7.78685 7.38259 7.75963 7.42598 7.71879 7.58472C7.60239 8.03713 7.3099 8.51357 6.87098 8.96569L6.6 9.24483V9.89196C6.6 10.4828 6.60701 10.5533 6.6805 10.7027C6.86552 11.0789 7.26489 11.341 8.22607 11.717C9.11678 12.0655 9.32453 12.1627 9.64509 12.3808C10.2624 12.8007 10.6678 13.3841 10.8595 14.1283C10.9465 14.4658 11.0272 15.0581 11.0272 15.3586V15.5H5.01359H-1V15.308C-1 15.0083 -0.900093 14.3099 -0.817083 14.0295C-0.603472 13.3078 -0.172965 12.7275 0.436511 12.3398C0.763016 12.1321 0.926932 12.0563 1.7301 11.7417C2.12578 11.5867 2.53773 11.4109 2.64549 11.3511C2.92249 11.1975 3.23183 10.9075 3.33728 10.7027C3.42265 10.5369 3.42718 10.4952 3.42718 9.8742V9.22028L3.33418 9.1603C3.22073 9.08714 2.82084 8.61418 2.66117 8.36431C2.50965 8.12714 2.32651 7.72818 2.29043 7.55666C2.26929 7.45619 2.23384 7.40848 2.15282 7.37141C1.83465 7.22592 1.62196 6.84595 1.59175 6.36911C1.56976 6.02233 1.61256 5.86046 1.76397 5.7177L1.86992 5.61778L1.78488 5.4118C1.59514 4.95228 1.56552 4.7732 1.56766 4.0991C1.56943 3.53014 1.5799 3.42572 1.66775 3.10061C1.93271 2.12002 2.51135 1.50503 3.21608 1.45489L3.43054 1.4396L3.5237 1.25871C3.70473 0.907099 4.08104 0.639541 4.52657 0.545719C4.74424 0.499861 5.38142 0.497574 5.64701 0.541689Z" fill="currentColor"/>
</g>
<defs>
<clipPath id="clip0_567_2977">
<rect width="16" height="16" fill="white"/>
</clipPath>
</defs>
</svg>
