<svg width="100%" height="100%" viewBox="0 0 16 16" fill="none" xmlns="http://www.w3.org/2000/svg">
<path fill-rule="evenodd" clip-rule="evenodd" d="M1.81479 1.05109C1.41336 1.17946 1.14407 1.4595 1.03716 1.85974C1.00752 1.97077 1.0006 2.73445 1.00033 5.92079L1 9.84507L2.52441 8.3218C3.36715 7.47969 4.08325 6.78571 4.1258 6.7699C4.23302 6.73006 4.40331 6.73422 4.50771 6.77923C4.55611 6.80007 5.01406 7.17085 5.52539 7.60316C6.03672 8.03547 6.50823 8.43286 6.5732 8.48625L6.6913 8.5833L8.37789 6.89751C9.55189 5.72405 10.0954 5.19897 10.1661 5.16976C10.2955 5.11633 10.4351 5.11638 10.5644 5.16987C10.6356 5.19935 11.3148 5.86046 12.833 7.37798L15 9.54397V5.76583C15 2.14202 14.9979 1.98091 14.9485 1.82213C14.8214 1.41375 14.5432 1.14356 14.1387 1.03545C14.0265 1.0055 12.9208 0.999132 7.98633 1.00009C2.24212 1.00118 1.96368 1.00348 1.81479 1.05109ZM6.51619 2.7533C6.73005 2.83331 6.90464 2.9648 7.04929 3.15473C7.39606 3.61013 7.36759 4.25184 6.98177 4.67655C6.40255 5.31419 5.38309 5.15182 5.01015 4.36251C4.83578 3.99343 4.88866 3.50667 5.14028 3.1648C5.45514 2.73702 6.0207 2.56788 6.51619 2.7533ZM8.92277 7.77376C8.1295 8.56725 7.48047 9.22447 7.48047 9.23429C7.48047 9.24408 7.78792 9.512 8.16371 9.82965C8.55934 10.1641 8.866 10.4441 8.89223 10.4948C8.91711 10.543 8.93751 10.6445 8.93751 10.7204C8.93751 10.9381 8.82909 11.0977 8.62256 11.184C8.39938 11.2773 8.26745 11.2284 7.90219 10.9172C7.73791 10.7772 6.88984 10.0618 6.01758 9.32732C5.14531 8.59287 4.40952 7.97271 4.38248 7.94916C4.33643 7.90913 4.22678 8.01291 2.66666 9.5731L1 11.2398L1.00033 12.621C1.00057 13.6858 1.00902 14.0334 1.03716 14.1388C1.14525 14.5435 1.41541 14.8217 1.82373 14.9488C1.98375 14.9986 2.18882 15.0003 7.9956 15C12.9188 14.9997 14.0266 14.9931 14.1387 14.9631C14.5432 14.855 14.8214 14.5848 14.9485 14.1765C14.9963 14.0226 15 13.9029 15 12.4887V10.9664L12.6825 8.64872L10.3651 6.33106L8.92277 7.77376Z" fill="currentColor"/>
</svg>
