<svg xmlns="http://www.w3.org/2000/svg" width="100%" height="100%" viewBox="0 0 19 17" fill="none">
    <path fill-rule="evenodd" clip-rule="evenodd" d="M15.4456 1.2207C15.7345 0.972248 16.0203 0.733442 16.0808 0.690065C16.3045 0.529529 16.6649 0.614952 16.8192 0.865083C16.889 0.978104 16.8897 1.0562 16.8897 7.9752C16.8897 14.8942 16.889 14.9723 16.8192 15.0853C16.7221 15.2427 16.5495 15.339 16.3642 15.3391C16.1665 15.3393 16.1161 15.3105 15.7544 14.9911C14.1965 13.6156 12.4142 12.466 10.8638 11.8369C9.99221 11.4832 9.43668 11.3342 8.41717 11.1805C8.30183 11.1631 8.30183 11.1631 8.30183 7.9752C8.30183 5.06388 8.30183 4.8113 8.38968 4.77574C8.39803 4.77236 8.40716 4.77094 8.41717 4.76939C8.48059 4.75954 8.65228 4.73383 8.79867 4.71227C10.7371 4.42672 13.2572 3.10291 15.4456 1.2207ZM0.90554 7.35129C1.16017 6.12798 2.15271 5.1384 3.3867 4.87743C3.58771 4.83493 3.97886 4.82434 5.43615 4.82206C6.17031 4.82089 6.6052 4.82019 6.86282 5.03355C7.23718 5.3436 7.23718 6.10567 7.23718 7.9752C7.23718 11.1312 7.23718 11.1312 5.46128 11.1312C3.9773 11.1312 3.64041 11.1221 3.41183 11.0755C2.15526 10.8197 1.16457 9.84076 0.905647 8.59911C0.83357 8.25346 0.833534 7.69729 0.90554 7.35129ZM18.0647 9.73931C17.9546 9.80264 17.9546 9.80264 17.9546 7.9752C17.9546 6.47855 17.9546 6.20764 18.0151 6.19339C18.0285 6.19024 18.0448 6.19963 18.0647 6.21109C18.2436 6.31401 18.5413 6.61485 18.6914 6.84429C18.9169 7.18907 19.0016 7.49769 19.0016 7.9752C19.0016 8.4527 18.9169 8.76133 18.6914 9.1061C18.5413 9.33555 18.2436 9.63639 18.0647 9.73931ZM3.61611 12.1709C3.61611 12.2758 3.80757 13.3257 3.89977 13.7264C4.10649 14.6245 4.52419 15.9591 4.66515 16.1716C4.69538 16.2172 4.77115 16.2853 4.8335 16.3229C4.94117 16.3877 5.02251 16.3912 6.43743 16.3912C7.86225 16.3912 7.93305 16.3881 8.0436 16.3215C8.19999 16.2273 8.30028 16.0546 8.30042 15.8794C8.30053 15.7694 8.23559 15.6084 8.02447 15.1956C7.87261 14.8986 7.7138 14.5728 7.67154 14.4715L7.05379 12.762C6.98026 12.5113 6.91929 12.2785 6.9183 12.2448C6.91663 12.1874 6.824 12.1834 5.48446 12.1834C4.6968 12.1834 3.95421 12.1733 3.83426 12.1609C3.70753 12.1478 3.61611 12.152 3.61611 12.1709Z" fill="currentColor"/>
</svg>