<svg xmlns="http://www.w3.org/2000/svg" width="100%" height="100%" viewBox="0 0 19 20" fill="none">
    <path
        d="M9.50009 0.500024C7.92787 0.49649 6.37967 0.886666 4.99691 1.63486C3.61397 2.38304 2.44057 3.46558 1.58335 4.78363V2.61118H0V7.88906L5.27798 7.88888V6.30556H2.514C3.42193 4.6058 4.92028 3.29671 6.72683 2.62539C8.53321 1.95406 10.523 1.96677 12.3206 2.66126C14.1183 3.35575 15.5996 4.68388 16.4857 6.39513C17.3717 8.10657 17.6009 10.083 17.1302 11.9517C16.6594 13.8204 15.5212 15.4525 13.9303 16.5401C12.3391 17.6274 10.4052 18.0954 8.49304 17.8552C6.5808 17.6152 4.82252 16.6838 3.54982 15.2369C2.27695 13.7898 1.57751 11.9273 1.58335 10.0002H0C0 12.5197 1.0009 14.9361 2.78253 16.7175C4.56416 18.4991 6.98053 19.5 9.5 19.5C12.0195 19.5 14.436 18.4991 16.2175 16.7175C17.9991 14.9359 19 12.5196 19 10.0002C19 7.48075 17.9991 5.06429 16.2175 3.28282C14.4358 1.50123 12.0195 0.500343 9.5 0.500343L9.50009 0.500024Z"
        fill="currentColor" />
</svg>