<svg width="100%" height="100%" viewBox="0 0 16 16" fill="none" xmlns="http://www.w3.org/2000/svg">
<path fill-rule="evenodd" clip-rule="evenodd" d="M7.2824 0.0189325C5.73632 0.170303 4.30738 0.739883 3.05451 1.70416C2.44439 2.17374 1.65206 3.05623 1.19418 3.77612C0.996433 4.08703 0.611496 4.87487 0.4736 5.25085C0.319419 5.67128 0.15509 6.31376 0.0742252 6.81229C-0.0247417 7.42247 -0.0247417 8.58097 0.0742252 9.19115C0.214157 10.0537 0.435517 10.7511 0.81441 11.5231C1.22838 12.3665 1.65882 12.9643 2.34811 13.6532C3.03744 14.3421 3.63562 14.7723 4.4795 15.1861C5.25195 15.5647 5.94966 15.786 6.81274 15.9258C7.42327 16.0247 8.58243 16.0247 9.19296 15.9258C10.056 15.786 10.7538 15.5647 11.5262 15.1861C12.3701 14.7723 12.9683 14.3421 13.6576 13.6532C14.3469 12.9643 14.7773 12.3665 15.1913 11.5231C15.4662 10.9628 15.6045 10.5957 15.7527 10.0327C15.95 9.28289 16 8.87188 16 8.00172C16 7.13156 15.95 6.72055 15.7527 5.97077C15.6045 5.40776 15.4662 5.04061 15.1913 4.48038C14.7773 3.63699 14.3469 3.03914 13.6576 2.35021C12.9683 1.66131 12.3701 1.23112 11.5262 0.817383C10.7545 0.439051 10.043 0.213341 9.20862 0.08216C8.74826 0.00979267 7.72032 -0.0239495 7.2824 0.0189325ZM5.63829 4.04045C6.48759 4.24072 6.90429 5.17429 6.49887 5.96852C6.41055 6.14155 6.14161 6.41033 5.96849 6.49859C5.49789 6.73855 4.94891 6.70196 4.55248 6.40425C3.89519 5.91067 3.8138 5.00833 4.37321 4.41719C4.70105 4.07075 5.17199 3.93049 5.63829 4.04045ZM10.9191 4.02668C11.6222 4.15786 12.1101 4.85797 11.9837 5.55469C11.7907 6.61907 10.5009 7.02808 9.739 6.26656C9.4747 6.00242 9.35046 5.70105 9.34989 5.32259C9.34864 4.49647 10.102 3.87431 10.9191 4.02668ZM12.3234 8.75294C12.4002 8.79598 12.5059 8.89223 12.5583 8.96685C12.6446 9.08955 12.6547 9.12977 12.6648 9.38753C12.6933 10.1155 12.4099 11.0483 11.9371 11.7823C11.3841 12.6409 10.5276 13.3456 9.60621 13.7002C9.05375 13.9128 8.61294 13.9934 8.00285 13.9934C7.39276 13.9934 6.95195 13.9128 6.39949 13.7002C5.47807 13.3456 4.62163 12.6409 4.0686 11.7823C3.59579 11.0483 3.31235 10.1155 3.34085 9.38753C3.35094 9.13042 3.36127 9.08939 3.44643 8.96835C3.54718 8.82515 3.68755 8.72743 3.84812 8.68871C3.90255 8.67559 5.80037 8.66708 8.06549 8.66977L12.1839 8.67469L12.3234 8.75294Z" fill="currentColor"/>
</svg>
