<svg width="100%" height="100%" viewBox="0 0 16 16" fill="none" xmlns="http://www.w3.org/2000/svg">
<path fill-rule="evenodd" clip-rule="evenodd" d="M6.88689 0.0367076C6.76039 0.0925981 6.63105 0.250287 6.59407 0.393705C6.57763 0.457482 6.47681 0.868743 6.37003 1.30764C6.26323 1.74653 6.1647 2.12728 6.15108 2.15372C6.13742 2.1802 6.03003 2.23546 5.91245 2.27655C5.79485 2.31764 5.5649 2.4129 5.40146 2.48828C5.23801 2.56367 5.08302 2.61956 5.05703 2.61252C5.03104 2.60545 4.68136 2.40097 4.27998 2.15813C3.87861 1.9153 3.50262 1.70769 3.44445 1.69677C3.22201 1.65509 3.1401 1.71427 2.38854 2.45934C1.99737 2.84716 1.65407 3.21339 1.62571 3.27316C1.51894 3.49797 1.55811 3.60146 2.07605 4.46326L2.54986 5.25154L2.44675 5.47798C2.39007 5.6025 2.30948 5.80115 2.26771 5.91944C2.21962 6.05563 2.16883 6.14463 2.12916 6.16216C2.09472 6.17737 1.66682 6.2868 1.1783 6.40534C0.278888 6.62355 0.192282 6.65638 0.0645636 6.82736C0.00225441 6.91079 0 6.95169 0 8.00448C0 9.05726 0.00225441 9.09816 0.0645636 9.18159C0.191405 9.35139 0.278638 9.3844 1.17739 9.60289C1.66641 9.72178 2.095 9.83146 2.12982 9.84664C2.17052 9.86438 2.2199 9.95088 2.26834 10.0894C2.30973 10.2077 2.4031 10.4334 2.4758 10.591L2.608 10.8774L2.18386 11.5854C1.83267 12.1716 1.75724 12.3192 1.74525 12.4438C1.7357 12.5434 1.74707 12.6251 1.77891 12.6855C1.85866 12.8367 3.27584 14.2246 3.37566 14.2492C3.58622 14.3012 3.70743 14.2515 4.42799 13.8179L5.12999 13.3955L5.41429 13.5269C5.57069 13.5992 5.79544 13.6923 5.9138 13.7339C6.05029 13.7818 6.13912 13.8323 6.15668 13.872C6.1719 13.9065 6.28208 14.335 6.40153 14.8244C6.62049 15.7217 6.65387 15.8099 6.82223 15.9355C6.90571 15.9977 6.94663 16 8 16C9.05337 16 9.09429 15.9977 9.17777 15.9355C9.34613 15.8099 9.37951 15.7217 9.59847 14.8244C9.71792 14.335 9.82804 13.9062 9.84319 13.8714C9.86092 13.8308 9.94777 13.7811 10.0861 13.7326C10.2045 13.691 10.4338 13.5957 10.5955 13.5209L10.8897 13.3848L11.6256 13.824C12.3196 14.2381 12.3709 14.2632 12.5244 14.2632C12.743 14.2632 12.7915 14.2247 13.5926 13.4143C14.2871 12.7116 14.3524 12.6202 14.3123 12.407C14.302 12.3522 14.0955 11.9776 13.8535 11.5746L13.4134 10.8418L13.5531 10.5262C13.63 10.3527 13.7188 10.135 13.7505 10.0425C13.7849 9.9424 13.8336 9.86313 13.8708 9.84667C13.9053 9.83149 14.3336 9.72178 14.8226 9.60289C15.7214 9.3844 15.8086 9.35139 15.9354 9.18159C15.9977 9.09816 16 9.05726 16 8.00448C16 6.95169 15.9977 6.91079 15.9354 6.82736C15.8086 6.65757 15.7214 6.62455 14.8226 6.40606C14.3336 6.28717 13.9053 6.17743 13.8708 6.16219C13.8312 6.14463 13.7804 6.05569 13.7324 5.91944C13.6907 5.80115 13.6019 5.58504 13.5349 5.43918C13.468 5.29329 13.4194 5.15046 13.4269 5.12174C13.4344 5.09298 13.6189 4.77278 13.8368 4.41018C14.3083 3.6259 14.3363 3.56535 14.3076 3.39251C14.2883 3.2761 14.2169 3.19358 13.5776 2.54893C13.1878 2.15594 12.8275 1.80458 12.777 1.76815C12.7129 1.722 12.6363 1.70144 12.5245 1.70034C12.3725 1.6989 12.324 1.72271 11.6197 2.14474C11.2104 2.38999 10.864 2.59068 10.8499 2.59068C10.8358 2.59068 10.7066 2.53676 10.5628 2.47085C10.419 2.40492 10.2046 2.31692 10.0862 2.27527C9.94981 2.22723 9.86088 2.1766 9.84335 2.13692C9.82813 2.10249 9.71864 1.67484 9.60003 1.18659C9.3817 0.287776 9.34885 0.201187 9.17783 0.0734777C9.09501 0.0116727 9.04714 0.00863723 8.03688 0.00172133C7.20786 -0.00394282 6.96197 0.00353636 6.88689 0.0367076ZM8.448 4.75228C9.74622 4.94627 10.7953 5.86033 11.1571 7.11261C11.6559 8.83958 10.6397 10.6556 8.89237 11.1598C7.16443 11.6584 5.34741 10.6427 4.84293 8.89634C4.24892 6.83995 5.81204 4.74837 7.96268 4.72187C8.10577 4.72008 8.32416 4.73379 8.448 4.75228Z" fill="currentColor"/>
</svg>
