<svg xmlns="http://www.w3.org/2000/svg" width="100%" height="100%" viewBox="0 0 20 20" fill="none">
<path fill-rule="evenodd" clip-rule="evenodd" d="M8.38846 0.0958434C7.60916 0.222023 7.32251 0.325808 7.18148 0.532888C7.10343 0.647521 7.01615 1.05993 6.93941 1.67648C6.79612 2.82729 6.63814 3.16034 6.0884 3.47085C5.53662 3.78249 5.07693 3.74239 4.03884 3.29205C2.90314 2.79929 2.74632 2.80286 2.23382 3.33271C1.40892 4.18552 0.437534 5.79087 0.100039 6.85902C-0.114605 7.53814 -0.0430327 7.66131 0.99862 8.40663C1.95379 9.09009 2.14443 9.35497 2.14443 9.99889C2.14443 10.6428 1.95379 10.9077 0.99862 11.5911C-0.0148838 12.3163 -0.106677 12.4629 0.0747267 13.0663C0.390038 14.1153 1.40696 15.8102 2.23382 16.6651C2.74632 17.1949 2.90314 17.1985 4.03884 16.7057C5.07693 16.2554 5.53662 16.2153 6.0884 16.5269C6.63632 16.8364 6.79583 17.1711 6.94028 18.3143C7.00684 18.8408 7.10321 19.3452 7.15449 19.4351C7.20577 19.5249 7.35735 19.6425 7.4914 19.6964C8.22437 19.9911 10.3323 20.0959 11.587 19.9002C12.3975 19.7737 12.7203 19.6544 12.8454 19.4351C12.8966 19.3452 12.993 18.8408 13.0596 18.3143C13.204 17.1711 13.3635 16.8364 13.9115 16.5269C14.4632 16.2153 14.9229 16.2554 15.961 16.7057C17.0967 17.1985 17.2535 17.1949 17.766 16.6651C18.5894 15.8138 19.4992 14.3078 19.8938 13.1426C20.1222 12.4684 20.0487 12.3406 19.0012 11.5911C18.0461 10.9077 17.8554 10.6428 17.8554 9.99889C17.8554 9.35497 18.0461 9.09009 19.0012 8.40663C20.0487 7.65718 20.1222 7.52939 19.8938 6.85517C19.4992 5.69002 18.5894 4.18398 17.766 3.33271C17.2535 2.80286 17.0967 2.79929 15.961 3.29205C14.9229 3.74239 14.4632 3.78249 13.9115 3.47085C13.3635 3.16139 13.204 2.82666 13.0596 1.68348C12.993 1.15693 12.8966 0.65256 12.8454 0.562701C12.7941 0.472843 12.6425 0.355271 12.5084 0.301384C11.7951 0.0145929 9.5742 -0.0961905 8.38846 0.0958434ZM10.9091 1.55296L11.491 1.63589L11.5105 1.88084C11.6329 3.42019 12.2307 4.37819 13.4023 4.91216C13.8597 5.12064 13.9429 5.13505 14.6914 5.13505C15.4639 5.13505 15.5138 5.12561 16.1365 4.86079L16.7815 4.58646L16.9198 4.75582C17.4608 5.41814 18.2191 6.73277 18.2191 7.00837C18.2191 7.06225 18.0412 7.22419 17.8237 7.36829C17.2743 7.73234 16.7877 8.25344 16.5702 8.71043C15.888 10.1442 16.3761 11.6702 17.8237 12.6295C18.0412 12.7736 18.2191 12.9441 18.2191 13.0086C18.2191 13.3065 16.9455 15.3876 16.7631 15.3876C16.7379 15.3876 16.4414 15.2695 16.1044 15.1252C15.5162 14.8733 15.4591 14.8627 14.6876 14.8627C13.9062 14.8627 13.8684 14.87 13.3355 15.1235C12.3489 15.5926 11.7563 16.4095 11.5955 17.5221C11.5509 17.83 11.5013 18.1492 11.4853 18.2314C11.4591 18.3652 11.3785 18.3901 10.7211 18.4676C10.1189 18.5386 9.85271 18.5368 9.24747 18.458L8.50884 18.3619L8.45865 17.8732C8.3179 16.5023 7.75915 15.644 6.67029 15.1263C6.13051 14.8696 6.09516 14.8627 5.31223 14.8627C4.53534 14.8627 4.48668 14.872 3.86333 15.137L3.21831 15.4113L3.08004 15.242C2.53902 14.5796 1.78075 13.265 1.78075 12.9894C1.78075 12.9355 1.95866 12.7736 2.17614 12.6295C3.62374 11.6702 4.11187 10.1442 3.4296 8.71043C3.21452 8.25826 2.75694 7.76544 2.18836 7.37347C1.96594 7.22006 1.78315 7.05315 1.78235 7.00249C1.77784 6.73767 2.54222 5.41429 3.08004 4.75582L3.21831 4.58646L3.86333 4.85946C4.48464 5.12239 4.53796 5.13246 5.31223 5.13372C6.0964 5.13505 6.12971 5.12862 6.67029 4.8715C7.75915 4.35376 8.3179 3.49549 8.45865 2.12459L8.50884 1.63589L9.05436 1.55744C9.7751 1.45387 10.2064 1.45282 10.9091 1.55296ZM9.00141 6.11041C7.89291 6.36886 6.76019 7.25645 6.27177 8.24931C5.48353 9.85164 5.78756 11.559 7.08299 12.8054C7.92455 13.6151 8.84415 13.9879 9.99993 13.9879C11.1557 13.9879 12.0753 13.6151 12.9169 12.8054C13.7584 11.9957 14.1459 11.1109 14.1459 9.99889C14.1459 8.88412 13.7574 7.99849 12.9169 7.19718C12.297 6.60624 11.717 6.2776 11.0115 6.11762C10.4542 5.99123 9.52685 5.98787 9.00141 6.11041ZM11.0521 7.71436C11.6062 7.95839 12.0672 8.39494 12.3457 8.93906C12.5565 9.35098 12.5821 9.46589 12.5821 9.99889C12.5821 10.5319 12.5565 10.6468 12.3457 11.0587C12.0649 11.6074 11.6076 12.0376 11.031 12.2956C10.6868 12.4496 10.5153 12.4803 9.99993 12.4803C9.48459 12.4803 9.31301 12.4496 8.96889 12.2956C8.39224 12.0376 7.93495 11.6074 7.65419 11.0587C7.44289 10.6457 7.41794 10.5333 7.4194 10.0004C7.42071 9.50641 7.45358 9.3365 7.61106 9.01072C8.2352 7.71939 9.75975 7.14504 11.0521 7.71436Z" fill="currentColor"/>
</svg>