<svg width="100%" height="100%" viewBox="0 0 20 20" fill="currentColor" xmlns="http://www.w3.org/2000/svg">
<path fill-rule="evenodd" clip-rule="evenodd" d="M11.5951 3.53868V6.07732H10.4888C9.26618 6.07732 8.79884 6.11033 8.10836 6.24543C5.90086 6.67742 3.973 7.82403 2.57608 9.5358C1.68641 10.626 1.02583 11.9746 0.730457 13.3037C0.543955 14.1431 0.5319 14.3054 0.515542 16.1979L0.5 18L0.769145 17.7088C1.65214 16.7533 2.54314 15.9412 3.27202 15.4276C5.57644 13.8036 8.31938 12.9239 11.0848 12.9218L11.5946 12.9215L11.6041 15.4486L11.6136 17.9757L15.5568 13.7319L19.5 9.48811L19.3544 9.33903C19.2743 9.25705 17.5522 7.40428 15.5274 5.2218C13.5027 3.03931 11.7896 1.19659 11.7206 1.12684L11.5951 1V3.53868Z" fill="currentColor"/>
</svg>
