<svg xmlns="http://www.w3.org/2000/svg" width="100%" height="100%" viewBox="0 0 16 16" fill="none">
    <path fill-rule="evenodd" clip-rule="evenodd" d="M3.75 8C4.16421 8 4.5 8.33579 4.5 8.75L4.5 13.25C4.5 13.6642 4.16421 14 3.75 14C3.33579 14 3 13.6642 3 13.25L3 8.75C3 8.33579 3.33579 8 3.75 8Z" fill="currentColor"/>
    <path fill-rule="evenodd" clip-rule="evenodd" d="M8.75 5C9.16421 5 9.5 5.33579 9.5 5.75L9.5 13.25C9.5 13.6642 9.16421 14 8.75 14C8.33579 14 8 13.6642 8 13.25L8 5.75C8 5.33579 8.33579 5 8.75 5Z" fill="currentColor"/>
    <path fill-rule="evenodd" clip-rule="evenodd" d="M13.75 1C14.1642 1 14.5 1.33579 14.5 1.75L14.5 13.25C14.5 13.6642 14.1642 14 13.75 14C13.3358 14 13 13.6642 13 13.25L13 1.75C13 1.33579 13.3358 1 13.75 1Z" fill="currentColor"/>
</svg>