<svg width="100%" height="100%" viewBox="0 0 16 16" fill="none" xmlns="http://www.w3.org/2000/svg">
    <path fill-rule="evenodd" clip-rule="evenodd" d="M5.5 6.5C5.90533 6.5 6.29189 6.41961 6.6446 6.27392L8.40642 8.96411C7.83999 9.65431 7.5 10.5375 7.5 11.5C7.5 13.7091 9.29086 15.5 11.5 15.5C13.7091 15.5 15.5 13.7091 15.5 11.5C15.5 9.84599 14.4961 8.42645 13.0644 7.81747L13.7517 5.48431C14.7375 5.36052 15.5 4.51931 15.5 3.5C15.5 2.39543 14.6046 1.5 13.5 1.5C12.3954 1.5 11.5 2.39543 11.5 3.5C11.5 4.15475 11.8146 4.73602 12.3009 5.10086L11.5938 7.50108C11.5626 7.50036 11.5314 7.5 11.5 7.5C10.7987 7.5 10.1395 7.68048 9.56645 7.99753L7.84583 5.37023C8.25525 4.85737 8.5 4.20727 8.5 3.5C8.5 1.84315 7.15685 0.5 5.5 0.5C3.84315 0.5 2.5 1.84315 2.5 3.5C2.5 4.54747 3.03684 5.46956 3.85038 6.00615L2.47689 11.5001C1.38297 11.5125 0.5 12.4031 0.5 13.5C0.5 14.6046 1.39543 15.5 2.5 15.5C3.60457 15.5 4.5 14.6046 4.5 13.5C4.5 12.9325 4.26365 12.4202 3.88403 12.0562L5.27516 6.4917C5.34939 6.4972 5.42437 6.5 5.5 6.5Z" fill="currentColor"/>
</svg>
