<svg width="100%" height="100%" viewBox="0 0 16 16" fill="none" xmlns="http://www.w3.org/2000/svg">
<path fill-rule="evenodd" clip-rule="evenodd" d="M8.54946 9.07636C7.27097 9.37666 6.29507 10.4625 6.29507 11.5846V11.8361L6.13851 11.8568C5.42458 11.9515 5.10437 12.085 4.68314 12.4631C4.20257 12.8946 3.99818 13.342 4.00001 13.9582C4.00126 14.375 4.09457 14.6769 4.33337 15.037C4.62043 15.4696 5.23028 15.866 5.76345 15.9665C5.91716 15.9954 7.17144 16.0049 9.88661 15.9977L13.7888 15.9873L14.0951 15.8858C14.5444 15.7369 14.8335 15.5678 15.1863 15.2476C15.5394 14.9273 15.7258 14.6648 15.8894 14.2575C15.992 14.002 16.0009 13.9341 15.9999 13.4115C15.999 12.882 15.991 12.8244 15.8821 12.5653C15.4279 11.4845 14.3987 10.8181 13.1835 10.8181C12.9034 10.8181 12.4408 10.8833 12.2609 10.948C12.2092 10.9666 12.1744 10.9227 12.1059 10.7524C11.7742 9.92746 10.9947 9.29791 10.0268 9.07329C9.60068 8.97443 8.97792 8.97571 8.54946 9.07636Z" fill="currentColor"/>
<path fill-rule="evenodd" clip-rule="evenodd" d="M2.03676 1.87213C3.15601 0.817503 4.43684 0.225914 6.02121 0.0316995C6.85352 -0.0703258 8.15729 0.081404 9.0091 0.379422C10.9685 1.06498 12.5379 2.63863 13.1762 4.55791C13.433 5.3299 13.4822 5.67726 13.4764 6.67668C13.4716 7.52329 13.4587 7.63876 13.3051 8.209C13.1943 8.62017 13.0535 9.00277 12.8755 9.37041C12.2423 8.53129 11.3005 7.95227 10.2657 7.71212C9.61378 7.56085 8.75766 7.56312 8.10637 7.71611C6.62505 8.06405 5.26673 9.19702 4.8361 10.6889C4.76522 10.7131 4.69454 10.7397 4.62413 10.769C4.20072 10.9454 3.8742 11.1837 3.58091 11.447C3.3681 11.6381 3.17015 11.8511 2.99926 12.0927C2.95297 12.0627 2.90697 12.032 2.86128 12.0007C2.78124 11.9459 2.2 11.5 2.2 11.5L1.81072 11.1328L1.51782 10.7752C0.760547 9.85072 0.295915 8.89393 0.0738041 7.80158C-0.0246014 7.31772 -0.0246014 5.87869 0.0738041 5.39483C0.351402 4.02963 1.01956 2.83059 2.03676 1.87213ZM11.9697 10.7673C11.9675 10.7699 11.9654 10.7725 11.9632 10.7752L11.6703 11.1328L12.2607 11.7169C12.8643 12.3143 12.9714 12.4918 12.8888 12.7578C12.8313 12.9432 12.5933 13.1601 12.4109 13.1934C12.1363 13.2436 11.956 13.1329 11.3262 12.5277L10.724 11.949L10.272 12.2149C8.45146 13.286 6.27848 13.4668 4.37075 12.775C4.43445 12.7035 4.50511 12.6331 4.58304 12.5631C5.00427 12.185 5.32448 12.0516 6.03841 11.9569L6.19497 11.9361V11.6846C6.19497 10.5625 7.17087 9.47667 8.44936 9.17637C8.87782 9.07572 9.50058 9.07443 9.92666 9.1733C10.861 9.39013 11.6198 9.98428 11.9697 10.7673ZM7.33137 2.16664L7.14874 1.98875C6.99904 1.84294 6.92545 1.81086 6.74051 1.81086C6.55557 1.81086 6.48198 1.84294 6.33227 1.98875L6.14964 2.16664V4.08158V5.99652H4.82848C3.35997 5.99652 3.27574 6.01352 3.11562 6.3422C3.01275 6.55337 3.01335 6.64425 3.1189 6.86096C3.27929 7.19021 3.34595 7.19989 5.44603 7.19989H7.33137V4.68327V2.16664Z" fill="currentColor"/>
</svg>
