<svg width="100%" height="100%" viewBox="0 0 16 16" fill="none" xmlns="http://www.w3.org/2000/svg">
<path fill-rule="evenodd" clip-rule="evenodd" d="M7.64557 0.0618672C7.3041 0.155306 0.123747 4.43572 0.0548861 4.58685C0.0230886 4.65663 0 5.03368 0 5.4831C0 6.19126 0.00916456 6.27052 0.104962 6.39232C0.208253 6.52369 0.219646 6.52577 0.839139 6.52577H1.46835V9.78874V13.0517L1.19038 13.1094C0.641114 13.2235 0.170684 13.6859 0.0549874 14.2254C-0.0167595 14.5601 -0.0159494 15.602 0.0562025 15.7604C0.0871392 15.8283 0.167949 15.9091 0.235797 15.9401C0.41119 16.02 15.5888 16.02 15.7642 15.9401C15.8321 15.9091 15.9129 15.8283 15.9438 15.7604C16.016 15.602 16.0168 14.5601 15.945 14.2254C15.8293 13.6859 15.3589 13.2235 14.8096 13.1094L14.5316 13.0517V9.78874V6.52577H15.1609C15.7804 6.52577 15.7917 6.52369 15.895 6.39232C15.9908 6.27052 16 6.19126 16 5.4831C16 5.02948 15.977 4.65684 15.9446 4.58578C15.8691 4.41997 8.69139 0.151457 8.33089 0.057917C8.02972 -0.0201767 7.94349 -0.0197209 7.64557 0.0618672ZM8.55008 2.30141C8.99099 2.48566 9.31985 2.88884 9.41904 3.36682C9.57519 4.11914 9.05018 4.89684 8.27798 5.05718C7.29423 5.26148 6.37792 4.34497 6.58218 3.361C6.76638 2.4734 7.72572 1.95688 8.55008 2.30141ZM6.53165 9.79233V13.0589H5.44304H4.35443V9.82611C4.35443 8.04804 4.36962 6.57808 4.3882 6.55955C4.40673 6.54096 4.89661 6.52577 5.47681 6.52577H6.53165V9.79233ZM11.6333 9.805L11.6463 13.0589H10.5573H9.46835V9.79132V6.52374L10.5443 6.53742L11.6203 6.55109L11.6333 9.805Z" fill="currentColor"/>
</svg>
