<svg width="100%" height="100%" viewBox="0 0 16 16" fill="none" xmlns="http://www.w3.org/2000/svg">
<path fill-rule="evenodd" clip-rule="evenodd" d="M7.6366 0.0653552C7.47814 0.152776 7.35326 0.277342 7.28365 0.417439C7.2513 0.482524 6.82224 1.52677 6.33023 2.73797C5.83821 3.94912 5.42174 4.95462 5.40479 4.97235C5.38781 4.99013 4.29367 5.10244 2.97337 5.22201C0.655547 5.43191 0.567043 5.44292 0.406748 5.54123C0.0381207 5.7673 -0.100908 6.23827 0.0768653 6.65884C0.157414 6.84945 0.13481 6.82788 2.42602 8.90047C3.17773 9.58042 3.79301 10.1568 3.7934 10.1814C3.79374 10.2059 3.55037 11.3218 3.25262 12.6613C2.72783 15.0222 2.7126 15.1031 2.75586 15.3054C2.80941 15.5557 2.97406 15.7787 3.19406 15.8988C3.39631 16.0092 3.71927 16.0155 3.90749 15.9127C3.98111 15.8724 4.92456 15.2817 6.00401 14.5998C7.16926 13.8638 7.99287 13.3674 8.03112 13.3781C8.06658 13.388 8.88729 13.8975 9.85495 14.5102C12.0768 15.917 12.1467 15.9589 12.3215 15.9898C12.7326 16.0625 13.1581 15.7374 13.2449 15.2842C13.2844 15.0778 13.2647 14.9737 12.7466 12.657C12.4499 11.3302 12.2072 10.2212 12.2072 10.1926C12.2072 10.1641 12.9946 9.42776 13.957 8.55643C14.9194 7.68511 15.7447 6.92951 15.791 6.87731C15.9766 6.66825 16.055 6.25284 15.9585 5.99026C15.8866 5.79464 15.7258 5.60979 15.55 5.52073C15.4001 5.4448 15.1018 5.40954 13.003 5.21952C11.6954 5.1012 10.6125 4.99037 10.5965 4.97331C10.5805 4.95622 10.1944 4.02362 9.73864 2.90084C8.58223 0.0522261 8.66978 0.233512 8.37439 0.0750019C8.19616 -0.0206644 7.80183 -0.025828 7.6366 0.0653552Z" fill="currentColor"/>
</svg>
