<svg width="100%" height="100%" viewBox="0 0 16 16" fill="none" xmlns="http://www.w3.org/2000/svg">
<path fill-rule="evenodd" clip-rule="evenodd" d="M1.41666 0.0571978C1.29062 0.0853848 1.09375 0.154996 0.979165 0.211884C0.728543 0.336412 0.335756 0.727303 0.213341 0.974047C-0.00515595 1.41437 1.05346e-05 1.28316 1.05346e-05 6.38733V11.13L0.106676 11.2603C0.228382 11.409 0.453171 11.4721 0.606044 11.4005C0.660835 11.3748 1.30845 10.8886 2.04519 10.3199C2.78193 9.75126 3.44755 9.25902 3.52434 9.22603C3.64026 9.17626 4.26029 9.16602 7.17567 9.1658C9.23093 9.16567 10.7891 9.14845 10.9327 9.12425C11.6949 8.99595 12.2927 8.38128 12.4175 7.59765C12.4704 7.26566 12.4704 1.89925 12.4175 1.56726C12.2927 0.783635 11.6949 0.16896 10.9327 0.0406624C10.5544 -0.0230368 1.70703 -0.00761526 1.41666 0.0571978ZM13.7809 6.19957C13.7659 7.58433 13.7527 7.85669 13.6887 8.09512C13.3742 9.26758 12.5402 10.1238 11.4058 10.4389C11.1727 10.5037 10.751 10.5127 7.34367 10.5257L3.54163 10.5402L3.54234 11.2561C3.54342 12.3312 3.64009 12.688 4.05137 13.1351C4.29479 13.3997 4.51495 13.5418 4.83045 13.6379C5.0307 13.6989 5.46632 13.7068 8.61402 13.7068C11.1802 13.7068 12.2249 13.7207 12.3638 13.7566C12.513 13.7953 12.8717 14.0491 13.959 14.8855C14.7306 15.479 15.4115 15.9774 15.4721 15.993C15.5364 16.0096 15.6423 15.9958 15.7258 15.9599C16.0172 15.8347 15.9998 16.1527 15.9998 10.9481C15.9998 7.63814 15.986 6.19053 15.953 6.03032C15.8178 5.37568 15.2955 4.81841 14.6519 4.64221C14.5339 4.60992 14.2936 4.58323 14.1179 4.58297L13.7984 4.58246L13.7809 6.19957Z" fill="currentColor"/>
</svg>
