<svg xmlns="http://www.w3.org/2000/svg" version="1.0" width="50.000000pt" height="50.000000pt" viewBox="0 0 50.000000 50.000000" preserveAspectRatio="xMidYMid meet">

<g transform="translate(0.000000,50.000000) scale(0.100000,-0.100000)" fill="#4c4c4c" stroke="none">
<circle fill='#fff' cx="250" cy="250" r="200"/>
<path d="M177 486 c-126 -47 -200 -174 -168 -291 51 -190 278 -255 415 -119 96 96 96 252 0 348 -64 63 -171 90 -247 62z m157 -155 c26 -27 31 -39 31 -81 0 -43 -5 -54 -33 -82 -47 -48 -117 -48 -164 0 -28 28 -33 39 -33 81 0 52 25 92 70 112 37 16 96 3 129 -30z"/>
<path d="M211 306 c-16 -19 5 -32 25 -15 11 9 18 9 26 1 9 -9 6 -18 -12 -37 -23 -24 -23 -25 -3 -25 42 0 73 70 37 84 -27 10 -61 7 -73 -8z"/>
<path d="M234 199 c-10 -17 13 -36 27 -22 12 12 4 33 -11 33 -5 0 -12 -5 -16 -11z"/>
</g>
</svg>