<svg xmlns="http://www.w3.org/2000/svg" width="100%" height="100%">
    <path fill="currentColor" fill-rule="evenodd" d="M15.063 6.976l-3.257 3.257-1.448-1.448 3.258-3.257c.799-.8.799-2.096 0-2.896-.8-.799-2.096-.799-2.896 0L7.462 5.89 6.015 4.442l3.257-3.257c1.599-1.6 4.192-1.6 5.791 0 1.6 1.599 1.6 4.191 0 5.791zM2.757 10.595c-.799.8-.8 2.096 0 2.896.8.799 2.096.799 2.896 0l3.257-3.258 1.448 1.448L7.1 14.939c-1.599 1.599-4.192 1.599-5.791 0-1.599-1.6-1.599-4.192 0-5.792L4.567 5.89l1.448 1.448-3.258 3.257z"/>
</svg>
