<svg width="100%" height="100%" viewBox="0 0 16 16" fill="none" xmlns="http://www.w3.org/2000/svg">

    <circle fill='#fff' cx="8" cy="8" r="4"/>
    <path fill-rule="evenodd" clip-rule="evenodd" d="M4.56873 1.99418L5.2177 0.984936C5.605 0.382666 5.8801 -0.013952 5.9 0.00129869C5.97233 0.0568073 7.94713 1.06555 7.98347 1.06555C8.0048 1.06555 8.4875 0.825803 9.0562 0.532776C9.62487 0.239749 10.1011 0 10.1145 0C10.1334 0 10.6287 0.747918 11.4205 1.9722C11.4318 1.98965 11.9784 2.03287 12.6352 2.0683C13.292 2.10373 13.8336 2.1369 13.8387 2.14203C13.8438 2.14715 13.8711 2.60005 13.8993 3.14851C13.9275 3.69693 13.9588 4.23604 13.9689 4.34649L13.9871 4.54731L14.9935 5.19517L16 5.84299L15.4583 6.89859C15.1604 7.47918 14.9167 7.97136 14.9167 7.99234C14.9167 8.01332 15.1571 8.49618 15.451 9.06532C15.7449 9.63446 15.9811 10.1118 15.976 10.126C15.9709 10.1402 15.5242 10.4391 14.9833 10.7902C14.4425 11.1412 13.9949 11.4333 13.9886 11.4391C13.9823 11.445 13.9482 11.9857 13.9128 12.6407C13.8774 13.2957 13.8442 13.8358 13.8391 13.8409C13.8339 13.846 13.3806 13.8733 12.8315 13.9015C12.2825 13.9296 11.7433 13.9609 11.6333 13.971L11.4333 13.9892L10.7844 14.9946L10.1355 16L9.07817 15.4589C8.49663 15.1612 8.00523 14.9177 7.98617 14.9177C7.95003 14.9177 6.3905 15.7186 6.1 15.8864C6.00833 15.9393 5.91547 15.979 5.89367 15.9746C5.87183 15.9702 5.56647 15.5246 5.2151 14.9843C4.86373 14.4441 4.57143 13.9969 4.56557 13.9906C4.5597 13.9843 4.01843 13.9502 3.36277 13.9149C2.70707 13.8795 2.16643 13.8464 2.1613 13.8413C2.15617 13.8361 2.1289 13.3832 2.10067 12.8348C2.07247 12.2864 2.04117 11.7477 2.0311 11.6378L2.01287 11.438L1.00643 10.7898L0 10.1416L0.541667 9.08224C0.839567 8.49958 1.08333 8.00789 1.08333 7.98961C1.08333 7.9713 0.842767 7.49023 0.548733 6.92056C0.2547 6.35086 0.0184667 5.87219 0.0237334 5.85684C0.0290001 5.84146 0.475833 5.54184 1.01667 5.19104C1.5575 4.84024 2.00513 4.54878 2.01143 4.54335C2.01773 4.53792 2.05183 3.99759 2.08723 3.3426C2.12263 2.68759 2.1558 2.14752 2.16093 2.14239C2.16607 2.13726 2.61943 2.11003 3.16847 2.08182C3.71747 2.05365 4.25713 2.02239 4.3677 2.01236L4.56873 1.99418ZM8.73657 7.50276L10.7697 5.46967L11.8303 6.53033L7.83032 10.5303L7.29999 11.0607L6.76966 10.5303L4.26966 8.03033L5.33032 6.96967L7.27526 8.91462L7.78757 8.42003C8.02026 8.19538 8.37378 7.85366 8.73657 7.50276Z" fill="currentColor"/>

</svg>
